<mxfile host="app.diagrams.net" modified="2024-01-22T03:00:15.023Z" agent="Mozilla/5.0 (Macintosh; Intel Mac OS X 10_15_7) AppleWebKit/537.36 (KHTML, like Gecko) Chrome/120.0.0.0 Safari/537.36" etag="lAOX44ILcvLCRYATAsFK" version="22.1.21" type="github">
  <diagram id="fS3fNCyKhhayTO1-3gkl" name="第 1 页">
    <mxGraphModel dx="803" dy="-350" grid="1" gridSize="10" guides="1" tooltips="1" connect="1" arrows="1" fold="1" page="1" pageScale="1" pageWidth="827" pageHeight="1169" math="0" shadow="0">
      <root>
        <mxCell id="0" />
        <mxCell id="1" parent="0" />
        <mxCell id="gbdRAvC1I9ubyzMzI1sU-762" value="触发开启混部" style="text;html=1;align=center;verticalAlign=middle;resizable=0;points=[];autosize=1;strokeColor=none;fillColor=none;" parent="1" vertex="1">
          <mxGeometry x="3570.44" y="1965.8700000000008" width="90" height="20" as="geometry" />
        </mxCell>
        <mxCell id="gbdRAvC1I9ubyzMzI1sU-763" style="edgeStyle=orthogonalEdgeStyle;rounded=0;orthogonalLoop=1;jettySize=auto;html=1;exitX=0.5;exitY=1;exitDx=0;exitDy=0;" parent="1" source="gbdRAvC1I9ubyzMzI1sU-764" target="gbdRAvC1I9ubyzMzI1sU-785" edge="1">
          <mxGeometry relative="1" as="geometry" />
        </mxCell>
        <mxCell id="gbdRAvC1I9ubyzMzI1sU-764" value="00:10 &lt;br&gt;配置定时触发&lt;br&gt;loop：在 00:10 - 06:15 期间" style="rounded=0;whiteSpace=wrap;html=1;fillColor=#b0e3e6;strokeColor=#0e8088;" parent="1" vertex="1">
          <mxGeometry x="2938.6000000000004" y="1524.000000000001" width="178.15" height="40" as="geometry" />
        </mxCell>
        <mxCell id="gbdRAvC1I9ubyzMzI1sU-765" value="容器变动" style="rounded=0;whiteSpace=wrap;html=1;fillColor=none;" parent="1" vertex="1">
          <mxGeometry x="3488.02" y="1716.2300000000014" width="80.03" height="40" as="geometry" />
        </mxCell>
        <mxCell id="gbdRAvC1I9ubyzMzI1sU-766" value="" style="endArrow=none;html=1;rounded=0;" parent="1" edge="1">
          <mxGeometry width="50" height="50" relative="1" as="geometry">
            <mxPoint x="3157.1800000000003" y="1992.3700000000017" as="sourcePoint" />
            <mxPoint x="4107.75" y="1993.6100000000015" as="targetPoint" />
          </mxGeometry>
        </mxCell>
        <mxCell id="gbdRAvC1I9ubyzMzI1sU-767" value="接口调用&lt;br&gt;强制触发" style="rounded=0;whiteSpace=wrap;html=1;fillColor=none;" parent="1" vertex="1">
          <mxGeometry x="3771.7" y="1716.2300000000014" width="90" height="40" as="geometry" />
        </mxCell>
        <mxCell id="gbdRAvC1I9ubyzMzI1sU-768" value="" style="shape=curlyBracket;whiteSpace=wrap;html=1;rounded=1;flipH=1;size=0.5;rotation=90;" parent="1" vertex="1">
          <mxGeometry x="3605.59" y="1446.8100000000013" width="20" height="1010.24" as="geometry" />
        </mxCell>
        <mxCell id="gbdRAvC1I9ubyzMzI1sU-769" value="06:15 左右 &lt;br&gt;定时触发" style="rounded=0;whiteSpace=wrap;html=1;fillColor=#b0e3e6;strokeColor=#0e8088;" parent="1" vertex="1">
          <mxGeometry x="5013.889999999999" y="2354.090000000002" width="96" height="40" as="geometry" />
        </mxCell>
        <mxCell id="gbdRAvC1I9ubyzMzI1sU-770" value="触发关闭混部任务调度" style="text;html=1;align=center;verticalAlign=middle;resizable=0;points=[];autosize=1;strokeColor=none;fillColor=none;" parent="1" vertex="1">
          <mxGeometry x="4982.12" y="2414.090000000002" width="140" height="20" as="geometry" />
        </mxCell>
        <mxCell id="gbdRAvC1I9ubyzMzI1sU-771" style="edgeStyle=orthogonalEdgeStyle;rounded=0;orthogonalLoop=1;jettySize=auto;html=1;entryX=0.5;entryY=0;entryDx=0;entryDy=0;" parent="1" source="gbdRAvC1I9ubyzMzI1sU-772" target="gbdRAvC1I9ubyzMzI1sU-775" edge="1">
          <mxGeometry relative="1" as="geometry" />
        </mxCell>
        <mxCell id="gbdRAvC1I9ubyzMzI1sU-772" value="当前是否处于混部状态" style="rounded=0;whiteSpace=wrap;html=1;fillColor=none;" parent="1" vertex="1">
          <mxGeometry x="4989.62" y="2444.090000000002" width="134" height="40" as="geometry" />
        </mxCell>
        <mxCell id="gbdRAvC1I9ubyzMzI1sU-773" value="return" style="rounded=0;whiteSpace=wrap;html=1;fillColor=none;" parent="1" vertex="1">
          <mxGeometry x="5016.86" y="2624.090000000002" width="80.5" height="30" as="geometry" />
        </mxCell>
        <mxCell id="gbdRAvC1I9ubyzMzI1sU-774" style="edgeStyle=orthogonalEdgeStyle;rounded=0;orthogonalLoop=1;jettySize=auto;html=1;" parent="1" source="gbdRAvC1I9ubyzMzI1sU-775" target="gbdRAvC1I9ubyzMzI1sU-777" edge="1">
          <mxGeometry relative="1" as="geometry" />
        </mxCell>
        <mxCell id="gbdRAvC1I9ubyzMzI1sU-775" value="关闭 yarn 任务调度" style="rounded=0;whiteSpace=wrap;html=1;fillColor=none;" parent="1" vertex="1">
          <mxGeometry x="4993.24" y="2504.090000000002" width="127.75" height="30" as="geometry" />
        </mxCell>
        <mxCell id="gbdRAvC1I9ubyzMzI1sU-776" style="edgeStyle=orthogonalEdgeStyle;rounded=0;orthogonalLoop=1;jettySize=auto;html=1;entryX=0.5;entryY=0;entryDx=0;entryDy=0;" parent="1" source="gbdRAvC1I9ubyzMzI1sU-777" target="gbdRAvC1I9ubyzMzI1sU-773" edge="1">
          <mxGeometry relative="1" as="geometry" />
        </mxCell>
        <mxCell id="gbdRAvC1I9ubyzMzI1sU-777" value="以 0 vcores 1 cpulimit 重启 nm" style="rounded=0;whiteSpace=wrap;html=1;fillColor=none;" parent="1" vertex="1">
          <mxGeometry x="4990.69" y="2564.090000000002" width="131.87" height="40" as="geometry" />
        </mxCell>
        <mxCell id="gbdRAvC1I9ubyzMzI1sU-778" value="wclBaseService" style="rounded=0;whiteSpace=wrap;html=1;fillColor=#f5f5f5;strokeColor=#666666;align=center;gradientColor=#b3b3b3;" parent="1" vertex="1">
          <mxGeometry x="4840" y="1881.4399999999996" width="110.5" height="40" as="geometry" />
        </mxCell>
        <mxCell id="gbdRAvC1I9ubyzMzI1sU-779" value="预开启混部查询接口" style="rounded=0;whiteSpace=wrap;html=1;fillColor=#dae8fc;align=center;strokeColor=#6c8ebf;gradientColor=#7ea6e0;" parent="1" vertex="1">
          <mxGeometry x="5013.889999999999" y="1586.0200000000013" width="116.5" height="38.12" as="geometry" />
        </mxCell>
        <mxCell id="gbdRAvC1I9ubyzMzI1sU-780" value="已开启混部记录接口" style="rounded=0;whiteSpace=wrap;html=1;fillColor=#d5e8d4;strokeColor=#82b366;align=center;gradientColor=#97d077;" parent="1" vertex="1">
          <mxGeometry x="5013.889999999999" y="1666.75" width="119.5" height="38.12" as="geometry" />
        </mxCell>
        <mxCell id="gbdRAvC1I9ubyzMzI1sU-781" value="混部事件同步接口" style="rounded=0;whiteSpace=wrap;html=1;fillColor=#f8cecc;strokeColor=#b85450;align=center;gradientColor=#ea6b66;" parent="1" vertex="1">
          <mxGeometry x="5012.889999999999" y="1746.2199999999993" width="120.5" height="38.12" as="geometry" />
        </mxCell>
        <mxCell id="gbdRAvC1I9ubyzMzI1sU-782" value="" style="shape=curlyBracket;whiteSpace=wrap;html=1;rounded=1;labelBackgroundColor=#F8F9FA;fontColor=#FF3333;" parent="1" vertex="1">
          <mxGeometry x="4961" y="1597.2800000000016" width="20" height="608.32" as="geometry" />
        </mxCell>
        <mxCell id="gbdRAvC1I9ubyzMzI1sU-783" value="关闭混部记录接口" style="rounded=0;whiteSpace=wrap;html=1;fillColor=#ffcd28;strokeColor=#d79b00;align=center;gradientColor=#ffa500;" parent="1" vertex="1">
          <mxGeometry x="5012.889999999999" y="1825.9699999999993" width="120.5" height="38.12" as="geometry" />
        </mxCell>
        <mxCell id="gbdRAvC1I9ubyzMzI1sU-784" value="接口调用&lt;br&gt;定时触发" style="rounded=0;whiteSpace=wrap;html=1;fillColor=none;" parent="1" vertex="1">
          <mxGeometry x="3984.7" y="1716.2300000000014" width="86.41" height="40" as="geometry" />
        </mxCell>
        <mxCell id="gbdRAvC1I9ubyzMzI1sU-785" value="检测混部状态 / per 30 min" style="rounded=0;whiteSpace=wrap;html=1;fillColor=none;" parent="1" vertex="1">
          <mxGeometry x="2922.12" y="1600.0600000000013" width="210.36" height="25.6" as="geometry" />
        </mxCell>
        <mxCell id="gbdRAvC1I9ubyzMzI1sU-786" style="edgeStyle=orthogonalEdgeStyle;rounded=0;orthogonalLoop=1;jettySize=auto;html=1;entryX=1;entryY=0.5;entryDx=0;entryDy=0;exitX=1;exitY=0.5;exitDx=0;exitDy=0;" parent="1" source="gbdRAvC1I9ubyzMzI1sU-788" target="gbdRAvC1I9ubyzMzI1sU-785" edge="1">
          <mxGeometry relative="1" as="geometry" />
        </mxCell>
        <mxCell id="gbdRAvC1I9ubyzMzI1sU-787" style="edgeStyle=orthogonalEdgeStyle;rounded=0;orthogonalLoop=1;jettySize=auto;html=1;" parent="1" source="gbdRAvC1I9ubyzMzI1sU-788" edge="1">
          <mxGeometry relative="1" as="geometry">
            <mxPoint x="3111.0999999999995" y="1932.8700000000008" as="targetPoint" />
          </mxGeometry>
        </mxCell>
        <mxCell id="gbdRAvC1I9ubyzMzI1sU-788" value="当前是否触发干扰检测" style="rounded=0;whiteSpace=wrap;html=1;fillColor=none;" parent="1" vertex="1">
          <mxGeometry x="3072.13" y="1730.9100000000017" width="77.98" height="50.88" as="geometry" />
        </mxCell>
        <mxCell id="gbdRAvC1I9ubyzMzI1sU-789" style="edgeStyle=orthogonalEdgeStyle;rounded=0;orthogonalLoop=1;jettySize=auto;html=1;" parent="1" source="gbdRAvC1I9ubyzMzI1sU-790" target="gbdRAvC1I9ubyzMzI1sU-952" edge="1">
          <mxGeometry relative="1" as="geometry" />
        </mxCell>
        <mxCell id="gbdRAvC1I9ubyzMzI1sU-790" value="混部" style="text;html=1;align=center;verticalAlign=middle;resizable=0;points=[];autosize=1;strokeColor=none;fillColor=none;" parent="1" vertex="1">
          <mxGeometry x="2944.6000000000004" y="1635.3500000000022" width="40" height="20" as="geometry" />
        </mxCell>
        <mxCell id="gbdRAvC1I9ubyzMzI1sU-791" value="触发干扰" style="text;html=1;align=center;verticalAlign=middle;resizable=0;points=[];autosize=1;strokeColor=none;fillColor=none;" parent="1" vertex="1">
          <mxGeometry x="3172.12" y="1649.5300000000025" width="60" height="20" as="geometry" />
        </mxCell>
        <mxCell id="gbdRAvC1I9ubyzMzI1sU-792" value="未触发&lt;br&gt;干扰检测" style="text;html=1;align=center;verticalAlign=middle;resizable=0;points=[];autosize=1;strokeColor=none;fillColor=none;" parent="1" vertex="1">
          <mxGeometry x="3112.12" y="1811.720000000002" width="60" height="30" as="geometry" />
        </mxCell>
        <mxCell id="gbdRAvC1I9ubyzMzI1sU-793" style="edgeStyle=orthogonalEdgeStyle;rounded=0;orthogonalLoop=1;jettySize=auto;html=1;entryX=0.5;entryY=0;entryDx=0;entryDy=0;" parent="1" edge="1">
          <mxGeometry relative="1" as="geometry">
            <mxPoint x="3364.42" y="1827.170000000002" as="sourcePoint" />
            <mxPoint x="3364.169999999999" y="1848.2300000000014" as="targetPoint" />
            <Array as="points">
              <mxPoint x="3364.42" y="1827.170000000002" />
              <mxPoint x="3364.42" y="1827.170000000002" />
            </Array>
          </mxGeometry>
        </mxCell>
        <mxCell id="gbdRAvC1I9ubyzMzI1sU-794" value="yarn容器新增" style="rounded=0;whiteSpace=wrap;html=1;fillColor=none;" parent="1" vertex="1">
          <mxGeometry x="3319.92" y="1794.170000000001" width="88" height="30" as="geometry" />
        </mxCell>
        <mxCell id="gbdRAvC1I9ubyzMzI1sU-795" style="edgeStyle=orthogonalEdgeStyle;rounded=0;orthogonalLoop=1;jettySize=auto;html=1;" parent="1" source="gbdRAvC1I9ubyzMzI1sU-797" target="gbdRAvC1I9ubyzMzI1sU-800" edge="1">
          <mxGeometry relative="1" as="geometry" />
        </mxCell>
        <mxCell id="gbdRAvC1I9ubyzMzI1sU-796" style="edgeStyle=orthogonalEdgeStyle;rounded=0;orthogonalLoop=1;jettySize=auto;html=1;" parent="1" source="gbdRAvC1I9ubyzMzI1sU-797" edge="1">
          <mxGeometry relative="1" as="geometry">
            <mxPoint x="3364.169999999999" y="1937.170000000002" as="targetPoint" />
          </mxGeometry>
        </mxCell>
        <mxCell id="gbdRAvC1I9ubyzMzI1sU-797" value="探测nmOperator&lt;br&gt;正常启动" style="rounded=0;whiteSpace=wrap;html=1;fillColor=none;" parent="1" vertex="1">
          <mxGeometry x="3308.17" y="1851.2300000000014" width="112" height="40" as="geometry" />
        </mxCell>
        <mxCell id="gbdRAvC1I9ubyzMzI1sU-798" style="edgeStyle=orthogonalEdgeStyle;rounded=0;orthogonalLoop=1;jettySize=auto;html=1;" parent="1" source="gbdRAvC1I9ubyzMzI1sU-797" target="gbdRAvC1I9ubyzMzI1sU-797" edge="1">
          <mxGeometry relative="1" as="geometry" />
        </mxCell>
        <mxCell id="gbdRAvC1I9ubyzMzI1sU-799" value="检测2次&amp;nbsp; &lt;br&gt;次/ 30s" style="text;html=1;align=center;verticalAlign=middle;resizable=0;points=[];autosize=1;strokeColor=none;fillColor=none;" parent="1" vertex="1">
          <mxGeometry x="3442.17" y="1856.2300000000014" width="60" height="30" as="geometry" />
        </mxCell>
        <mxCell id="gbdRAvC1I9ubyzMzI1sU-800" value="alert" style="rounded=0;whiteSpace=wrap;html=1;fillColor=#e51400;fontColor=#ffffff;strokeColor=#B20000;" parent="1" vertex="1">
          <mxGeometry x="3210.17" y="1856.2300000000014" width="69" height="30" as="geometry" />
        </mxCell>
        <mxCell id="gbdRAvC1I9ubyzMzI1sU-801" value="超过检测时间" style="text;html=1;align=center;verticalAlign=middle;resizable=0;points=[];autosize=1;strokeColor=none;fillColor=none;" parent="1" vertex="1">
          <mxGeometry x="3199.67" y="1836.2300000000014" width="90" height="20" as="geometry" />
        </mxCell>
        <mxCell id="gbdRAvC1I9ubyzMzI1sU-802" style="edgeStyle=orthogonalEdgeStyle;rounded=0;orthogonalLoop=1;jettySize=auto;html=1;" parent="1" source="gbdRAvC1I9ubyzMzI1sU-803" edge="1">
          <mxGeometry relative="1" as="geometry">
            <mxPoint x="3561.550000000001" y="1869.170000000002" as="targetPoint" />
          </mxGeometry>
        </mxCell>
        <mxCell id="gbdRAvC1I9ubyzMzI1sU-803" value="发现新的&lt;br&gt;在线容器" style="rounded=0;whiteSpace=wrap;html=1;fillColor=none;" parent="1" vertex="1">
          <mxGeometry x="3517.55" y="1799.170000000001" width="88" height="30" as="geometry" />
        </mxCell>
        <mxCell id="gbdRAvC1I9ubyzMzI1sU-804" style="edgeStyle=orthogonalEdgeStyle;rounded=0;orthogonalLoop=1;jettySize=auto;html=1;" parent="1" source="gbdRAvC1I9ubyzMzI1sU-805" edge="1">
          <mxGeometry relative="1" as="geometry">
            <mxPoint x="3677.330000000001" y="1869.170000000002" as="targetPoint" />
          </mxGeometry>
        </mxCell>
        <mxCell id="gbdRAvC1I9ubyzMzI1sU-805" value="yarn容器销毁" style="rounded=0;whiteSpace=wrap;html=1;fillColor=none;" parent="1" vertex="1">
          <mxGeometry x="3633.33" y="1799.170000000001" width="88" height="30" as="geometry" />
        </mxCell>
        <mxCell id="gbdRAvC1I9ubyzMzI1sU-806" value="" style="shape=curlyBracket;whiteSpace=wrap;html=1;rounded=1;flipH=1;size=0.5;rotation=-90;" parent="1" vertex="1">
          <mxGeometry x="3517.3" y="1620.760000000002" width="21.47" height="310.94" as="geometry" />
        </mxCell>
        <mxCell id="gbdRAvC1I9ubyzMzI1sU-807" style="edgeStyle=orthogonalEdgeStyle;rounded=0;orthogonalLoop=1;jettySize=auto;html=1;entryX=0.5;entryY=0;entryDx=0;entryDy=0;" parent="1" source="gbdRAvC1I9ubyzMzI1sU-808" target="gbdRAvC1I9ubyzMzI1sU-788" edge="1">
          <mxGeometry relative="1" as="geometry" />
        </mxCell>
        <mxCell id="gbdRAvC1I9ubyzMzI1sU-808" value="未混部" style="text;html=1;align=center;verticalAlign=middle;resizable=0;points=[];autosize=1;strokeColor=none;fillColor=none;" parent="1" vertex="1">
          <mxGeometry x="3086.12" y="1635.3500000000022" width="50" height="20" as="geometry" />
        </mxCell>
        <mxCell id="gbdRAvC1I9ubyzMzI1sU-809" value="未开启" style="text;html=1;align=center;verticalAlign=middle;resizable=0;points=[];autosize=1;strokeColor=none;fillColor=none;" parent="1" vertex="1">
          <mxGeometry x="3413.17" y="1831.2300000000014" width="50" height="20" as="geometry" />
        </mxCell>
        <mxCell id="gbdRAvC1I9ubyzMzI1sU-810" value="已开启" style="text;html=1;align=center;verticalAlign=middle;resizable=0;points=[];autosize=1;strokeColor=none;fillColor=none;" parent="1" vertex="1">
          <mxGeometry x="3306.45" y="1897.170000000002" width="50" height="20" as="geometry" />
        </mxCell>
        <mxCell id="gbdRAvC1I9ubyzMzI1sU-811" style="edgeStyle=orthogonalEdgeStyle;rounded=0;orthogonalLoop=1;jettySize=auto;html=1;" parent="1" source="gbdRAvC1I9ubyzMzI1sU-812" edge="1">
          <mxGeometry relative="1" as="geometry">
            <mxPoint x="3816.7" y="1876.9700000000012" as="targetPoint" />
          </mxGeometry>
        </mxCell>
        <mxCell id="gbdRAvC1I9ubyzMzI1sU-812" value="说明：&lt;br&gt;忽略初资源预测逻辑外的其他&lt;br&gt;逻辑，直接开启混部，需与强&lt;br&gt;制关闭混部接口配合使用" style="text;html=1;align=center;verticalAlign=middle;resizable=0;points=[];autosize=1;strokeColor=none;fillColor=none;" parent="1" vertex="1">
          <mxGeometry x="3731.7" y="1779.170000000002" width="170" height="60" as="geometry" />
        </mxCell>
        <mxCell id="gbdRAvC1I9ubyzMzI1sU-813" style="edgeStyle=orthogonalEdgeStyle;rounded=0;orthogonalLoop=1;jettySize=auto;html=1;" parent="1" source="gbdRAvC1I9ubyzMzI1sU-814" edge="1">
          <mxGeometry relative="1" as="geometry">
            <mxPoint x="4025.2000000000007" y="1906.9700000000012" as="targetPoint" />
          </mxGeometry>
        </mxCell>
        <mxCell id="gbdRAvC1I9ubyzMzI1sU-814" value="说明：&lt;br&gt;“定时触发“是”强制触发“的托管版本，&lt;br&gt;传入开闭混部的时间参数，自动开启&lt;br&gt;混部。与“强制触发”一样，混部时，&lt;br&gt;忽略初资源预测逻辑外的其他逻辑，&lt;br&gt;直接开启混部，需与强制关闭混部&lt;br&gt;接口配合使用" style="text;html=1;align=center;verticalAlign=middle;resizable=0;points=[];autosize=1;strokeColor=none;fillColor=none;" parent="1" vertex="1">
          <mxGeometry x="3920.2" y="1766.0300000000025" width="210" height="100" as="geometry" />
        </mxCell>
        <mxCell id="gbdRAvC1I9ubyzMzI1sU-815" value="" style="edgeStyle=orthogonalEdgeStyle;rounded=0;orthogonalLoop=1;jettySize=auto;html=1;entryX=0.5;entryY=0;entryDx=0;entryDy=0;" parent="1" source="gbdRAvC1I9ubyzMzI1sU-816" target="gbdRAvC1I9ubyzMzI1sU-820" edge="1">
          <mxGeometry relative="1" as="geometry">
            <mxPoint x="3646.22" y="2051.550000000001" as="targetPoint" />
          </mxGeometry>
        </mxCell>
        <mxCell id="gbdRAvC1I9ubyzMzI1sU-816" value="获取新增容器信息" style="rounded=0;whiteSpace=wrap;html=1;fillColor=none;" parent="1" vertex="1">
          <mxGeometry x="3576.2200000000003" y="2006.550000000001" width="140" height="40" as="geometry" />
        </mxCell>
        <mxCell id="gbdRAvC1I9ubyzMzI1sU-817" value="" style="edgeStyle=orthogonalEdgeStyle;rounded=0;orthogonalLoop=1;jettySize=auto;html=1;" parent="1" source="gbdRAvC1I9ubyzMzI1sU-820" target="gbdRAvC1I9ubyzMzI1sU-823" edge="1">
          <mxGeometry relative="1" as="geometry" />
        </mxCell>
        <mxCell id="gbdRAvC1I9ubyzMzI1sU-818" style="edgeStyle=orthogonalEdgeStyle;rounded=0;orthogonalLoop=1;jettySize=auto;html=1;" parent="1" source="gbdRAvC1I9ubyzMzI1sU-820" edge="1">
          <mxGeometry relative="1" as="geometry">
            <mxPoint x="3774.22" y="2106.550000000001" as="targetPoint" />
          </mxGeometry>
        </mxCell>
        <mxCell id="gbdRAvC1I9ubyzMzI1sU-819" style="edgeStyle=orthogonalEdgeStyle;rounded=0;orthogonalLoop=1;jettySize=auto;html=1;entryX=1;entryY=0.5;entryDx=0;entryDy=0;strokeColor=#000000;" parent="1" source="gbdRAvC1I9ubyzMzI1sU-820" target="gbdRAvC1I9ubyzMzI1sU-1026" edge="1">
          <mxGeometry relative="1" as="geometry" />
        </mxCell>
        <mxCell id="gbdRAvC1I9ubyzMzI1sU-820" value="&lt;span&gt;当前物理机&lt;/span&gt;&lt;br&gt;&lt;span&gt;是否存在yarn容器&lt;/span&gt;" style="rounded=0;whiteSpace=wrap;html=1;fillColor=none;" parent="1" vertex="1">
          <mxGeometry x="3576.2200000000003" y="2087.550000000001" width="140" height="38" as="geometry" />
        </mxCell>
        <mxCell id="gbdRAvC1I9ubyzMzI1sU-821" value="" style="edgeStyle=orthogonalEdgeStyle;rounded=0;orthogonalLoop=1;jettySize=auto;html=1;" parent="1" source="gbdRAvC1I9ubyzMzI1sU-823" target="gbdRAvC1I9ubyzMzI1sU-828" edge="1">
          <mxGeometry relative="1" as="geometry" />
        </mxCell>
        <mxCell id="gbdRAvC1I9ubyzMzI1sU-822" style="edgeStyle=orthogonalEdgeStyle;rounded=0;orthogonalLoop=1;jettySize=auto;html=1;entryX=0.5;entryY=1;entryDx=0;entryDy=0;" parent="1" source="gbdRAvC1I9ubyzMzI1sU-823" target="gbdRAvC1I9ubyzMzI1sU-872" edge="1">
          <mxGeometry relative="1" as="geometry" />
        </mxCell>
        <mxCell id="gbdRAvC1I9ubyzMzI1sU-823" value="请求中心服务当前物理机是否可开启混部" style="rounded=0;whiteSpace=wrap;html=1;fillColor=none;" parent="1" vertex="1">
          <mxGeometry x="3576.2200000000003" y="2161.550000000001" width="140" height="50" as="geometry" />
        </mxCell>
        <mxCell id="gbdRAvC1I9ubyzMzI1sU-824" value="不允许" style="text;html=1;align=center;verticalAlign=middle;resizable=0;points=[];autosize=1;strokeColor=none;fillColor=none;" parent="1" vertex="1">
          <mxGeometry x="3725.21" y="2161.550000000001" width="50" height="20" as="geometry" />
        </mxCell>
        <mxCell id="gbdRAvC1I9ubyzMzI1sU-825" value="&lt;span style=&quot;color: rgb(0, 0, 0); font-family: helvetica; font-size: 12px; font-style: normal; font-weight: 400; letter-spacing: normal; text-align: center; text-indent: 0px; text-transform: none; word-spacing: 0px; background-color: rgb(248, 249, 250); display: inline; float: none;&quot;&gt;不存在 || &lt;br&gt;混部状态为开启 &amp;amp;&amp;amp; &lt;br&gt;不在混部时间&lt;/span&gt;" style="text;whiteSpace=wrap;html=1;" parent="1" vertex="1">
          <mxGeometry x="3466.29" y="2057.6000000000013" width="113.38" height="67.95" as="geometry" />
        </mxCell>
        <mxCell id="gbdRAvC1I9ubyzMzI1sU-826" style="edgeStyle=orthogonalEdgeStyle;rounded=0;orthogonalLoop=1;jettySize=auto;html=1;entryX=1;entryY=0.5;entryDx=0;entryDy=0;" parent="1" source="gbdRAvC1I9ubyzMzI1sU-828" target="gbdRAvC1I9ubyzMzI1sU-836" edge="1">
          <mxGeometry relative="1" as="geometry" />
        </mxCell>
        <mxCell id="gbdRAvC1I9ubyzMzI1sU-827" style="edgeStyle=orthogonalEdgeStyle;rounded=0;orthogonalLoop=1;jettySize=auto;html=1;entryX=0;entryY=0.5;entryDx=0;entryDy=0;" parent="1" source="gbdRAvC1I9ubyzMzI1sU-828" target="gbdRAvC1I9ubyzMzI1sU-838" edge="1">
          <mxGeometry relative="1" as="geometry" />
        </mxCell>
        <mxCell id="gbdRAvC1I9ubyzMzI1sU-828" value="判断当前混部状态" style="rounded=0;whiteSpace=wrap;html=1;fillColor=none;" parent="1" vertex="1">
          <mxGeometry x="3576.42" y="2262.210000000001" width="140" height="30" as="geometry" />
        </mxCell>
        <mxCell id="gbdRAvC1I9ubyzMzI1sU-829" value="支持" style="text;html=1;align=center;verticalAlign=middle;resizable=0;points=[];autosize=1;strokeColor=none;fillColor=none;" parent="1" vertex="1">
          <mxGeometry x="3646.22" y="2056.550000000001" width="40" height="20" as="geometry" />
        </mxCell>
        <mxCell id="gbdRAvC1I9ubyzMzI1sU-830" value="存在" style="text;html=1;align=center;verticalAlign=middle;resizable=0;points=[];autosize=1;strokeColor=none;fillColor=none;" parent="1" vertex="1">
          <mxGeometry x="3646.22" y="2131.550000000001" width="40" height="20" as="geometry" />
        </mxCell>
        <mxCell id="gbdRAvC1I9ubyzMzI1sU-831" value="允许" style="text;html=1;align=center;verticalAlign=middle;resizable=0;points=[];autosize=1;strokeColor=none;fillColor=none;" parent="1" vertex="1">
          <mxGeometry x="3650.22" y="2211.550000000001" width="40" height="20" as="geometry" />
        </mxCell>
        <mxCell id="gbdRAvC1I9ubyzMzI1sU-832" value="alert" style="rounded=0;whiteSpace=wrap;html=1;fillColor=#e51400;fontColor=#ffffff;strokeColor=#B20000;" parent="1" vertex="1">
          <mxGeometry x="3507.2200000000003" y="2006.550000000001" width="69" height="30" as="geometry" />
        </mxCell>
        <mxCell id="gbdRAvC1I9ubyzMzI1sU-833" value="绑核环境发现yarn容器" style="text;html=1;align=center;verticalAlign=middle;resizable=0;points=[];autosize=1;strokeColor=none;fillColor=none;" parent="1" vertex="1">
          <mxGeometry x="3377.2200000000003" y="2011.550000000001" width="130" height="20" as="geometry" />
        </mxCell>
        <mxCell id="gbdRAvC1I9ubyzMzI1sU-834" value="预开启混部查询接口" style="rounded=0;whiteSpace=wrap;html=1;fillColor=#dae8fc;align=center;strokeColor=#6c8ebf;gradientColor=#7ea6e0;" parent="1" vertex="1">
          <mxGeometry x="3455.7200000000003" y="2161.550000000001" width="120.5" height="38.12" as="geometry" />
        </mxCell>
        <mxCell id="gbdRAvC1I9ubyzMzI1sU-835" value="" style="edgeStyle=orthogonalEdgeStyle;rounded=0;orthogonalLoop=1;jettySize=auto;html=1;entryX=0.5;entryY=0;entryDx=0;entryDy=0;" parent="1" source="gbdRAvC1I9ubyzMzI1sU-836" target="gbdRAvC1I9ubyzMzI1sU-841" edge="1">
          <mxGeometry relative="1" as="geometry" />
        </mxCell>
        <mxCell id="gbdRAvC1I9ubyzMzI1sU-836" value="处于混部状态" style="rounded=0;whiteSpace=wrap;html=1;fillColor=none;" parent="1" vertex="1">
          <mxGeometry x="3357.15" y="2257.210000000001" width="140" height="40" as="geometry" />
        </mxCell>
        <mxCell id="gbdRAvC1I9ubyzMzI1sU-837" style="edgeStyle=orthogonalEdgeStyle;rounded=0;orthogonalLoop=1;jettySize=auto;html=1;" parent="1" source="gbdRAvC1I9ubyzMzI1sU-838" target="gbdRAvC1I9ubyzMzI1sU-845" edge="1">
          <mxGeometry relative="1" as="geometry" />
        </mxCell>
        <mxCell id="gbdRAvC1I9ubyzMzI1sU-838" value="处于非混部状态" style="rounded=0;whiteSpace=wrap;html=1;fillColor=none;" parent="1" vertex="1">
          <mxGeometry x="3796.7900000000004" y="2257.210000000001" width="140" height="40" as="geometry" />
        </mxCell>
        <mxCell id="gbdRAvC1I9ubyzMzI1sU-839" style="edgeStyle=orthogonalEdgeStyle;rounded=0;orthogonalLoop=1;jettySize=auto;html=1;" parent="1" source="gbdRAvC1I9ubyzMzI1sU-841" target="gbdRAvC1I9ubyzMzI1sU-855" edge="1">
          <mxGeometry relative="1" as="geometry" />
        </mxCell>
        <mxCell id="gbdRAvC1I9ubyzMzI1sU-840" style="edgeStyle=orthogonalEdgeStyle;rounded=0;orthogonalLoop=1;jettySize=auto;html=1;entryX=1;entryY=0.5;entryDx=0;entryDy=0;strokeColor=#000000;" parent="1" source="gbdRAvC1I9ubyzMzI1sU-841" target="gbdRAvC1I9ubyzMzI1sU-1028" edge="1">
          <mxGeometry relative="1" as="geometry" />
        </mxCell>
        <mxCell id="gbdRAvC1I9ubyzMzI1sU-841" value="混部时间外" style="rounded=0;whiteSpace=wrap;html=1;fillColor=none;" parent="1" vertex="1">
          <mxGeometry x="3357.15" y="2327.210000000001" width="140" height="40" as="geometry" />
        </mxCell>
        <mxCell id="gbdRAvC1I9ubyzMzI1sU-842" value="是" style="text;html=1;align=center;verticalAlign=middle;resizable=0;points=[];autosize=1;strokeColor=none;fillColor=none;" parent="1" vertex="1">
          <mxGeometry x="3327.15" y="2327.210000000001" width="30" height="20" as="geometry" />
        </mxCell>
        <mxCell id="gbdRAvC1I9ubyzMzI1sU-843" value="否" style="text;html=1;align=center;verticalAlign=middle;resizable=0;points=[];autosize=1;strokeColor=none;fillColor=none;" parent="1" vertex="1">
          <mxGeometry x="3428.15" y="2367.210000000001" width="30" height="20" as="geometry" />
        </mxCell>
        <mxCell id="gbdRAvC1I9ubyzMzI1sU-844" style="edgeStyle=orthogonalEdgeStyle;rounded=0;orthogonalLoop=1;jettySize=auto;html=1;" parent="1" source="gbdRAvC1I9ubyzMzI1sU-845" edge="1">
          <mxGeometry relative="1" as="geometry">
            <mxPoint x="3866.8260869565224" y="2386.290000000001" as="targetPoint" />
          </mxGeometry>
        </mxCell>
        <mxCell id="gbdRAvC1I9ubyzMzI1sU-845" value="处于混部时间窗口" style="rounded=0;whiteSpace=wrap;html=1;fillColor=none;" parent="1" vertex="1">
          <mxGeometry x="3796.79" y="2321.210000000001" width="140" height="40" as="geometry" />
        </mxCell>
        <mxCell id="gbdRAvC1I9ubyzMzI1sU-846" value="" style="edgeStyle=orthogonalEdgeStyle;rounded=0;orthogonalLoop=1;jettySize=auto;html=1;entryX=0.5;entryY=0;entryDx=0;entryDy=0;exitX=0;exitY=0.5;exitDx=0;exitDy=0;" parent="1" source="gbdRAvC1I9ubyzMzI1sU-845" target="gbdRAvC1I9ubyzMzI1sU-858" edge="1">
          <mxGeometry relative="1" as="geometry">
            <Array as="points">
              <mxPoint x="3642.42" y="2341.210000000001" />
            </Array>
          </mxGeometry>
        </mxCell>
        <mxCell id="gbdRAvC1I9ubyzMzI1sU-847" value="否" style="text;html=1;align=center;verticalAlign=middle;resizable=0;points=[];autosize=1;strokeColor=none;fillColor=none;" parent="1" vertex="1">
          <mxGeometry x="3755.57" y="2314.210000000001" width="30" height="20" as="geometry" />
        </mxCell>
        <mxCell id="gbdRAvC1I9ubyzMzI1sU-848" value="是" style="text;html=1;align=center;verticalAlign=middle;resizable=0;points=[];autosize=1;strokeColor=none;fillColor=none;" parent="1" vertex="1">
          <mxGeometry x="3815.7000000000003" y="2361.210000000001" width="30" height="20" as="geometry" />
        </mxCell>
        <mxCell id="gbdRAvC1I9ubyzMzI1sU-849" style="edgeStyle=orthogonalEdgeStyle;rounded=0;orthogonalLoop=1;jettySize=auto;html=1;entryX=0.5;entryY=0;entryDx=0;entryDy=0;exitX=0.5;exitY=1;exitDx=0;exitDy=0;" parent="1" source="gbdRAvC1I9ubyzMzI1sU-851" target="gbdRAvC1I9ubyzMzI1sU-860" edge="1">
          <mxGeometry relative="1" as="geometry" />
        </mxCell>
        <mxCell id="gbdRAvC1I9ubyzMzI1sU-850" style="edgeStyle=orthogonalEdgeStyle;rounded=0;orthogonalLoop=1;jettySize=auto;html=1;exitX=0;exitY=0.25;exitDx=0;exitDy=0;entryX=1;entryY=0.5;entryDx=0;entryDy=0;" parent="1" source="gbdRAvC1I9ubyzMzI1sU-851" target="gbdRAvC1I9ubyzMzI1sU-858" edge="1">
          <mxGeometry relative="1" as="geometry" />
        </mxCell>
        <mxCell id="gbdRAvC1I9ubyzMzI1sU-851" value="资源预测&lt;br&gt;在线容器CPU资源按照0.45buffer预留&lt;br&gt;离线容器资源 &lt;br&gt;CPU按5核倍数分配&lt;br&gt;同时，cpu按照1倍超分&lt;br&gt;CPU:MEM按照 1:3 ～1:8动态分配" style="rounded=0;whiteSpace=wrap;html=1;fillColor=none;" parent="1" vertex="1">
          <mxGeometry x="3760.58" y="2386.290000000001" width="244.42" height="96.6" as="geometry" />
        </mxCell>
        <mxCell id="gbdRAvC1I9ubyzMzI1sU-852" value="资源不足" style="text;html=1;align=center;verticalAlign=middle;resizable=0;points=[];autosize=1;strokeColor=none;fillColor=none;" parent="1" vertex="1">
          <mxGeometry x="3704.42" y="2427.210000000001" width="60" height="20" as="geometry" />
        </mxCell>
        <mxCell id="gbdRAvC1I9ubyzMzI1sU-853" style="edgeStyle=orthogonalEdgeStyle;rounded=0;orthogonalLoop=1;jettySize=auto;html=1;entryX=0;entryY=0.5;entryDx=0;entryDy=0;" parent="1" source="gbdRAvC1I9ubyzMzI1sU-855" target="gbdRAvC1I9ubyzMzI1sU-858" edge="1">
          <mxGeometry relative="1" as="geometry" />
        </mxCell>
        <mxCell id="gbdRAvC1I9ubyzMzI1sU-854" style="edgeStyle=orthogonalEdgeStyle;rounded=0;orthogonalLoop=1;jettySize=auto;html=1;exitX=0.5;exitY=1;exitDx=0;exitDy=0;" parent="1" source="gbdRAvC1I9ubyzMzI1sU-855" target="gbdRAvC1I9ubyzMzI1sU-877" edge="1">
          <mxGeometry relative="1" as="geometry">
            <mxPoint x="3585.1400000000003" y="2544.3300000000017" as="targetPoint" />
          </mxGeometry>
        </mxCell>
        <mxCell id="gbdRAvC1I9ubyzMzI1sU-855" value="新增online容器" style="rounded=0;whiteSpace=wrap;html=1;fillColor=none;" parent="1" vertex="1">
          <mxGeometry x="3357.15" y="2402.210000000001" width="140" height="40" as="geometry" />
        </mxCell>
        <mxCell id="gbdRAvC1I9ubyzMzI1sU-856" value="否" style="text;html=1;align=center;verticalAlign=middle;resizable=0;points=[];autosize=1;strokeColor=none;fillColor=none;" parent="1" vertex="1">
          <mxGeometry x="3525.67" y="2397.210000000001" width="30" height="20" as="geometry" />
        </mxCell>
        <mxCell id="gbdRAvC1I9ubyzMzI1sU-857" value="是" style="text;html=1;align=center;verticalAlign=middle;resizable=0;points=[];autosize=1;strokeColor=none;fillColor=none;" parent="1" vertex="1">
          <mxGeometry x="3433.6800000000003" y="2447.210000000001" width="30" height="20" as="geometry" />
        </mxCell>
        <mxCell id="gbdRAvC1I9ubyzMzI1sU-858" value="return" style="rounded=0;whiteSpace=wrap;html=1;fillColor=none;" parent="1" vertex="1">
          <mxGeometry x="3596.51" y="2407.210000000001" width="92.5" height="30" as="geometry" />
        </mxCell>
        <mxCell id="gbdRAvC1I9ubyzMzI1sU-859" style="edgeStyle=orthogonalEdgeStyle;rounded=0;orthogonalLoop=1;jettySize=auto;html=1;entryX=0;entryY=0.5;entryDx=0;entryDy=0;fontColor=#000000;strokeColor=#000000;" parent="1" source="gbdRAvC1I9ubyzMzI1sU-860" target="gbdRAvC1I9ubyzMzI1sU-897" edge="1">
          <mxGeometry relative="1" as="geometry" />
        </mxCell>
        <mxCell id="gbdRAvC1I9ubyzMzI1sU-860" value="开启 混部" style="rounded=0;whiteSpace=wrap;html=1;fillColor=none;" parent="1" vertex="1">
          <mxGeometry x="3827.18" y="2505.340000000001" width="85" height="32" as="geometry" />
        </mxCell>
        <mxCell id="gbdRAvC1I9ubyzMzI1sU-861" value="06:50&lt;br&gt;配置定时触发" style="rounded=0;whiteSpace=wrap;html=1;fillColor=#b0e3e6;strokeColor=#0e8088;" parent="1" vertex="1">
          <mxGeometry x="5190.17" y="2354.090000000002" width="96" height="40" as="geometry" />
        </mxCell>
        <mxCell id="gbdRAvC1I9ubyzMzI1sU-862" value="异常情况" style="rounded=0;whiteSpace=wrap;html=1;fillColor=none;dashed=1;" parent="1" vertex="1">
          <mxGeometry x="5319.65" y="2355.090000000002" width="100" height="40" as="geometry" />
        </mxCell>
        <mxCell id="gbdRAvC1I9ubyzMzI1sU-863" style="edgeStyle=orthogonalEdgeStyle;rounded=0;orthogonalLoop=1;jettySize=auto;html=1;entryX=0.5;entryY=0;entryDx=0;entryDy=0;exitX=0.5;exitY=1;exitDx=0;exitDy=0;" parent="1" source="gbdRAvC1I9ubyzMzI1sU-860" target="gbdRAvC1I9ubyzMzI1sU-875" edge="1">
          <mxGeometry relative="1" as="geometry">
            <mxPoint x="3869.4000000000005" y="2584.3500000000013" as="sourcePoint" />
            <mxPoint x="3869.755" y="2556.3500000000013" as="targetPoint" />
          </mxGeometry>
        </mxCell>
        <mxCell id="gbdRAvC1I9ubyzMzI1sU-864" style="edgeStyle=orthogonalEdgeStyle;rounded=0;orthogonalLoop=1;jettySize=auto;html=1;entryX=0.5;entryY=0;entryDx=0;entryDy=0;" parent="1" source="gbdRAvC1I9ubyzMzI1sU-867" target="gbdRAvC1I9ubyzMzI1sU-868" edge="1">
          <mxGeometry relative="1" as="geometry" />
        </mxCell>
        <mxCell id="gbdRAvC1I9ubyzMzI1sU-865" style="edgeStyle=orthogonalEdgeStyle;rounded=0;orthogonalLoop=1;jettySize=auto;html=1;strokeColor=#000000;entryX=1;entryY=0.5;entryDx=0;entryDy=0;" parent="1" source="gbdRAvC1I9ubyzMzI1sU-867" target="gbdRAvC1I9ubyzMzI1sU-975" edge="1">
          <mxGeometry relative="1" as="geometry" />
        </mxCell>
        <mxCell id="gbdRAvC1I9ubyzMzI1sU-866" value="首次启动-超分&lt;br&gt;vcore / core = 4 / 3&amp;nbsp;" style="edgeLabel;html=1;align=center;verticalAlign=middle;resizable=0;points=[];" parent="gbdRAvC1I9ubyzMzI1sU-865" vertex="1" connectable="0">
          <mxGeometry x="0.0765" y="2" relative="1" as="geometry">
            <mxPoint x="-164" y="-2" as="offset" />
          </mxGeometry>
        </mxCell>
        <mxCell id="gbdRAvC1I9ubyzMzI1sU-867" value="offline 容器绑核及扩容&lt;br&gt;+&lt;br&gt;以新规格 重启 offline容器中的 nm（超分：vcores / cores =&amp;nbsp; 4 / 3 ）&lt;br&gt;+&lt;br&gt;开启 yarn job 调度" style="rounded=0;whiteSpace=wrap;html=1;fillColor=none;" parent="1" vertex="1">
          <mxGeometry x="3770.69" y="2620.430000000002" width="197.97" height="90.12" as="geometry" />
        </mxCell>
        <mxCell id="gbdRAvC1I9ubyzMzI1sU-868" value="已开启混部记录接口" style="rounded=0;whiteSpace=wrap;html=1;fillColor=#d5e8d4;strokeColor=#82b366;align=center;gradientColor=#97d077;" parent="1" vertex="1">
          <mxGeometry x="3809.9300000000003" y="2732.8100000000013" width="119.5" height="38.12" as="geometry" />
        </mxCell>
        <mxCell id="gbdRAvC1I9ubyzMzI1sU-869" value="alert" style="rounded=0;whiteSpace=wrap;html=1;fillColor=#e51400;fontColor=#ffffff;strokeColor=#B20000;" parent="1" vertex="1">
          <mxGeometry x="3280.4399999999996" y="2387.210000000001" width="52" height="25" as="geometry" />
        </mxCell>
        <mxCell id="gbdRAvC1I9ubyzMzI1sU-870" value="此前存在yarn，&lt;br&gt;现发现新yarn。" style="text;html=1;align=center;verticalAlign=middle;resizable=0;points=[];autosize=1;strokeColor=none;fillColor=none;" parent="1" vertex="1">
          <mxGeometry x="3264.42" y="2412.210000000001" width="100" height="30" as="geometry" />
        </mxCell>
        <mxCell id="gbdRAvC1I9ubyzMzI1sU-871" value="不存在" style="text;html=1;align=center;verticalAlign=middle;resizable=0;points=[];autosize=1;strokeColor=none;fillColor=none;" parent="1" vertex="1">
          <mxGeometry x="3725.21" y="2076.550000000001" width="50" height="20" as="geometry" />
        </mxCell>
        <mxCell id="gbdRAvC1I9ubyzMzI1sU-872" value="return" style="rounded=0;whiteSpace=wrap;html=1;fillColor=none;" parent="1" vertex="1">
          <mxGeometry x="3775.21" y="2091.550000000001" width="59.01" height="25" as="geometry" />
        </mxCell>
        <mxCell id="gbdRAvC1I9ubyzMzI1sU-873" value="资源符合混部需求" style="text;html=1;align=center;verticalAlign=middle;resizable=0;points=[];autosize=1;strokeColor=none;fillColor=none;" parent="1" vertex="1">
          <mxGeometry x="3895.0000000000005" y="2482.430000000001" width="110" height="20" as="geometry" />
        </mxCell>
        <mxCell id="gbdRAvC1I9ubyzMzI1sU-874" style="edgeStyle=orthogonalEdgeStyle;rounded=0;orthogonalLoop=1;jettySize=auto;html=1;strokeColor=#000000;" parent="1" source="gbdRAvC1I9ubyzMzI1sU-875" target="gbdRAvC1I9ubyzMzI1sU-867" edge="1">
          <mxGeometry relative="1" as="geometry" />
        </mxCell>
        <mxCell id="gbdRAvC1I9ubyzMzI1sU-875" value="online 容器绑核" style="rounded=0;whiteSpace=wrap;html=1;fillColor=none;" parent="1" vertex="1">
          <mxGeometry x="3805.8100000000004" y="2556.1900000000014" width="127.75" height="40" as="geometry" />
        </mxCell>
        <mxCell id="gbdRAvC1I9ubyzMzI1sU-876" style="edgeStyle=orthogonalEdgeStyle;rounded=0;orthogonalLoop=1;jettySize=auto;html=1;entryX=0.5;entryY=1;entryDx=0;entryDy=0;" parent="1" source="gbdRAvC1I9ubyzMzI1sU-877" target="gbdRAvC1I9ubyzMzI1sU-858" edge="1">
          <mxGeometry relative="1" as="geometry" />
        </mxCell>
        <mxCell id="gbdRAvC1I9ubyzMzI1sU-877" value="online 容器绑核" style="rounded=0;whiteSpace=wrap;html=1;fillColor=none;" parent="1" vertex="1">
          <mxGeometry x="3363.27" y="2484.3300000000017" width="127.75" height="40" as="geometry" />
        </mxCell>
        <mxCell id="gbdRAvC1I9ubyzMzI1sU-878" style="edgeStyle=orthogonalEdgeStyle;rounded=0;orthogonalLoop=1;jettySize=auto;html=1;entryX=0.5;entryY=0;entryDx=0;entryDy=0;" parent="1" source="gbdRAvC1I9ubyzMzI1sU-880" target="gbdRAvC1I9ubyzMzI1sU-884" edge="1">
          <mxGeometry relative="1" as="geometry" />
        </mxCell>
        <mxCell id="gbdRAvC1I9ubyzMzI1sU-879" value="goroutine" style="edgeStyle=orthogonalEdgeStyle;rounded=0;orthogonalLoop=1;jettySize=auto;html=1;entryX=0;entryY=0;entryDx=0;entryDy=0;dashed=1;dashPattern=1 2;exitX=1;exitY=0.25;exitDx=0;exitDy=0;" parent="1" source="gbdRAvC1I9ubyzMzI1sU-880" target="gbdRAvC1I9ubyzMzI1sU-891" edge="1">
          <mxGeometry x="-0.207" relative="1" as="geometry">
            <Array as="points">
              <mxPoint x="4330" y="2289.8100000000013" />
              <mxPoint x="4350" y="2289.8100000000013" />
            </Array>
            <mxPoint as="offset" />
          </mxGeometry>
        </mxCell>
        <mxCell id="gbdRAvC1I9ubyzMzI1sU-880" value="当前是否为 wuqing2 绑核环境" style="rounded=0;whiteSpace=wrap;html=1;fillColor=none;" parent="1" vertex="1">
          <mxGeometry x="4166.3099999999995" y="2281.210000000001" width="163.69" height="40" as="geometry" />
        </mxCell>
        <mxCell id="gbdRAvC1I9ubyzMzI1sU-881" style="edgeStyle=orthogonalEdgeStyle;rounded=0;orthogonalLoop=1;jettySize=auto;html=1;" parent="1" source="gbdRAvC1I9ubyzMzI1sU-882" edge="1">
          <mxGeometry relative="1" as="geometry">
            <mxPoint x="4439.336363636363" y="2220.6200000000017" as="targetPoint" />
          </mxGeometry>
        </mxCell>
        <mxCell id="gbdRAvC1I9ubyzMzI1sU-882" value="wclAgentHybrid 启动" style="rounded=0;whiteSpace=wrap;html=1;fillColor=none;" parent="1" vertex="1">
          <mxGeometry x="4364.32" y="2160.6200000000017" width="150" height="30" as="geometry" />
        </mxCell>
        <mxCell id="gbdRAvC1I9ubyzMzI1sU-883" value="config" style="rounded=0;whiteSpace=wrap;html=1;fillColor=none;" parent="1" vertex="1">
          <mxGeometry x="4562.62" y="2230.220000000001" width="90" height="30" as="geometry" />
        </mxCell>
        <mxCell id="gbdRAvC1I9ubyzMzI1sU-884" value="return" style="rounded=0;whiteSpace=wrap;html=1;fillColor=none;" parent="1" vertex="1">
          <mxGeometry x="4208.4400000000005" y="2365.470000000001" width="79.56" height="26.5" as="geometry" />
        </mxCell>
        <mxCell id="gbdRAvC1I9ubyzMzI1sU-885" style="edgeStyle=orthogonalEdgeStyle;rounded=0;orthogonalLoop=1;jettySize=auto;html=1;entryX=0.5;entryY=0;entryDx=0;entryDy=0;exitX=0;exitY=0.5;exitDx=0;exitDy=0;" parent="1" source="gbdRAvC1I9ubyzMzI1sU-886" target="gbdRAvC1I9ubyzMzI1sU-895" edge="1">
          <mxGeometry relative="1" as="geometry">
            <mxPoint x="4752.581818181818" y="2414.220000000001" as="sourcePoint" />
          </mxGeometry>
        </mxCell>
        <mxCell id="gbdRAvC1I9ubyzMzI1sU-886" value="覆盖 mem、cgroup cpu、&lt;br&gt;&amp;nbsp;cpuset cgroup 配置" style="rounded=0;whiteSpace=wrap;html=1;fillColor=none;" parent="1" vertex="1">
          <mxGeometry x="4662.62" y="2387.350000000002" width="147.89" height="33" as="geometry" />
        </mxCell>
        <mxCell id="gbdRAvC1I9ubyzMzI1sU-887" style="edgeStyle=orthogonalEdgeStyle;rounded=0;orthogonalLoop=1;jettySize=auto;html=1;entryX=0.5;entryY=0;entryDx=0;entryDy=0;strokeColor=#000000;" parent="1" source="gbdRAvC1I9ubyzMzI1sU-888" target="gbdRAvC1I9ubyzMzI1sU-886" edge="1">
          <mxGeometry relative="1" as="geometry" />
        </mxCell>
        <mxCell id="gbdRAvC1I9ubyzMzI1sU-888" value="获取最新&lt;br&gt;CPU配置" style="rounded=0;whiteSpace=wrap;html=1;fillColor=none;" parent="1" vertex="1">
          <mxGeometry x="4690.38" y="2330.220000000002" width="92.38" height="35.25" as="geometry" />
        </mxCell>
        <mxCell id="gbdRAvC1I9ubyzMzI1sU-889" style="edgeStyle=orthogonalEdgeStyle;rounded=0;orthogonalLoop=1;jettySize=auto;html=1;entryX=0.5;entryY=0;entryDx=0;entryDy=0;" parent="1" source="gbdRAvC1I9ubyzMzI1sU-891" target="gbdRAvC1I9ubyzMzI1sU-888" edge="1">
          <mxGeometry relative="1" as="geometry">
            <mxPoint x="4752.809999999998" y="2325.220000000001" as="targetPoint" />
          </mxGeometry>
        </mxCell>
        <mxCell id="gbdRAvC1I9ubyzMzI1sU-890" style="edgeStyle=orthogonalEdgeStyle;rounded=0;orthogonalLoop=1;jettySize=auto;html=1;entryX=0.5;entryY=0;entryDx=0;entryDy=0;" parent="1" source="gbdRAvC1I9ubyzMzI1sU-891" target="gbdRAvC1I9ubyzMzI1sU-895" edge="1">
          <mxGeometry relative="1" as="geometry" />
        </mxCell>
        <mxCell id="gbdRAvC1I9ubyzMzI1sU-891" value="配置是否改变" style="rounded=0;whiteSpace=wrap;html=1;fillColor=none;" parent="1" vertex="1">
          <mxGeometry x="4562.62" y="2290.220000000001" width="100" height="30" as="geometry" />
        </mxCell>
        <mxCell id="gbdRAvC1I9ubyzMzI1sU-892" style="edgeStyle=orthogonalEdgeStyle;rounded=0;orthogonalLoop=1;jettySize=auto;html=1;entryX=0;entryY=0.5;entryDx=0;entryDy=0;exitX=0;exitY=0.5;exitDx=0;exitDy=0;" parent="1" source="gbdRAvC1I9ubyzMzI1sU-895" target="gbdRAvC1I9ubyzMzI1sU-891" edge="1">
          <mxGeometry relative="1" as="geometry" />
        </mxCell>
        <mxCell id="gbdRAvC1I9ubyzMzI1sU-893" style="edgeStyle=orthogonalEdgeStyle;rounded=0;orthogonalLoop=1;jettySize=auto;html=1;entryX=1;entryY=0.5;entryDx=0;entryDy=0;" parent="1" edge="1">
          <mxGeometry relative="1" as="geometry">
            <mxPoint x="4612.652173913043" y="2525.220000000002" as="sourcePoint" />
            <mxPoint x="4593.69" y="2680.550000000001" as="targetPoint" />
            <Array as="points">
              <mxPoint x="4613" y="2680.8100000000013" />
            </Array>
          </mxGeometry>
        </mxCell>
        <mxCell id="gbdRAvC1I9ubyzMzI1sU-894" value="echo pid &amp;gt; cgroup.procs" style="edgeLabel;html=1;align=center;verticalAlign=middle;resizable=0;points=[];" parent="gbdRAvC1I9ubyzMzI1sU-893" vertex="1" connectable="0">
          <mxGeometry x="-0.5594" relative="1" as="geometry">
            <mxPoint as="offset" />
          </mxGeometry>
        </mxCell>
        <mxCell id="gbdRAvC1I9ubyzMzI1sU-895" value="获取非容器进程 pid&lt;br&gt;+&lt;br&gt;根据配置限制到不同的cgroup子路径中" style="rounded=0;whiteSpace=wrap;html=1;fillColor=none;" parent="1" vertex="1">
          <mxGeometry x="4508.67" y="2455.220000000002" width="207.89" height="70" as="geometry" />
        </mxCell>
        <mxCell id="gbdRAvC1I9ubyzMzI1sU-896" style="edgeStyle=orthogonalEdgeStyle;rounded=0;orthogonalLoop=1;jettySize=auto;html=1;entryX=0.5;entryY=0;entryDx=0;entryDy=0;" parent="1" source="gbdRAvC1I9ubyzMzI1sU-897" target="gbdRAvC1I9ubyzMzI1sU-901" edge="1">
          <mxGeometry relative="1" as="geometry" />
        </mxCell>
        <mxCell id="gbdRAvC1I9ubyzMzI1sU-897" value="非容器进程绑核" style="rounded=0;whiteSpace=wrap;html=1;fillColor=none;" parent="1" vertex="1">
          <mxGeometry x="4166.3099999999995" y="2506.340000000001" width="97.38" height="30" as="geometry" />
        </mxCell>
        <mxCell id="gbdRAvC1I9ubyzMzI1sU-898" style="edgeStyle=orthogonalEdgeStyle;rounded=0;orthogonalLoop=1;jettySize=auto;html=1;entryX=0.5;entryY=0;entryDx=0;entryDy=0;" parent="1" source="gbdRAvC1I9ubyzMzI1sU-901" target="gbdRAvC1I9ubyzMzI1sU-966" edge="1">
          <mxGeometry relative="1" as="geometry" />
        </mxCell>
        <mxCell id="gbdRAvC1I9ubyzMzI1sU-899" value="限制资源" style="edgeLabel;html=1;align=center;verticalAlign=middle;resizable=0;points=[];" parent="gbdRAvC1I9ubyzMzI1sU-898" vertex="1" connectable="0">
          <mxGeometry x="0.43" y="3" relative="1" as="geometry">
            <mxPoint x="9" y="33" as="offset" />
          </mxGeometry>
        </mxCell>
        <mxCell id="gbdRAvC1I9ubyzMzI1sU-900" style="edgeStyle=orthogonalEdgeStyle;rounded=0;orthogonalLoop=1;jettySize=auto;html=1;" parent="1" source="gbdRAvC1I9ubyzMzI1sU-901" target="gbdRAvC1I9ubyzMzI1sU-968" edge="1">
          <mxGeometry relative="1" as="geometry" />
        </mxCell>
        <mxCell id="gbdRAvC1I9ubyzMzI1sU-901" value="对非容器进程&lt;br&gt;内存、绑核、限制核数&lt;br&gt;同步修改cgroup:mem&lt;br&gt;cpu quota 、cpu set" style="rounded=0;whiteSpace=wrap;html=1;fillColor=none;" parent="1" vertex="1">
          <mxGeometry x="4140" y="2556.1900000000014" width="150" height="60" as="geometry" />
        </mxCell>
        <mxCell id="gbdRAvC1I9ubyzMzI1sU-902" value="" style="endArrow=classic;startArrow=classic;html=1;rounded=0;" parent="1" edge="1">
          <mxGeometry width="50" height="50" relative="1" as="geometry">
            <mxPoint x="4607.12" y="2290.220000000002" as="sourcePoint" />
            <mxPoint x="4607.12" y="2260.220000000002" as="targetPoint" />
          </mxGeometry>
        </mxCell>
        <mxCell id="gbdRAvC1I9ubyzMzI1sU-903" value="check" style="text;html=1;align=center;verticalAlign=middle;resizable=0;points=[];autosize=1;strokeColor=none;fillColor=none;" parent="1" vertex="1">
          <mxGeometry x="4612.62" y="2261.220000000001" width="50" height="20" as="geometry" />
        </mxCell>
        <mxCell id="gbdRAvC1I9ubyzMzI1sU-904" value="改变" style="text;html=1;align=center;verticalAlign=middle;resizable=0;points=[];autosize=1;strokeColor=none;fillColor=none;" parent="1" vertex="1">
          <mxGeometry x="4692.62" y="2279.720000000001" width="40" height="20" as="geometry" />
        </mxCell>
        <mxCell id="gbdRAvC1I9ubyzMzI1sU-905" value="未变" style="text;html=1;align=center;verticalAlign=middle;resizable=0;points=[];autosize=1;strokeColor=none;fillColor=none;" parent="1" vertex="1">
          <mxGeometry x="4617.62" y="2334.220000000001" width="40" height="20" as="geometry" />
        </mxCell>
        <mxCell id="gbdRAvC1I9ubyzMzI1sU-906" value="" style="endArrow=none;html=1;rounded=0;" parent="1" edge="1">
          <mxGeometry width="50" height="50" relative="1" as="geometry">
            <mxPoint x="4090.5099999999993" y="2223.060000000003" as="sourcePoint" />
            <mxPoint x="4810.509999999998" y="2223.060000000003" as="targetPoint" />
          </mxGeometry>
        </mxCell>
        <mxCell id="gbdRAvC1I9ubyzMzI1sU-907" value="是" style="text;html=1;align=center;verticalAlign=middle;resizable=0;points=[];autosize=1;strokeColor=none;fillColor=none;" parent="1" vertex="1">
          <mxGeometry x="4253.929999999999" y="2343.710000000001" width="30" height="20" as="geometry" />
        </mxCell>
        <mxCell id="gbdRAvC1I9ubyzMzI1sU-908" value="Loop：&lt;br&gt;check per 5 min" style="text;html=1;align=center;verticalAlign=middle;resizable=0;points=[];autosize=1;strokeColor=none;fillColor=none;" parent="1" vertex="1">
          <mxGeometry x="4387.62" y="2374.720000000001" width="100" height="30" as="geometry" />
        </mxCell>
        <mxCell id="gbdRAvC1I9ubyzMzI1sU-909" value="&lt;font style=&quot;font-size: 39px;&quot; color=&quot;#ff3333&quot;&gt;开启混部&lt;/font&gt;" style="text;html=1;align=center;verticalAlign=middle;resizable=0;points=[];autosize=1;strokeColor=none;fillColor=none;fontSize=39;" parent="1" vertex="1">
          <mxGeometry x="3574.9300000000003" y="1615.6600000000017" width="170" height="50" as="geometry" />
        </mxCell>
        <mxCell id="gbdRAvC1I9ubyzMzI1sU-910" value="&lt;font style=&quot;font-size: 39px;&quot; color=&quot;#ff3333&quot;&gt;关闭调度&lt;/font&gt;" style="text;html=1;align=center;verticalAlign=middle;resizable=0;points=[];autosize=1;strokeColor=none;fillColor=none;fontSize=39;" parent="1" vertex="1">
          <mxGeometry x="4970" y="2285.590000000002" width="170" height="50" as="geometry" />
        </mxCell>
        <mxCell id="gbdRAvC1I9ubyzMzI1sU-911" value="&lt;font style=&quot;font-size: 39px;&quot; color=&quot;#ff3333&quot;&gt;关闭混部&lt;/font&gt;" style="text;html=1;align=center;verticalAlign=middle;resizable=0;points=[];autosize=1;strokeColor=none;fillColor=none;fontSize=39;" parent="1" vertex="1">
          <mxGeometry x="5266.17" y="2285.590000000002" width="170" height="50" as="geometry" />
        </mxCell>
        <mxCell id="gbdRAvC1I9ubyzMzI1sU-912" value="&lt;font style=&quot;font-size: 39px;&quot; color=&quot;#ff3333&quot;&gt;混部中心-&lt;/font&gt;&lt;span style=&quot;color: rgb(255, 51, 51);&quot;&gt;混部事件&lt;/span&gt;" style="text;html=1;align=center;verticalAlign=middle;resizable=0;points=[];autosize=1;strokeColor=none;fillColor=none;fontSize=39;" parent="1" vertex="1">
          <mxGeometry x="4898.139999999999" y="1520" width="350" height="60" as="geometry" />
        </mxCell>
        <mxCell id="gbdRAvC1I9ubyzMzI1sU-913" value="接口调用&lt;br&gt;强制触发" style="rounded=0;whiteSpace=wrap;html=1;fillColor=none;" parent="1" vertex="1">
          <mxGeometry x="5449.17" y="2354.090000000002" width="90" height="40" as="geometry" />
        </mxCell>
        <mxCell id="gbdRAvC1I9ubyzMzI1sU-914" value="触发关闭混部" style="text;html=1;align=center;verticalAlign=middle;resizable=0;points=[];autosize=1;strokeColor=none;fillColor=none;" parent="1" vertex="1">
          <mxGeometry x="5313.5599999999995" y="2424.590000000002" width="90" height="20" as="geometry" />
        </mxCell>
        <mxCell id="gbdRAvC1I9ubyzMzI1sU-915" value="" style="shape=curlyBracket;whiteSpace=wrap;html=1;rounded=1;flipH=1;size=0.5;rotation=90;" parent="1" vertex="1">
          <mxGeometry x="5353.54" y="2229.590000000002" width="20" height="360" as="geometry" />
        </mxCell>
        <mxCell id="gbdRAvC1I9ubyzMzI1sU-916" value="return" style="rounded=0;whiteSpace=wrap;html=1;fillColor=none;" parent="1" vertex="1">
          <mxGeometry x="5190.98" y="2619.710000000002" width="60.67" height="30" as="geometry" />
        </mxCell>
        <mxCell id="gbdRAvC1I9ubyzMzI1sU-917" style="edgeStyle=orthogonalEdgeStyle;rounded=0;orthogonalLoop=1;jettySize=auto;html=1;" parent="1" source="gbdRAvC1I9ubyzMzI1sU-918" target="gbdRAvC1I9ubyzMzI1sU-923" edge="1">
          <mxGeometry relative="1" as="geometry" />
        </mxCell>
        <mxCell id="gbdRAvC1I9ubyzMzI1sU-918" value="恢复 online 容器绑核" style="rounded=0;whiteSpace=wrap;html=1;fillColor=none;" parent="1" vertex="1">
          <mxGeometry x="5300.21" y="2518.350000000002" width="127.75" height="40" as="geometry" />
        </mxCell>
        <mxCell id="gbdRAvC1I9ubyzMzI1sU-919" style="edgeStyle=orthogonalEdgeStyle;rounded=0;orthogonalLoop=1;jettySize=auto;html=1;entryX=1;entryY=0.5;entryDx=0;entryDy=0;exitX=0;exitY=0.5;exitDx=0;exitDy=0;" parent="1" source="gbdRAvC1I9ubyzMzI1sU-923" target="gbdRAvC1I9ubyzMzI1sU-916" edge="1">
          <mxGeometry relative="1" as="geometry" />
        </mxCell>
        <mxCell id="gbdRAvC1I9ubyzMzI1sU-920" style="edgeStyle=orthogonalEdgeStyle;rounded=0;orthogonalLoop=1;jettySize=auto;html=1;exitX=0.75;exitY=1;exitDx=0;exitDy=0;entryX=0.5;entryY=1;entryDx=0;entryDy=0;" parent="1" source="gbdRAvC1I9ubyzMzI1sU-923" target="gbdRAvC1I9ubyzMzI1sU-968" edge="1">
          <mxGeometry relative="1" as="geometry">
            <Array as="points">
              <mxPoint x="5406" y="2772.8100000000013" />
              <mxPoint x="4215" y="2772.8100000000013" />
            </Array>
          </mxGeometry>
        </mxCell>
        <mxCell id="gbdRAvC1I9ubyzMzI1sU-921" value="&lt;span style=&quot;color: rgba(0, 0, 0, 0); font-family: monospace; font-size: 0px; text-align: start; background-color: rgb(248, 249, 250);&quot;&gt;%3CmxGraphModel%3E%3Croot%3E%3CmxCell%20id%3D%220%22%2F%3E%3CmxCell%20id%3D%221%22%20parent%3D%220%22%2F%3E%3CmxCell%20id%3D%222%22%20value%3D%22channel%22%20style%3D%22text%3Bhtml%3D1%3Balign%3Dcenter%3BverticalAlign%3Dmiddle%3Bresizable%3D0%3Bpoints%3D%5B%5D%3Bautosize%3D1%3BstrokeColor%3Dnone%3BfillColor%3Dnone%3B%22%20vertex%3D%221%22%20parent%3D%221%22%3E%3CmxGeometry%20x%3D%221686.7200000000003%22%20y%3D%226229.36%22%20width%3D%2270%22%20height%3D%2230%22%20as%3D%22geometry%22%2F%3E%3C%2FmxCell%3E%3C%2Froot%3E%3C%2FmxGraphModel%3Ech&lt;/span&gt;" style="edgeLabel;html=1;align=center;verticalAlign=middle;resizable=0;points=[];" parent="gbdRAvC1I9ubyzMzI1sU-920" vertex="1" connectable="0">
          <mxGeometry x="-0.5584" y="1" relative="1" as="geometry">
            <mxPoint as="offset" />
          </mxGeometry>
        </mxCell>
        <mxCell id="gbdRAvC1I9ubyzMzI1sU-922" value="channel" style="edgeLabel;html=1;align=center;verticalAlign=middle;resizable=0;points=[];" parent="gbdRAvC1I9ubyzMzI1sU-920" vertex="1" connectable="0">
          <mxGeometry x="-0.5549" y="4" relative="1" as="geometry">
            <mxPoint x="-397" y="-2" as="offset" />
          </mxGeometry>
        </mxCell>
        <mxCell id="gbdRAvC1I9ubyzMzI1sU-923" value="恢复 offline 容器绑核及缩容&lt;br&gt;+&lt;br&gt;kill yarn job&lt;br&gt;+&lt;br&gt;·解除Agent绑核" style="rounded=0;whiteSpace=wrap;html=1;fillColor=none;" parent="1" vertex="1">
          <mxGeometry x="5278.97" y="2592.090000000002" width="169.13" height="85.24" as="geometry" />
        </mxCell>
        <mxCell id="gbdRAvC1I9ubyzMzI1sU-924" value="关闭混部记录接口" style="rounded=0;whiteSpace=wrap;html=1;fillColor=#ffcd28;strokeColor=#d79b00;align=center;gradientColor=#ffa500;" parent="1" vertex="1">
          <mxGeometry x="5448.1" y="2592.090000000001" width="120.5" height="38.12" as="geometry" />
        </mxCell>
        <mxCell id="gbdRAvC1I9ubyzMzI1sU-925" value="&lt;font color=&quot;#ff3333&quot;&gt;干扰检测&lt;/font&gt;" style="text;html=1;align=center;verticalAlign=middle;resizable=0;points=[];autosize=1;strokeColor=none;fillColor=none;fontSize=39;" parent="1" vertex="1">
          <mxGeometry x="1841.9099999999999" y="1922.6800000000012" width="170" height="50" as="geometry" />
        </mxCell>
        <mxCell id="gbdRAvC1I9ubyzMzI1sU-926" value="&lt;font color=&quot;#ff3333&quot;&gt;监控模块&lt;/font&gt;" style="text;html=1;align=center;verticalAlign=middle;resizable=0;points=[];autosize=1;strokeColor=none;fillColor=none;fontSize=39;" parent="1" vertex="1">
          <mxGeometry x="1594.31" y="1923.6800000000012" width="170" height="50" as="geometry" />
        </mxCell>
        <mxCell id="gbdRAvC1I9ubyzMzI1sU-927" style="edgeStyle=orthogonalEdgeStyle;rounded=0;orthogonalLoop=1;jettySize=auto;html=1;entryX=0;entryY=0.5;entryDx=0;entryDy=0;" parent="1" source="gbdRAvC1I9ubyzMzI1sU-930" target="gbdRAvC1I9ubyzMzI1sU-932" edge="1">
          <mxGeometry relative="1" as="geometry" />
        </mxCell>
        <mxCell id="gbdRAvC1I9ubyzMzI1sU-928" style="edgeStyle=orthogonalEdgeStyle;rounded=0;orthogonalLoop=1;jettySize=auto;html=1;entryX=0.5;entryY=1;entryDx=0;entryDy=0;" parent="1" source="gbdRAvC1I9ubyzMzI1sU-930" target="gbdRAvC1I9ubyzMzI1sU-966" edge="1">
          <mxGeometry relative="1" as="geometry">
            <Array as="points">
              <mxPoint x="1679" y="2822.8100000000013" />
              <mxPoint x="4484" y="2822.8100000000013" />
            </Array>
          </mxGeometry>
        </mxCell>
        <mxCell id="gbdRAvC1I9ubyzMzI1sU-929" value="CPU使用率告警&lt;br&gt;MEM使用量告警&lt;br&gt;OOM告警" style="edgeLabel;html=1;align=center;verticalAlign=middle;resizable=0;points=[];" parent="gbdRAvC1I9ubyzMzI1sU-928" vertex="1" connectable="0">
          <mxGeometry x="0.8778" y="2" relative="1" as="geometry">
            <mxPoint as="offset" />
          </mxGeometry>
        </mxCell>
        <mxCell id="gbdRAvC1I9ubyzMzI1sU-930" value="监控数据推送&lt;br&gt;per 1s" style="rounded=0;whiteSpace=wrap;html=1;fillColor=none;" parent="1" vertex="1">
          <mxGeometry x="1621.1299999999999" y="1978.5600000000013" width="116.37" height="70" as="geometry" />
        </mxCell>
        <mxCell id="gbdRAvC1I9ubyzMzI1sU-931" style="edgeStyle=orthogonalEdgeStyle;rounded=0;orthogonalLoop=1;jettySize=auto;html=1;entryX=0.5;entryY=0;entryDx=0;entryDy=0;" parent="1" source="gbdRAvC1I9ubyzMzI1sU-932" target="gbdRAvC1I9ubyzMzI1sU-934" edge="1">
          <mxGeometry relative="1" as="geometry" />
        </mxCell>
        <mxCell id="gbdRAvC1I9ubyzMzI1sU-932" value="接收监控数据" style="rounded=0;whiteSpace=wrap;html=1;fillColor=none;" parent="1" vertex="1">
          <mxGeometry x="1879.4099999999999" y="1993.5600000000013" width="100" height="40" as="geometry" />
        </mxCell>
        <mxCell id="gbdRAvC1I9ubyzMzI1sU-933" style="edgeStyle=orthogonalEdgeStyle;rounded=0;orthogonalLoop=1;jettySize=auto;html=1;entryX=0.5;entryY=0;entryDx=0;entryDy=0;" parent="1" source="gbdRAvC1I9ubyzMzI1sU-934" target="gbdRAvC1I9ubyzMzI1sU-935" edge="1">
          <mxGeometry relative="1" as="geometry" />
        </mxCell>
        <mxCell id="gbdRAvC1I9ubyzMzI1sU-934" value="对每秒推送的数据&lt;br&gt;作干扰指标检测" style="rounded=0;whiteSpace=wrap;html=1;fillColor=none;" parent="1" vertex="1">
          <mxGeometry x="1870.3899999999999" y="2063.5600000000013" width="119.52" height="60" as="geometry" />
        </mxCell>
        <mxCell id="gbdRAvC1I9ubyzMzI1sU-935" value="判断当前数据是否异常" style="rounded=0;whiteSpace=wrap;html=1;fillColor=none;" parent="1" vertex="1">
          <mxGeometry x="1889.1599999999999" y="2143.5600000000013" width="80.5" height="30" as="geometry" />
        </mxCell>
        <mxCell id="gbdRAvC1I9ubyzMzI1sU-936" value="return" style="rounded=0;whiteSpace=wrap;html=1;fillColor=none;" parent="1" vertex="1">
          <mxGeometry x="1810.4099999999999" y="2248.0600000000013" width="69" height="30" as="geometry" />
        </mxCell>
        <mxCell id="gbdRAvC1I9ubyzMzI1sU-937" style="edgeStyle=orthogonalEdgeStyle;rounded=0;orthogonalLoop=1;jettySize=auto;html=1;" parent="1" source="gbdRAvC1I9ubyzMzI1sU-938" target="gbdRAvC1I9ubyzMzI1sU-936" edge="1">
          <mxGeometry relative="1" as="geometry" />
        </mxCell>
        <mxCell id="gbdRAvC1I9ubyzMzI1sU-938" value="正常" style="text;html=1;align=center;verticalAlign=middle;resizable=0;points=[];autosize=1;strokeColor=none;fillColor=none;" parent="1" vertex="1">
          <mxGeometry x="1824.6599999999999" y="2173.0600000000013" width="40" height="20" as="geometry" />
        </mxCell>
        <mxCell id="gbdRAvC1I9ubyzMzI1sU-939" style="edgeStyle=orthogonalEdgeStyle;rounded=0;orthogonalLoop=1;jettySize=auto;html=1;entryX=0.5;entryY=0;entryDx=0;entryDy=0;" parent="1" source="gbdRAvC1I9ubyzMzI1sU-940" target="gbdRAvC1I9ubyzMzI1sU-942" edge="1">
          <mxGeometry relative="1" as="geometry" />
        </mxCell>
        <mxCell id="gbdRAvC1I9ubyzMzI1sU-940" value="异常" style="text;html=1;align=center;verticalAlign=middle;resizable=0;points=[];autosize=1;strokeColor=none;fillColor=none;" parent="1" vertex="1">
          <mxGeometry x="2003.1599999999999" y="2173.5600000000013" width="40" height="20" as="geometry" />
        </mxCell>
        <mxCell id="gbdRAvC1I9ubyzMzI1sU-941" style="edgeStyle=orthogonalEdgeStyle;rounded=0;orthogonalLoop=1;jettySize=auto;html=1;entryX=0.5;entryY=0;entryDx=0;entryDy=0;" parent="1" source="gbdRAvC1I9ubyzMzI1sU-942" target="gbdRAvC1I9ubyzMzI1sU-945" edge="1">
          <mxGeometry relative="1" as="geometry" />
        </mxCell>
        <mxCell id="gbdRAvC1I9ubyzMzI1sU-942" value="按最大规则窗口&lt;br&gt;从循环队列中取数据" style="rounded=0;whiteSpace=wrap;html=1;fillColor=none;" parent="1" vertex="1">
          <mxGeometry x="1959.4099999999999" y="2218.5600000000013" width="127.5" height="53" as="geometry" />
        </mxCell>
        <mxCell id="gbdRAvC1I9ubyzMzI1sU-943" style="edgeStyle=orthogonalEdgeStyle;rounded=0;orthogonalLoop=1;jettySize=auto;html=1;" parent="1" source="gbdRAvC1I9ubyzMzI1sU-945" target="gbdRAvC1I9ubyzMzI1sU-947" edge="1">
          <mxGeometry relative="1" as="geometry" />
        </mxCell>
        <mxCell id="gbdRAvC1I9ubyzMzI1sU-944" style="edgeStyle=orthogonalEdgeStyle;rounded=0;orthogonalLoop=1;jettySize=auto;html=1;entryX=0;entryY=0.525;entryDx=0;entryDy=0;entryPerimeter=0;" parent="1" source="gbdRAvC1I9ubyzMzI1sU-945" target="gbdRAvC1I9ubyzMzI1sU-949" edge="1">
          <mxGeometry relative="1" as="geometry" />
        </mxCell>
        <mxCell id="gbdRAvC1I9ubyzMzI1sU-945" value="累计各个规则窗口的异常点与对应规则作比" style="rounded=0;whiteSpace=wrap;html=1;fillColor=none;" parent="1" vertex="1">
          <mxGeometry x="1959.4099999999999" y="2317.0600000000013" width="127.5" height="53" as="geometry" />
        </mxCell>
        <mxCell id="gbdRAvC1I9ubyzMzI1sU-946" style="edgeStyle=orthogonalEdgeStyle;rounded=0;orthogonalLoop=1;jettySize=auto;html=1;entryX=0.5;entryY=1;entryDx=0;entryDy=0;exitX=0.5;exitY=0;exitDx=0;exitDy=0;exitPerimeter=0;" parent="1" source="gbdRAvC1I9ubyzMzI1sU-947" target="gbdRAvC1I9ubyzMzI1sU-936" edge="1">
          <mxGeometry relative="1" as="geometry" />
        </mxCell>
        <mxCell id="gbdRAvC1I9ubyzMzI1sU-947" value="未达到干扰检测标准" style="text;html=1;align=center;verticalAlign=middle;resizable=0;points=[];autosize=1;strokeColor=none;fillColor=none;" parent="1" vertex="1">
          <mxGeometry x="1784.9099999999999" y="2333.0600000000013" width="120" height="20" as="geometry" />
        </mxCell>
        <mxCell id="gbdRAvC1I9ubyzMzI1sU-948" style="edgeStyle=orthogonalEdgeStyle;rounded=0;orthogonalLoop=1;jettySize=auto;html=1;entryX=0.409;entryY=0.502;entryDx=0;entryDy=0;entryPerimeter=0;strokeColor=#000000;" parent="1" source="gbdRAvC1I9ubyzMzI1sU-949" target="gbdRAvC1I9ubyzMzI1sU-1006" edge="1">
          <mxGeometry relative="1" as="geometry" />
        </mxCell>
        <mxCell id="gbdRAvC1I9ubyzMzI1sU-949" value="触发干扰标准" style="text;html=1;align=center;verticalAlign=middle;resizable=0;points=[];autosize=1;strokeColor=none;fillColor=none;" parent="1" vertex="1">
          <mxGeometry x="2126.81" y="2333.0600000000013" width="90" height="20" as="geometry" />
        </mxCell>
        <mxCell id="gbdRAvC1I9ubyzMzI1sU-950" style="edgeStyle=orthogonalEdgeStyle;rounded=0;orthogonalLoop=1;jettySize=auto;html=1;" parent="1" source="gbdRAvC1I9ubyzMzI1sU-952" target="gbdRAvC1I9ubyzMzI1sU-955" edge="1">
          <mxGeometry relative="1" as="geometry" />
        </mxCell>
        <mxCell id="gbdRAvC1I9ubyzMzI1sU-951" style="edgeStyle=orthogonalEdgeStyle;rounded=0;orthogonalLoop=1;jettySize=auto;html=1;entryX=0;entryY=0.5;entryDx=0;entryDy=0;exitX=0;exitY=0.5;exitDx=0;exitDy=0;" parent="1" source="gbdRAvC1I9ubyzMzI1sU-952" target="gbdRAvC1I9ubyzMzI1sU-785" edge="1">
          <mxGeometry relative="1" as="geometry">
            <Array as="points">
              <mxPoint x="2860" y="1709.8100000000013" />
              <mxPoint x="2860" y="1612.8100000000013" />
            </Array>
          </mxGeometry>
        </mxCell>
        <mxCell id="gbdRAvC1I9ubyzMzI1sU-952" value="当前是否&lt;br&gt;发生压制" style="rhombus;whiteSpace=wrap;html=1;fillColor=none;" parent="1" vertex="1">
          <mxGeometry x="2912.6000000000004" y="1683.6100000000033" width="104" height="52" as="geometry" />
        </mxCell>
        <mxCell id="gbdRAvC1I9ubyzMzI1sU-953" style="edgeStyle=orthogonalEdgeStyle;rounded=0;orthogonalLoop=1;jettySize=auto;html=1;entryX=0.5;entryY=0;entryDx=0;entryDy=0;" parent="1" source="gbdRAvC1I9ubyzMzI1sU-955" target="gbdRAvC1I9ubyzMzI1sU-960" edge="1">
          <mxGeometry relative="1" as="geometry">
            <mxPoint x="2964.6000000000004" y="1877.8700000000017" as="targetPoint" />
          </mxGeometry>
        </mxCell>
        <mxCell id="gbdRAvC1I9ubyzMzI1sU-954" style="edgeStyle=orthogonalEdgeStyle;rounded=0;orthogonalLoop=1;jettySize=auto;html=1;entryX=0;entryY=0.5;entryDx=0;entryDy=0;exitX=0;exitY=0.5;exitDx=0;exitDy=0;" parent="1" source="gbdRAvC1I9ubyzMzI1sU-955" target="gbdRAvC1I9ubyzMzI1sU-785" edge="1">
          <mxGeometry relative="1" as="geometry">
            <Array as="points">
              <mxPoint x="2860" y="1806.8100000000013" />
              <mxPoint x="2860" y="1612.8100000000013" />
            </Array>
          </mxGeometry>
        </mxCell>
        <mxCell id="gbdRAvC1I9ubyzMzI1sU-955" value="在线容器_CPU&lt;br&gt;Agent_CPU&lt;br&gt;指标是否正常" style="rhombus;whiteSpace=wrap;html=1;fillColor=none;" parent="1" vertex="1">
          <mxGeometry x="2883.9700000000003" y="1766.850000000003" width="161.26" height="80.28" as="geometry" />
        </mxCell>
        <mxCell id="gbdRAvC1I9ubyzMzI1sU-956" value="否" style="text;html=1;align=center;verticalAlign=middle;resizable=0;points=[];autosize=1;strokeColor=none;fillColor=none;" parent="1" vertex="1">
          <mxGeometry x="2882.12" y="1669.5900000000029" width="40" height="30" as="geometry" />
        </mxCell>
        <mxCell id="gbdRAvC1I9ubyzMzI1sU-957" value="是" style="text;html=1;align=center;verticalAlign=middle;resizable=0;points=[];autosize=1;strokeColor=none;fillColor=none;" parent="1" vertex="1">
          <mxGeometry x="2922.12" y="1729.5900000000029" width="40" height="30" as="geometry" />
        </mxCell>
        <mxCell id="gbdRAvC1I9ubyzMzI1sU-958" value="否" style="text;html=1;align=center;verticalAlign=middle;resizable=0;points=[];autosize=1;strokeColor=none;fillColor=none;" parent="1" vertex="1">
          <mxGeometry x="2872.12" y="1768.5300000000025" width="40" height="30" as="geometry" />
        </mxCell>
        <mxCell id="gbdRAvC1I9ubyzMzI1sU-959" style="edgeStyle=orthogonalEdgeStyle;rounded=0;orthogonalLoop=1;jettySize=auto;html=1;strokeColor=#000000;entryX=0.5;entryY=0;entryDx=0;entryDy=0;exitX=0.5;exitY=1;exitDx=0;exitDy=0;" parent="1" source="gbdRAvC1I9ubyzMzI1sU-960" target="gbdRAvC1I9ubyzMzI1sU-1000" edge="1">
          <mxGeometry relative="1" as="geometry">
            <mxPoint x="1732.71" y="1891.2300000000014" as="targetPoint" />
            <Array as="points">
              <mxPoint x="2965" y="1936.8100000000013" />
              <mxPoint x="2344" y="1936.8100000000013" />
            </Array>
          </mxGeometry>
        </mxCell>
        <mxCell id="gbdRAvC1I9ubyzMzI1sU-960" value="压制恢复流程（还核）" style="rounded=0;whiteSpace=wrap;html=1;fillColor=none;" parent="1" vertex="1">
          <mxGeometry x="2893.7200000000003" y="1874.7900000000018" width="141.47" height="44.68" as="geometry" />
        </mxCell>
        <mxCell id="gbdRAvC1I9ubyzMzI1sU-961" value="是" style="text;html=1;align=center;verticalAlign=middle;resizable=0;points=[];autosize=1;strokeColor=none;fillColor=none;" parent="1" vertex="1">
          <mxGeometry x="5363.35" y="2488.350000000002" width="40" height="30" as="geometry" />
        </mxCell>
        <mxCell id="gbdRAvC1I9ubyzMzI1sU-962" value="否" style="text;html=1;align=center;verticalAlign=middle;resizable=0;points=[];autosize=1;strokeColor=none;fillColor=none;" parent="1" vertex="1">
          <mxGeometry x="5251.65" y="2443.590000000002" width="40" height="30" as="geometry" />
        </mxCell>
        <mxCell id="gbdRAvC1I9ubyzMzI1sU-963" style="edgeStyle=orthogonalEdgeStyle;rounded=0;orthogonalLoop=1;jettySize=auto;html=1;" parent="1" source="gbdRAvC1I9ubyzMzI1sU-965" target="gbdRAvC1I9ubyzMzI1sU-918" edge="1">
          <mxGeometry relative="1" as="geometry" />
        </mxCell>
        <mxCell id="gbdRAvC1I9ubyzMzI1sU-964" style="edgeStyle=orthogonalEdgeStyle;rounded=0;orthogonalLoop=1;jettySize=auto;html=1;entryX=0;entryY=0.5;entryDx=0;entryDy=0;exitX=0;exitY=0.5;exitDx=0;exitDy=0;" parent="1" source="gbdRAvC1I9ubyzMzI1sU-965" target="gbdRAvC1I9ubyzMzI1sU-916" edge="1">
          <mxGeometry relative="1" as="geometry">
            <Array as="points">
              <mxPoint x="5170" y="2471.8100000000013" />
              <mxPoint x="5170" y="2634.8100000000013" />
            </Array>
          </mxGeometry>
        </mxCell>
        <mxCell id="gbdRAvC1I9ubyzMzI1sU-965" value="当前是否处于混部状态" style="rhombus;whiteSpace=wrap;html=1;fillColor=none;" parent="1" vertex="1">
          <mxGeometry x="5283.45" y="2447.470000000002" width="161.26" height="49" as="geometry" />
        </mxCell>
        <mxCell id="gbdRAvC1I9ubyzMzI1sU-966" value="&lt;span style=&quot;&quot;&gt;/sys/fs/cgroup/cpu/agentAndDaemon&lt;/span&gt;" style="rounded=0;whiteSpace=wrap;html=1;fillColor=#f5f5f5;fontColor=#333333;strokeColor=#666666;" parent="1" vertex="1">
          <mxGeometry x="4373.69" y="2660.550000000001" width="220" height="40" as="geometry" />
        </mxCell>
        <mxCell id="gbdRAvC1I9ubyzMzI1sU-967" value="调整资源" style="edgeStyle=orthogonalEdgeStyle;rounded=0;orthogonalLoop=1;jettySize=auto;html=1;entryX=0;entryY=0.5;entryDx=0;entryDy=0;" parent="1" source="gbdRAvC1I9ubyzMzI1sU-968" target="gbdRAvC1I9ubyzMzI1sU-966" edge="1">
          <mxGeometry relative="1" as="geometry" />
        </mxCell>
        <mxCell id="gbdRAvC1I9ubyzMzI1sU-968" value="goroutine：&lt;br&gt;&lt;span style=&quot;&quot;&gt;关闭混部时，解除绑核状态，调整核数配置&lt;/span&gt;" style="rounded=0;whiteSpace=wrap;html=1;fillColor=none;" parent="1" vertex="1">
          <mxGeometry x="4140" y="2650.550000000001" width="150" height="60" as="geometry" />
        </mxCell>
        <mxCell id="gbdRAvC1I9ubyzMzI1sU-969" value="关闭混部" style="rounded=0;whiteSpace=wrap;html=1;align=center;" parent="1" vertex="1">
          <mxGeometry x="5012.889999999999" y="1945.9000000000015" width="120.5" height="38.12" as="geometry" />
        </mxCell>
        <mxCell id="gbdRAvC1I9ubyzMzI1sU-970" value="开启混部" style="rounded=0;whiteSpace=wrap;html=1;fillColor=#cdeb8b;align=center;strokeColor=#36393d;" parent="1" vertex="1">
          <mxGeometry x="5012.889999999999" y="1890.5300000000007" width="120.5" height="38.12" as="geometry" />
        </mxCell>
        <mxCell id="gbdRAvC1I9ubyzMzI1sU-971" value="关闭调度" style="rounded=0;whiteSpace=wrap;html=1;fillColor=#f9f7ed;align=center;strokeColor=#36393d;" parent="1" vertex="1">
          <mxGeometry x="5012.889999999999" y="2002.5400000000018" width="120.5" height="38.12" as="geometry" />
        </mxCell>
        <mxCell id="gbdRAvC1I9ubyzMzI1sU-972" value="恢复调度" style="rounded=0;whiteSpace=wrap;html=1;fillColor=#ffcc99;align=center;strokeColor=#36393d;" parent="1" vertex="1">
          <mxGeometry x="5012.889999999999" y="2058.920000000002" width="120.5" height="38.12" as="geometry" />
        </mxCell>
        <mxCell id="gbdRAvC1I9ubyzMzI1sU-973" value="开启超分" style="rounded=0;whiteSpace=wrap;html=1;fillColor=#cce5ff;align=center;strokeColor=#36393d;" parent="1" vertex="1">
          <mxGeometry x="5012.889999999999" y="2115.040000000002" width="120.5" height="38.12" as="geometry" />
        </mxCell>
        <mxCell id="gbdRAvC1I9ubyzMzI1sU-974" value="关闭超分" style="rounded=0;whiteSpace=wrap;html=1;fillColor=#ffff88;align=center;strokeColor=#36393d;" parent="1" vertex="1">
          <mxGeometry x="5012.889999999999" y="2174.6000000000013" width="120.5" height="38.12" as="geometry" />
        </mxCell>
        <mxCell id="gbdRAvC1I9ubyzMzI1sU-975" value="nodeManager" style="rounded=0;whiteSpace=wrap;html=1;fillColor=none;" parent="1" vertex="1">
          <mxGeometry x="2941.04" y="2639.970000000001" width="97" height="50" as="geometry" />
        </mxCell>
        <mxCell id="gbdRAvC1I9ubyzMzI1sU-976" style="edgeStyle=orthogonalEdgeStyle;rounded=0;orthogonalLoop=1;jettySize=auto;html=1;strokeColor=#000000;" parent="1" source="gbdRAvC1I9ubyzMzI1sU-978" target="gbdRAvC1I9ubyzMzI1sU-981" edge="1">
          <mxGeometry relative="1" as="geometry" />
        </mxCell>
        <mxCell id="gbdRAvC1I9ubyzMzI1sU-977" style="edgeStyle=orthogonalEdgeStyle;rounded=0;orthogonalLoop=1;jettySize=auto;html=1;entryX=1;entryY=0.5;entryDx=0;entryDy=0;strokeColor=#000000;exitX=1;exitY=0.5;exitDx=0;exitDy=0;" parent="1" source="gbdRAvC1I9ubyzMzI1sU-978" target="gbdRAvC1I9ubyzMzI1sU-994" edge="1">
          <mxGeometry relative="1" as="geometry" />
        </mxCell>
        <mxCell id="gbdRAvC1I9ubyzMzI1sU-978" value="离线容器是否处于&lt;br&gt;过载状态" style="rhombus;whiteSpace=wrap;html=1;fillColor=none;" parent="1" vertex="1">
          <mxGeometry x="2550.3" y="1647.1100000000015" width="161.26" height="69.5" as="geometry" />
        </mxCell>
        <mxCell id="gbdRAvC1I9ubyzMzI1sU-979" style="edgeStyle=orthogonalEdgeStyle;rounded=0;orthogonalLoop=1;jettySize=auto;html=1;strokeColor=#000000;" parent="1" source="gbdRAvC1I9ubyzMzI1sU-981" target="gbdRAvC1I9ubyzMzI1sU-985" edge="1">
          <mxGeometry relative="1" as="geometry" />
        </mxCell>
        <mxCell id="gbdRAvC1I9ubyzMzI1sU-980" style="edgeStyle=orthogonalEdgeStyle;rounded=0;orthogonalLoop=1;jettySize=auto;html=1;strokeColor=#000000;entryX=1;entryY=0.5;entryDx=0;entryDy=0;exitX=1;exitY=0.5;exitDx=0;exitDy=0;" parent="1" source="gbdRAvC1I9ubyzMzI1sU-981" target="gbdRAvC1I9ubyzMzI1sU-994" edge="1">
          <mxGeometry relative="1" as="geometry">
            <mxPoint x="2533.51" y="1610.550000000001" as="targetPoint" />
          </mxGeometry>
        </mxCell>
        <mxCell id="gbdRAvC1I9ubyzMzI1sU-981" value="过载状态是否恢复" style="rhombus;whiteSpace=wrap;html=1;fillColor=none;" parent="1" vertex="1">
          <mxGeometry x="2550.3" y="1742.170000000001" width="161.26" height="40" as="geometry" />
        </mxCell>
        <mxCell id="gbdRAvC1I9ubyzMzI1sU-982" style="edgeStyle=orthogonalEdgeStyle;rounded=0;orthogonalLoop=1;jettySize=auto;html=1;entryX=0.5;entryY=0;entryDx=0;entryDy=0;strokeColor=#000000;" parent="1" source="gbdRAvC1I9ubyzMzI1sU-985" target="gbdRAvC1I9ubyzMzI1sU-989" edge="1">
          <mxGeometry relative="1" as="geometry" />
        </mxCell>
        <mxCell id="gbdRAvC1I9ubyzMzI1sU-983" style="edgeStyle=orthogonalEdgeStyle;rounded=0;orthogonalLoop=1;jettySize=auto;html=1;entryX=1;entryY=0.5;entryDx=0;entryDy=0;strokeColor=#000000;exitX=1;exitY=0.5;exitDx=0;exitDy=0;" parent="1" source="gbdRAvC1I9ubyzMzI1sU-985" target="gbdRAvC1I9ubyzMzI1sU-994" edge="1">
          <mxGeometry relative="1" as="geometry" />
        </mxCell>
        <mxCell id="gbdRAvC1I9ubyzMzI1sU-984" style="edgeStyle=orthogonalEdgeStyle;rounded=0;orthogonalLoop=1;jettySize=auto;html=1;strokeColor=#000000;entryX=1;entryY=0.5;entryDx=0;entryDy=0;" parent="1" source="gbdRAvC1I9ubyzMzI1sU-985" target="gbdRAvC1I9ubyzMzI1sU-986" edge="1">
          <mxGeometry relative="1" as="geometry">
            <mxPoint x="2733.96" y="1819.6100000000006" as="targetPoint" />
          </mxGeometry>
        </mxCell>
        <mxCell id="gbdRAvC1I9ubyzMzI1sU-985" value="调度是否关闭" style="rhombus;whiteSpace=wrap;html=1;fillColor=none;" parent="1" vertex="1">
          <mxGeometry x="2550.3" y="1812.1000000000004" width="161.26" height="40" as="geometry" />
        </mxCell>
        <mxCell id="gbdRAvC1I9ubyzMzI1sU-986" value="恢复调度" style="rounded=0;whiteSpace=wrap;html=1;fillColor=#ffcc99;align=center;strokeColor=#36393d;" parent="1" vertex="1">
          <mxGeometry x="2384.3099999999995" y="1813.100000000004" width="120.5" height="38.12" as="geometry" />
        </mxCell>
        <mxCell id="gbdRAvC1I9ubyzMzI1sU-987" style="edgeStyle=orthogonalEdgeStyle;rounded=0;orthogonalLoop=1;jettySize=auto;html=1;strokeColor=#000000;entryX=1;entryY=0.5;entryDx=0;entryDy=0;exitX=1;exitY=0.5;exitDx=0;exitDy=0;" parent="1" source="gbdRAvC1I9ubyzMzI1sU-989" target="gbdRAvC1I9ubyzMzI1sU-994" edge="1">
          <mxGeometry relative="1" as="geometry">
            <mxPoint x="2461.62" y="1840.550000000001" as="targetPoint" />
          </mxGeometry>
        </mxCell>
        <mxCell id="gbdRAvC1I9ubyzMzI1sU-988" value="" style="edgeStyle=orthogonalEdgeStyle;rounded=0;orthogonalLoop=1;jettySize=auto;html=1;strokeColor=#000000;entryX=1;entryY=0.5;entryDx=0;entryDy=0;" parent="1" source="gbdRAvC1I9ubyzMzI1sU-989" target="gbdRAvC1I9ubyzMzI1sU-992" edge="1">
          <mxGeometry relative="1" as="geometry">
            <mxPoint x="2755.57" y="1908.3100000000013" as="targetPoint" />
          </mxGeometry>
        </mxCell>
        <mxCell id="gbdRAvC1I9ubyzMzI1sU-989" value="core &amp;gt; 15 &amp;amp;&amp;amp;&lt;br&gt;core &amp;gt;= vcore" style="rhombus;whiteSpace=wrap;html=1;fillColor=none;" parent="1" vertex="1">
          <mxGeometry x="2550.3" y="1875.6800000000012" width="161.26" height="47" as="geometry" />
        </mxCell>
        <mxCell id="gbdRAvC1I9ubyzMzI1sU-990" style="edgeStyle=orthogonalEdgeStyle;rounded=0;orthogonalLoop=1;jettySize=auto;html=1;entryX=0;entryY=0.5;entryDx=0;entryDy=0;exitX=0;exitY=0.5;exitDx=0;exitDy=0;" parent="1" source="gbdRAvC1I9ubyzMzI1sU-992" target="gbdRAvC1I9ubyzMzI1sU-975" edge="1">
          <mxGeometry relative="1" as="geometry">
            <mxPoint x="2916.29" y="2679.6100000000024" as="targetPoint" />
            <Array as="points">
              <mxPoint x="1570" y="1898.8100000000013" />
              <mxPoint x="1570" y="2664.8100000000013" />
            </Array>
          </mxGeometry>
        </mxCell>
        <mxCell id="gbdRAvC1I9ubyzMzI1sU-991" value="超分&lt;br&gt;vcore / core = 4 / 3&amp;nbsp;" style="edgeLabel;html=1;align=center;verticalAlign=middle;resizable=0;points=[];" parent="gbdRAvC1I9ubyzMzI1sU-990" vertex="1" connectable="0">
          <mxGeometry x="0.877" y="5" relative="1" as="geometry">
            <mxPoint as="offset" />
          </mxGeometry>
        </mxCell>
        <mxCell id="gbdRAvC1I9ubyzMzI1sU-992" value="开启超分" style="rounded=0;whiteSpace=wrap;html=1;fillColor=#cce5ff;align=center;strokeColor=#36393d;" parent="1" vertex="1">
          <mxGeometry x="2384.3099999999995" y="1880.550000000002" width="120.5" height="38.12" as="geometry" />
        </mxCell>
        <mxCell id="gbdRAvC1I9ubyzMzI1sU-993" style="edgeStyle=orthogonalEdgeStyle;rounded=0;orthogonalLoop=1;jettySize=auto;html=1;entryX=0.5;entryY=0;entryDx=0;entryDy=0;strokeColor=#000000;" parent="1" source="gbdRAvC1I9ubyzMzI1sU-994" target="gbdRAvC1I9ubyzMzI1sU-978" edge="1">
          <mxGeometry relative="1" as="geometry" />
        </mxCell>
        <mxCell id="gbdRAvC1I9ubyzMzI1sU-994" value="&lt;span style=&quot;&quot;&gt;loop&amp;nbsp; per 1min&lt;/span&gt;" style="rounded=0;whiteSpace=wrap;html=1;fillColor=none;" parent="1" vertex="1">
          <mxGeometry x="2584.3100000000004" y="1591.590000000001" width="93.24" height="30" as="geometry" />
        </mxCell>
        <mxCell id="gbdRAvC1I9ubyzMzI1sU-995" style="edgeStyle=orthogonalEdgeStyle;rounded=0;orthogonalLoop=1;jettySize=auto;html=1;entryX=0;entryY=0.5;entryDx=0;entryDy=0;strokeColor=#000000;" parent="1" source="gbdRAvC1I9ubyzMzI1sU-996" target="gbdRAvC1I9ubyzMzI1sU-1009" edge="1">
          <mxGeometry relative="1" as="geometry" />
        </mxCell>
        <mxCell id="gbdRAvC1I9ubyzMzI1sU-996" value="仅压制" style="rounded=0;whiteSpace=wrap;html=1;fillColor=none;" parent="1" vertex="1">
          <mxGeometry x="2304.31" y="2185.430000000001" width="80.5" height="38.5" as="geometry" />
        </mxCell>
        <mxCell id="gbdRAvC1I9ubyzMzI1sU-997" style="edgeStyle=orthogonalEdgeStyle;rounded=0;orthogonalLoop=1;jettySize=auto;html=1;entryX=0;entryY=0.5;entryDx=0;entryDy=0;strokeColor=#000000;" parent="1" source="gbdRAvC1I9ubyzMzI1sU-998" target="gbdRAvC1I9ubyzMzI1sU-1015" edge="1">
          <mxGeometry relative="1" as="geometry" />
        </mxCell>
        <mxCell id="gbdRAvC1I9ubyzMzI1sU-998" value="压制，压制不了则驱逐" style="rounded=0;whiteSpace=wrap;html=1;fillColor=none;" parent="1" vertex="1">
          <mxGeometry x="2304.31" y="2280.220000000001" width="140" height="39.5" as="geometry" />
        </mxCell>
        <mxCell id="gbdRAvC1I9ubyzMzI1sU-999" style="edgeStyle=orthogonalEdgeStyle;rounded=0;orthogonalLoop=1;jettySize=auto;html=1;entryX=0;entryY=0.5;entryDx=0;entryDy=0;strokeColor=#000000;" parent="1" source="gbdRAvC1I9ubyzMzI1sU-1000" target="gbdRAvC1I9ubyzMzI1sU-1022" edge="1">
          <mxGeometry relative="1" as="geometry" />
        </mxCell>
        <mxCell id="gbdRAvC1I9ubyzMzI1sU-1000" value="解除压制" style="rounded=0;whiteSpace=wrap;html=1;fillColor=none;" parent="1" vertex="1">
          <mxGeometry x="2304.31" y="2090.340000000002" width="80" height="43" as="geometry" />
        </mxCell>
        <mxCell id="gbdRAvC1I9ubyzMzI1sU-1001" style="edgeStyle=orthogonalEdgeStyle;rounded=0;orthogonalLoop=1;jettySize=auto;html=1;strokeColor=#000000;" parent="1" source="gbdRAvC1I9ubyzMzI1sU-1002" target="gbdRAvC1I9ubyzMzI1sU-1023" edge="1">
          <mxGeometry relative="1" as="geometry" />
        </mxCell>
        <mxCell id="gbdRAvC1I9ubyzMzI1sU-1002" value="离线容器过载，关闭调度（下标签）" style="rounded=0;whiteSpace=wrap;html=1;fillColor=none;" parent="1" vertex="1">
          <mxGeometry x="2304.31" y="2374.340000000001" width="200" height="43" as="geometry" />
        </mxCell>
        <mxCell id="gbdRAvC1I9ubyzMzI1sU-1003" style="edgeStyle=orthogonalEdgeStyle;rounded=0;orthogonalLoop=1;jettySize=auto;html=1;strokeColor=#000000;entryX=0.5;entryY=0;entryDx=0;entryDy=0;" parent="1" source="gbdRAvC1I9ubyzMzI1sU-1005" target="gbdRAvC1I9ubyzMzI1sU-975" edge="1">
          <mxGeometry relative="1" as="geometry">
            <mxPoint x="2988.0468421052633" y="2712.220000000001" as="targetPoint" />
          </mxGeometry>
        </mxCell>
        <mxCell id="gbdRAvC1I9ubyzMzI1sU-1004" value="重启nm&lt;br&gt;vcore=core" style="edgeLabel;html=1;align=center;verticalAlign=middle;resizable=0;points=[];" parent="gbdRAvC1I9ubyzMzI1sU-1003" vertex="1" connectable="0">
          <mxGeometry x="0.0709" y="-1" relative="1" as="geometry">
            <mxPoint x="-122" y="1" as="offset" />
          </mxGeometry>
        </mxCell>
        <mxCell id="gbdRAvC1I9ubyzMzI1sU-1005" value="离线容器过载，去除超分（vcore==core）" style="rounded=0;whiteSpace=wrap;html=1;fillColor=none;" parent="1" vertex="1">
          <mxGeometry x="2304.31" y="2463.340000000001" width="240" height="43" as="geometry" />
        </mxCell>
        <mxCell id="gbdRAvC1I9ubyzMzI1sU-1006" value="" style="shape=curlyBracket;whiteSpace=wrap;html=1;rounded=1;fillColor=none;" parent="1" vertex="1">
          <mxGeometry x="2260.88" y="2182.250000000001" width="20" height="320.18" as="geometry" />
        </mxCell>
        <mxCell id="gbdRAvC1I9ubyzMzI1sU-1007" value="" style="edgeStyle=orthogonalEdgeStyle;rounded=0;orthogonalLoop=1;jettySize=auto;html=1;strokeColor=#000000;entryX=0.5;entryY=0;entryDx=0;entryDy=0;" parent="1" source="gbdRAvC1I9ubyzMzI1sU-1009" target="gbdRAvC1I9ubyzMzI1sU-975" edge="1">
          <mxGeometry x="0.6341" y="-35" relative="1" as="geometry">
            <mxPoint x="2988.0468421052633" y="2712.220000000001" as="targetPoint" />
            <mxPoint as="offset" />
          </mxGeometry>
        </mxCell>
        <mxCell id="gbdRAvC1I9ubyzMzI1sU-1008" value="重启nm&lt;br&gt;vcore=core" style="edgeLabel;html=1;align=center;verticalAlign=middle;resizable=0;points=[];" parent="gbdRAvC1I9ubyzMzI1sU-1007" vertex="1" connectable="0">
          <mxGeometry x="-0.4406" relative="1" as="geometry">
            <mxPoint x="-18" as="offset" />
          </mxGeometry>
        </mxCell>
        <mxCell id="gbdRAvC1I9ubyzMzI1sU-1009" value="从离线容器掠夺若干核数，&lt;br&gt;调整到Agent/在线容器" style="rounded=0;whiteSpace=wrap;html=1;fillColor=none;" parent="1" vertex="1">
          <mxGeometry x="2561.75" y="2183.8600000000015" width="154" height="43.29" as="geometry" />
        </mxCell>
        <mxCell id="gbdRAvC1I9ubyzMzI1sU-1010" style="edgeStyle=orthogonalEdgeStyle;rounded=0;orthogonalLoop=1;jettySize=auto;html=1;entryX=0.5;entryY=0;entryDx=0;entryDy=0;strokeColor=#000000;" parent="1" source="gbdRAvC1I9ubyzMzI1sU-1012" target="gbdRAvC1I9ubyzMzI1sU-975" edge="1">
          <mxGeometry relative="1" as="geometry">
            <mxPoint x="2988.0099999999998" y="2712.220000000001" as="targetPoint" />
          </mxGeometry>
        </mxCell>
        <mxCell id="gbdRAvC1I9ubyzMzI1sU-1011" value="重启nm&lt;br&gt;vcore=core" style="edgeLabel;html=1;align=center;verticalAlign=middle;resizable=0;points=[];" parent="gbdRAvC1I9ubyzMzI1sU-1010" vertex="1" connectable="0">
          <mxGeometry x="-0.8014" y="1" relative="1" as="geometry">
            <mxPoint as="offset" />
          </mxGeometry>
        </mxCell>
        <mxCell id="gbdRAvC1I9ubyzMzI1sU-1012" value="从离线容器掠夺若干核数，&lt;br&gt;调整到Agent/在线容器" style="rounded=0;whiteSpace=wrap;html=1;fillColor=none;" parent="1" vertex="1">
          <mxGeometry x="2690.38" y="2236.930000000003" width="154" height="43.29" as="geometry" />
        </mxCell>
        <mxCell id="gbdRAvC1I9ubyzMzI1sU-1013" style="edgeStyle=orthogonalEdgeStyle;rounded=0;orthogonalLoop=1;jettySize=auto;html=1;entryX=0;entryY=0.25;entryDx=0;entryDy=0;strokeColor=#000000;exitX=0.5;exitY=0;exitDx=0;exitDy=0;" parent="1" source="gbdRAvC1I9ubyzMzI1sU-1015" target="gbdRAvC1I9ubyzMzI1sU-1012" edge="1">
          <mxGeometry relative="1" as="geometry" />
        </mxCell>
        <mxCell id="gbdRAvC1I9ubyzMzI1sU-1014" style="edgeStyle=orthogonalEdgeStyle;rounded=0;orthogonalLoop=1;jettySize=auto;html=1;entryX=0;entryY=0.5;entryDx=0;entryDy=0;strokeColor=#000000;exitX=0.5;exitY=1;exitDx=0;exitDy=0;" parent="1" source="gbdRAvC1I9ubyzMzI1sU-1015" target="gbdRAvC1I9ubyzMzI1sU-1016" edge="1">
          <mxGeometry relative="1" as="geometry">
            <mxPoint x="2728.22" y="2346.0700000000015" as="targetPoint" />
          </mxGeometry>
        </mxCell>
        <mxCell id="gbdRAvC1I9ubyzMzI1sU-1015" value="离线容器&lt;br&gt;无核可分？" style="rhombus;whiteSpace=wrap;html=1;fillColor=none;" parent="1" vertex="1">
          <mxGeometry x="2561.75" y="2275.220000000001" width="120" height="49" as="geometry" />
        </mxCell>
        <mxCell id="gbdRAvC1I9ubyzMzI1sU-1016" value="关闭调度" style="rounded=0;whiteSpace=wrap;html=1;fillColor=#f9f7ed;align=center;strokeColor=#36393d;" parent="1" vertex="1">
          <mxGeometry x="2690.38" y="2323.2800000000034" width="79.63" height="38.12" as="geometry" />
        </mxCell>
        <mxCell id="gbdRAvC1I9ubyzMzI1sU-1017" value="否" style="text;html=1;align=center;verticalAlign=middle;resizable=0;points=[];autosize=1;strokeColor=none;fillColor=none;" parent="1" vertex="1">
          <mxGeometry x="2634.31" y="2249.720000000001" width="40" height="30" as="geometry" />
        </mxCell>
        <mxCell id="gbdRAvC1I9ubyzMzI1sU-1018" value="是" style="text;html=1;align=center;verticalAlign=middle;resizable=0;points=[];autosize=1;strokeColor=none;fillColor=none;" parent="1" vertex="1">
          <mxGeometry x="2634.31" y="2319.720000000001" width="40" height="30" as="geometry" />
        </mxCell>
        <mxCell id="gbdRAvC1I9ubyzMzI1sU-1019" value="&lt;font color=&quot;#ff3333&quot;&gt;事件处理&lt;/font&gt;" style="text;html=1;align=center;verticalAlign=middle;resizable=0;points=[];autosize=1;strokeColor=none;fillColor=none;fontSize=39;" parent="1" vertex="1">
          <mxGeometry x="2554.31" y="1953.7500000000018" width="180" height="60" as="geometry" />
        </mxCell>
        <mxCell id="gbdRAvC1I9ubyzMzI1sU-1020" value="" style="endArrow=none;html=1;rounded=0;strokeColor=#000000;dashed=1;" parent="1" edge="1">
          <mxGeometry width="50" height="50" relative="1" as="geometry">
            <mxPoint x="2358.61" y="2029.0100000000011" as="sourcePoint" />
            <mxPoint x="3004.7" y="2028.550000000001" as="targetPoint" />
          </mxGeometry>
        </mxCell>
        <mxCell id="gbdRAvC1I9ubyzMzI1sU-1021" style="edgeStyle=orthogonalEdgeStyle;rounded=0;orthogonalLoop=1;jettySize=auto;html=1;entryX=0;entryY=0.5;entryDx=0;entryDy=0;strokeColor=#000000;" parent="1" source="gbdRAvC1I9ubyzMzI1sU-1022" target="gbdRAvC1I9ubyzMzI1sU-1042" edge="1">
          <mxGeometry relative="1" as="geometry" />
        </mxCell>
        <mxCell id="gbdRAvC1I9ubyzMzI1sU-1022" value="Agent/在线容器还原至原核数，将掠夺核还回离线容器" style="rounded=0;whiteSpace=wrap;html=1;fillColor=none;" parent="1" vertex="1">
          <mxGeometry x="2561.75" y="2090.340000000001" width="154" height="43.29" as="geometry" />
        </mxCell>
        <mxCell id="gbdRAvC1I9ubyzMzI1sU-1023" value="关闭调度" style="rounded=0;whiteSpace=wrap;html=1;fillColor=#f9f7ed;align=center;strokeColor=#36393d;" parent="1" vertex="1">
          <mxGeometry x="2575.81" y="2375.7800000000016" width="79.63" height="38.12" as="geometry" />
        </mxCell>
        <mxCell id="gbdRAvC1I9ubyzMzI1sU-1024" value="关闭混部" style="rounded=0;whiteSpace=wrap;html=1;align=center;" parent="1" vertex="1">
          <mxGeometry x="2770.0099999999998" y="2323.2800000000016" width="78.56" height="38.12" as="geometry" />
        </mxCell>
        <mxCell id="gbdRAvC1I9ubyzMzI1sU-1025" value="关闭调度" style="rounded=0;whiteSpace=wrap;html=1;fillColor=#f9f7ed;align=center;strokeColor=#36393d;" parent="1" vertex="1">
          <mxGeometry x="3297.5299999999997" y="2088.430000000003" width="79.63" height="38.12" as="geometry" />
        </mxCell>
        <mxCell id="gbdRAvC1I9ubyzMzI1sU-1026" value="关闭混部" style="rounded=0;whiteSpace=wrap;html=1;align=center;" parent="1" vertex="1">
          <mxGeometry x="3377.1600000000003" y="2088.430000000001" width="78.56" height="38.12" as="geometry" />
        </mxCell>
        <mxCell id="gbdRAvC1I9ubyzMzI1sU-1027" value="关闭调度" style="rounded=0;whiteSpace=wrap;html=1;fillColor=#f9f7ed;align=center;strokeColor=#36393d;" parent="1" vertex="1">
          <mxGeometry x="3154.56" y="2328.1500000000033" width="79.63" height="38.12" as="geometry" />
        </mxCell>
        <mxCell id="gbdRAvC1I9ubyzMzI1sU-1028" value="关闭混部" style="rounded=0;whiteSpace=wrap;html=1;align=center;" parent="1" vertex="1">
          <mxGeometry x="3234.19" y="2328.1500000000015" width="78.56" height="38.12" as="geometry" />
        </mxCell>
        <mxCell id="gbdRAvC1I9ubyzMzI1sU-1029" value="&lt;font style=&quot;font-size: 39px;&quot; color=&quot;#ff3333&quot;&gt;恢&lt;br&gt;复&lt;br&gt;超&lt;br&gt;分&lt;/font&gt;" style="text;html=1;align=center;verticalAlign=middle;resizable=0;points=[];autosize=1;strokeColor=none;fillColor=none;fontSize=39;" parent="1" vertex="1">
          <mxGeometry x="2474.3099999999995" y="1600.4400000000014" width="60" height="200" as="geometry" />
        </mxCell>
        <mxCell id="gbdRAvC1I9ubyzMzI1sU-1030" value="是" style="text;html=1;align=center;verticalAlign=middle;resizable=0;points=[];autosize=1;strokeColor=none;fillColor=none;" parent="1" vertex="1">
          <mxGeometry x="2528.96" y="1863.9100000000008" width="40" height="30" as="geometry" />
        </mxCell>
        <mxCell id="gbdRAvC1I9ubyzMzI1sU-1031" value="是" style="text;html=1;align=center;verticalAlign=middle;resizable=0;points=[];autosize=1;strokeColor=none;fillColor=none;" parent="1" vertex="1">
          <mxGeometry x="2528.96" y="1791.9100000000008" width="40" height="30" as="geometry" />
        </mxCell>
        <mxCell id="gbdRAvC1I9ubyzMzI1sU-1032" value="是" style="text;html=1;align=center;verticalAlign=middle;resizable=0;points=[];autosize=1;strokeColor=none;fillColor=none;" parent="1" vertex="1">
          <mxGeometry x="2586.24" y="1776.7400000000025" width="40" height="30" as="geometry" />
        </mxCell>
        <mxCell id="gbdRAvC1I9ubyzMzI1sU-1033" value="是" style="text;html=1;align=center;verticalAlign=middle;resizable=0;points=[];autosize=1;strokeColor=none;fillColor=none;" parent="1" vertex="1">
          <mxGeometry x="2584.3100000000004" y="1704.3600000000024" width="40" height="30" as="geometry" />
        </mxCell>
        <mxCell id="gbdRAvC1I9ubyzMzI1sU-1034" value="否" style="text;html=1;align=center;verticalAlign=middle;resizable=0;points=[];autosize=1;strokeColor=none;fillColor=none;" parent="1" vertex="1">
          <mxGeometry x="2668.96" y="1845.000000000001" width="40" height="30" as="geometry" />
        </mxCell>
        <mxCell id="gbdRAvC1I9ubyzMzI1sU-1035" value="否" style="text;html=1;align=center;verticalAlign=middle;resizable=0;points=[];autosize=1;strokeColor=none;fillColor=none;" parent="1" vertex="1">
          <mxGeometry x="2668.96" y="1771.7800000000016" width="40" height="30" as="geometry" />
        </mxCell>
        <mxCell id="gbdRAvC1I9ubyzMzI1sU-1036" value="否" style="text;html=1;align=center;verticalAlign=middle;resizable=0;points=[];autosize=1;strokeColor=none;fillColor=none;" parent="1" vertex="1">
          <mxGeometry x="2668.96" y="1706.0400000000018" width="40" height="30" as="geometry" />
        </mxCell>
        <mxCell id="gbdRAvC1I9ubyzMzI1sU-1037" value="否" style="text;html=1;align=center;verticalAlign=middle;resizable=0;points=[];autosize=1;strokeColor=none;fillColor=none;" parent="1" vertex="1">
          <mxGeometry x="2668.96" y="1626.0400000000018" width="40" height="30" as="geometry" />
        </mxCell>
        <mxCell id="gbdRAvC1I9ubyzMzI1sU-1038" style="edgeStyle=orthogonalEdgeStyle;rounded=0;orthogonalLoop=1;jettySize=auto;html=1;strokeColor=#000000;entryX=0.5;entryY=0;entryDx=0;entryDy=0;exitX=0.992;exitY=0.545;exitDx=0;exitDy=0;exitPerimeter=0;" parent="1" source="gbdRAvC1I9ubyzMzI1sU-1039" target="gbdRAvC1I9ubyzMzI1sU-975" edge="1">
          <mxGeometry relative="1" as="geometry">
            <mxPoint x="3014.31" y="2620.8100000000013" as="targetPoint" />
          </mxGeometry>
        </mxCell>
        <mxCell id="gbdRAvC1I9ubyzMzI1sU-1039" value="&lt;span style=&quot;font-size: 11px; background-color: rgb(255, 255, 255);&quot;&gt;重启nm&lt;/span&gt;&lt;br style=&quot;font-size: 11px;&quot;&gt;&lt;span style=&quot;font-size: 11px; background-color: rgb(255, 255, 255);&quot;&gt;vcore=core&lt;/span&gt;" style="text;html=1;align=center;verticalAlign=middle;resizable=0;points=[];autosize=1;strokeColor=none;fillColor=none;" parent="1" vertex="1">
          <mxGeometry x="2864.6" y="2044.6000000000013" width="80" height="40" as="geometry" />
        </mxCell>
        <mxCell id="gbdRAvC1I9ubyzMzI1sU-1040" style="edgeStyle=orthogonalEdgeStyle;rounded=0;orthogonalLoop=1;jettySize=auto;html=1;entryX=-0.009;entryY=0.492;entryDx=0;entryDy=0;entryPerimeter=0;strokeColor=#000000;exitX=0.5;exitY=0;exitDx=0;exitDy=0;" parent="1" source="gbdRAvC1I9ubyzMzI1sU-1042" target="gbdRAvC1I9ubyzMzI1sU-1039" edge="1">
          <mxGeometry relative="1" as="geometry" />
        </mxCell>
        <mxCell id="gbdRAvC1I9ubyzMzI1sU-1041" style="edgeStyle=orthogonalEdgeStyle;rounded=0;orthogonalLoop=1;jettySize=auto;html=1;strokeColor=#000000;exitX=0.5;exitY=1;exitDx=0;exitDy=0;" parent="1" source="gbdRAvC1I9ubyzMzI1sU-1042" target="gbdRAvC1I9ubyzMzI1sU-1044" edge="1">
          <mxGeometry relative="1" as="geometry" />
        </mxCell>
        <mxCell id="gbdRAvC1I9ubyzMzI1sU-1042" value="离线容器&lt;br&gt;是否恢复？" style="rhombus;whiteSpace=wrap;html=1;fillColor=none;" parent="1" vertex="1">
          <mxGeometry x="2742.3100000000004" y="2086.7800000000025" width="104" height="52" as="geometry" />
        </mxCell>
        <mxCell id="gbdRAvC1I9ubyzMzI1sU-1043" style="edgeStyle=orthogonalEdgeStyle;rounded=0;orthogonalLoop=1;jettySize=auto;html=1;entryX=0.5;entryY=0;entryDx=0;entryDy=0;strokeColor=#000000;" parent="1" target="gbdRAvC1I9ubyzMzI1sU-975" edge="1">
          <mxGeometry relative="1" as="geometry">
            <mxPoint x="2964.31" y="2156.8100000000013" as="sourcePoint" />
            <Array as="points">
              <mxPoint x="2989.31" y="2156.8100000000013" />
            </Array>
          </mxGeometry>
        </mxCell>
        <mxCell id="gbdRAvC1I9ubyzMzI1sU-1044" value="&lt;span style=&quot;font-size: 11px; background-color: rgb(255, 255, 255);&quot;&gt;重启nm，超分&lt;/span&gt;&lt;br style=&quot;font-size: 11px;&quot;&gt;&lt;span style=&quot;font-size: 11px; background-color: rgb(255, 255, 255);&quot;&gt;vcore/core = 4/3&lt;/span&gt;" style="text;html=1;align=center;verticalAlign=middle;resizable=0;points=[];autosize=1;strokeColor=none;fillColor=none;" parent="1" vertex="1">
          <mxGeometry x="2861.9700000000003" y="2138.6900000000005" width="110" height="40" as="geometry" />
        </mxCell>
        <mxCell id="gbdRAvC1I9ubyzMzI1sU-1045" value="&lt;font style=&quot;font-size: 39px;&quot; color=&quot;#ff3333&quot;&gt;解&lt;br&gt;除&lt;br&gt;压&lt;br&gt;制&lt;br&gt;&lt;/font&gt;" style="text;html=1;align=center;verticalAlign=middle;resizable=0;points=[];autosize=1;strokeColor=none;fillColor=none;fontSize=39;" parent="1" vertex="1">
          <mxGeometry x="2799.66" y="1600.0600000000004" width="60" height="200" as="geometry" />
        </mxCell>
        <mxCell id="gbdRAvC1I9ubyzMzI1sU-1046" value="离线容器&amp;nbsp; &amp;nbsp; &amp;nbsp; &amp;nbsp; &amp;nbsp; &amp;nbsp; &amp;nbsp; &amp;nbsp; &amp;nbsp; &amp;nbsp;&amp;nbsp;&lt;br&gt;&lt;br&gt;&lt;br&gt;&lt;br&gt;&lt;br&gt;&lt;br&gt;&lt;br&gt;" style="rounded=0;whiteSpace=wrap;html=1;fillColor=none;" parent="1" vertex="1">
          <mxGeometry x="2922.84" y="2599.430000000002" width="133.4" height="130.12" as="geometry" />
        </mxCell>
        <mxCell id="gbdRAvC1I9ubyzMzI1sU-1047" value="触发全天混部流程" style="endArrow=none;html=1;rounded=0;" parent="1" edge="1">
          <mxGeometry width="50" height="50" relative="1" as="geometry">
            <mxPoint x="3196" y="3503.0300000000016" as="sourcePoint" />
            <mxPoint x="4006" y="3503.0300000000016" as="targetPoint" />
          </mxGeometry>
        </mxCell>
        <mxCell id="gbdRAvC1I9ubyzMzI1sU-1048" style="edgeStyle=orthogonalEdgeStyle;rounded=0;orthogonalLoop=1;jettySize=auto;html=1;fontSize=11;" parent="1" source="gbdRAvC1I9ubyzMzI1sU-1049" edge="1">
          <mxGeometry relative="1" as="geometry">
            <mxPoint x="3620" y="3974.9400000000023" as="targetPoint" />
          </mxGeometry>
        </mxCell>
        <mxCell id="gbdRAvC1I9ubyzMzI1sU-1049" value="接口调用&lt;br&gt;强制触发" style="rounded=0;whiteSpace=wrap;html=1;fillColor=none;" parent="1" vertex="1">
          <mxGeometry x="3803.87" y="3954.9400000000023" width="90" height="40" as="geometry" />
        </mxCell>
        <mxCell id="gbdRAvC1I9ubyzMzI1sU-1050" value="wclBaseService" style="rounded=0;whiteSpace=wrap;html=1;fillColor=#f5f5f5;strokeColor=#666666;align=center;gradientColor=#b3b3b3;" parent="1" vertex="1">
          <mxGeometry x="4824" y="3316.17" width="110.5" height="40" as="geometry" />
        </mxCell>
        <mxCell id="gbdRAvC1I9ubyzMzI1sU-1051" value="预开启混部查询接口" style="rounded=0;whiteSpace=wrap;html=1;fillColor=#dae8fc;align=center;strokeColor=#6c8ebf;gradientColor=#7ea6e0;" parent="1" vertex="1">
          <mxGeometry x="4997.889999999999" y="3020.750000000002" width="116.5" height="38.12" as="geometry" />
        </mxCell>
        <mxCell id="gbdRAvC1I9ubyzMzI1sU-1052" value="已开启混部记录接口" style="rounded=0;whiteSpace=wrap;html=1;fillColor=#d5e8d4;strokeColor=#82b366;align=center;gradientColor=#97d077;" parent="1" vertex="1">
          <mxGeometry x="4997.889999999999" y="3101.4800000000005" width="119.5" height="38.12" as="geometry" />
        </mxCell>
        <mxCell id="gbdRAvC1I9ubyzMzI1sU-1053" value="混部事件同步接口" style="rounded=0;whiteSpace=wrap;html=1;fillColor=#f8cecc;strokeColor=#b85450;align=center;gradientColor=#ea6b66;" parent="1" vertex="1">
          <mxGeometry x="4996.889999999999" y="3180.95" width="120.5" height="38.12" as="geometry" />
        </mxCell>
        <mxCell id="gbdRAvC1I9ubyzMzI1sU-1054" value="" style="shape=curlyBracket;whiteSpace=wrap;html=1;rounded=1;labelBackgroundColor=#F8F9FA;fontColor=#FF3333;" parent="1" vertex="1">
          <mxGeometry x="4945" y="3032.010000000002" width="20" height="608.32" as="geometry" />
        </mxCell>
        <mxCell id="gbdRAvC1I9ubyzMzI1sU-1055" value="关闭混部记录接口" style="rounded=0;whiteSpace=wrap;html=1;fillColor=#ffcd28;strokeColor=#d79b00;align=center;gradientColor=#ffa500;" parent="1" vertex="1">
          <mxGeometry x="4996.889999999999" y="3260.7" width="120.5" height="38.12" as="geometry" />
        </mxCell>
        <mxCell id="gbdRAvC1I9ubyzMzI1sU-1056" value="检测混部状态 / per 30 min" style="rounded=0;whiteSpace=wrap;html=1;fillColor=none;" parent="1" vertex="1">
          <mxGeometry x="2930.37" y="3141.2800000000016" width="210.36" height="25.6" as="geometry" />
        </mxCell>
        <mxCell id="gbdRAvC1I9ubyzMzI1sU-1057" style="edgeStyle=orthogonalEdgeStyle;rounded=0;orthogonalLoop=1;jettySize=auto;html=1;entryX=1;entryY=0.5;entryDx=0;entryDy=0;exitX=1;exitY=0.5;exitDx=0;exitDy=0;" parent="1" source="gbdRAvC1I9ubyzMzI1sU-1060" target="gbdRAvC1I9ubyzMzI1sU-1056" edge="1">
          <mxGeometry relative="1" as="geometry">
            <Array as="points">
              <mxPoint x="3186" y="3298.0300000000016" />
              <mxPoint x="3186" y="3154.0300000000016" />
            </Array>
          </mxGeometry>
        </mxCell>
        <mxCell id="gbdRAvC1I9ubyzMzI1sU-1058" value="&lt;span style=&quot;font-size: 12px; background-color: rgb(251, 251, 251);&quot;&gt;触发干扰&lt;/span&gt;" style="edgeLabel;html=1;align=center;verticalAlign=middle;resizable=0;points=[];fontSize=11;" parent="gbdRAvC1I9ubyzMzI1sU-1057" vertex="1" connectable="0">
          <mxGeometry x="-0.0602" y="3" relative="1" as="geometry">
            <mxPoint as="offset" />
          </mxGeometry>
        </mxCell>
        <mxCell id="gbdRAvC1I9ubyzMzI1sU-1059" style="edgeStyle=orthogonalEdgeStyle;rounded=0;orthogonalLoop=1;jettySize=auto;html=1;" parent="1" source="gbdRAvC1I9ubyzMzI1sU-1060" edge="1">
          <mxGeometry relative="1" as="geometry">
            <mxPoint x="3119" y="3412.8100000000013" as="targetPoint" />
          </mxGeometry>
        </mxCell>
        <mxCell id="gbdRAvC1I9ubyzMzI1sU-1060" value="当前是否触发干扰检测" style="rounded=0;whiteSpace=wrap;html=1;fillColor=none;" parent="1" vertex="1">
          <mxGeometry x="3080.38" y="3272.130000000002" width="77.98" height="50.88" as="geometry" />
        </mxCell>
        <mxCell id="gbdRAvC1I9ubyzMzI1sU-1061" style="edgeStyle=orthogonalEdgeStyle;rounded=0;orthogonalLoop=1;jettySize=auto;html=1;" parent="1" source="gbdRAvC1I9ubyzMzI1sU-1062" target="gbdRAvC1I9ubyzMzI1sU-1128" edge="1">
          <mxGeometry relative="1" as="geometry" />
        </mxCell>
        <mxCell id="gbdRAvC1I9ubyzMzI1sU-1062" value="混部" style="text;html=1;align=center;verticalAlign=middle;resizable=0;points=[];autosize=1;strokeColor=none;fillColor=none;" parent="1" vertex="1">
          <mxGeometry x="2952.8500000000004" y="3176.5700000000024" width="40" height="20" as="geometry" />
        </mxCell>
        <mxCell id="gbdRAvC1I9ubyzMzI1sU-1063" value="未触发&lt;br&gt;干扰检测" style="text;html=1;align=center;verticalAlign=middle;resizable=0;points=[];autosize=1;strokeColor=none;fillColor=none;" parent="1" vertex="1">
          <mxGeometry x="3120.37" y="3352.9400000000023" width="60" height="30" as="geometry" />
        </mxCell>
        <mxCell id="gbdRAvC1I9ubyzMzI1sU-1064" style="edgeStyle=orthogonalEdgeStyle;rounded=0;orthogonalLoop=1;jettySize=auto;html=1;entryX=0.5;entryY=0;entryDx=0;entryDy=0;" parent="1" source="gbdRAvC1I9ubyzMzI1sU-1065" target="gbdRAvC1I9ubyzMzI1sU-1060" edge="1">
          <mxGeometry relative="1" as="geometry" />
        </mxCell>
        <mxCell id="gbdRAvC1I9ubyzMzI1sU-1065" value="未混部" style="text;html=1;align=center;verticalAlign=middle;resizable=0;points=[];autosize=1;strokeColor=none;fillColor=none;" parent="1" vertex="1">
          <mxGeometry x="3094.37" y="3176.5700000000024" width="50" height="20" as="geometry" />
        </mxCell>
        <mxCell id="gbdRAvC1I9ubyzMzI1sU-1066" value="说明：&lt;br&gt;忽略初资源预测逻辑外的其他&lt;br&gt;逻辑，直接开启混部，需与强&lt;br&gt;制关闭混部接口配合使用" style="text;html=1;align=center;verticalAlign=middle;resizable=0;points=[];autosize=1;strokeColor=none;fillColor=none;" parent="1" vertex="1">
          <mxGeometry x="3758.4799999999996" y="3999.300000000003" width="170" height="60" as="geometry" />
        </mxCell>
        <mxCell id="gbdRAvC1I9ubyzMzI1sU-1067" style="edgeStyle=orthogonalEdgeStyle;rounded=0;orthogonalLoop=1;jettySize=auto;html=1;entryX=0.5;entryY=0;entryDx=0;entryDy=0;" parent="1" source="gbdRAvC1I9ubyzMzI1sU-1070" target="gbdRAvC1I9ubyzMzI1sU-1071" edge="1">
          <mxGeometry relative="1" as="geometry" />
        </mxCell>
        <mxCell id="gbdRAvC1I9ubyzMzI1sU-1068" style="edgeStyle=orthogonalEdgeStyle;rounded=0;orthogonalLoop=1;jettySize=auto;html=1;strokeColor=#000000;entryX=1;entryY=0.5;entryDx=0;entryDy=0;" parent="1" source="gbdRAvC1I9ubyzMzI1sU-1070" target="gbdRAvC1I9ubyzMzI1sU-1144" edge="1">
          <mxGeometry relative="1" as="geometry" />
        </mxCell>
        <mxCell id="gbdRAvC1I9ubyzMzI1sU-1069" value="首次启动-超分&lt;br&gt;vcore / core = 2 / 1&amp;nbsp;" style="edgeLabel;html=1;align=center;verticalAlign=middle;resizable=0;points=[];" parent="gbdRAvC1I9ubyzMzI1sU-1068" vertex="1" connectable="0">
          <mxGeometry x="0.0765" y="2" relative="1" as="geometry">
            <mxPoint x="-13" y="-2" as="offset" />
          </mxGeometry>
        </mxCell>
        <mxCell id="gbdRAvC1I9ubyzMzI1sU-1070" value="以新规格 重启 offline容器中的 nm（超分：vcores / cores =&amp;nbsp; 2 / 1 ）&lt;br&gt;+&lt;br&gt;开启 yarn job 调度" style="rounded=0;whiteSpace=wrap;html=1;fillColor=none;" parent="1" vertex="1">
          <mxGeometry x="3467.88" y="4238.0300000000025" width="197.97" height="63.74" as="geometry" />
        </mxCell>
        <mxCell id="gbdRAvC1I9ubyzMzI1sU-1071" value="已开启混部记录接口" style="rounded=0;whiteSpace=wrap;html=1;fillColor=#d5e8d4;strokeColor=#82b366;align=center;gradientColor=#97d077;" parent="1" vertex="1">
          <mxGeometry x="3507.1200000000003" y="4324.0300000000025" width="119.5" height="38.12" as="geometry" />
        </mxCell>
        <mxCell id="gbdRAvC1I9ubyzMzI1sU-1072" style="edgeStyle=orthogonalEdgeStyle;rounded=0;orthogonalLoop=1;jettySize=auto;html=1;entryX=0;entryY=0.5;entryDx=0;entryDy=0;exitX=1;exitY=0.5;exitDx=0;exitDy=0;" parent="1" source="gbdRAvC1I9ubyzMzI1sU-1078" target="gbdRAvC1I9ubyzMzI1sU-1082" edge="1">
          <mxGeometry relative="1" as="geometry">
            <mxPoint x="4640.5" y="3596.4600000000028" as="sourcePoint" />
          </mxGeometry>
        </mxCell>
        <mxCell id="gbdRAvC1I9ubyzMzI1sU-1073" style="edgeStyle=orthogonalEdgeStyle;rounded=0;orthogonalLoop=1;jettySize=auto;html=1;entryX=0;entryY=0.25;entryDx=0;entryDy=0;fontSize=11;exitX=0.75;exitY=1;exitDx=0;exitDy=0;" parent="1" source="gbdRAvC1I9ubyzMzI1sU-1078" target="gbdRAvC1I9ubyzMzI1sU-1089" edge="1">
          <mxGeometry relative="1" as="geometry" />
        </mxCell>
        <mxCell id="gbdRAvC1I9ubyzMzI1sU-1074" value="goroutine" style="edgeLabel;html=1;align=center;verticalAlign=middle;resizable=0;points=[];fontSize=11;" parent="gbdRAvC1I9ubyzMzI1sU-1073" vertex="1" connectable="0">
          <mxGeometry x="-0.1693" y="-1" relative="1" as="geometry">
            <mxPoint x="36" y="-4" as="offset" />
          </mxGeometry>
        </mxCell>
        <mxCell id="gbdRAvC1I9ubyzMzI1sU-1075" style="edgeStyle=orthogonalEdgeStyle;rounded=0;orthogonalLoop=1;jettySize=auto;html=1;entryX=1;entryY=0.25;entryDx=0;entryDy=0;fontSize=11;exitX=0.5;exitY=1;exitDx=0;exitDy=0;" parent="1" source="gbdRAvC1I9ubyzMzI1sU-1078" target="gbdRAvC1I9ubyzMzI1sU-1259" edge="1">
          <mxGeometry relative="1" as="geometry" />
        </mxCell>
        <mxCell id="gbdRAvC1I9ubyzMzI1sU-1076" value="goroutine" style="edgeLabel;html=1;align=center;verticalAlign=middle;resizable=0;points=[];fontSize=11;" parent="gbdRAvC1I9ubyzMzI1sU-1075" vertex="1" connectable="0">
          <mxGeometry x="-0.6594" relative="1" as="geometry">
            <mxPoint x="-54" y="51" as="offset" />
          </mxGeometry>
        </mxCell>
        <mxCell id="gbdRAvC1I9ubyzMzI1sU-1077" style="edgeStyle=orthogonalEdgeStyle;rounded=0;orthogonalLoop=1;jettySize=auto;html=1;exitX=0.25;exitY=1;exitDx=0;exitDy=0;entryX=0.992;entryY=0.598;entryDx=0;entryDy=0;entryPerimeter=0;fontSize=11;" parent="1" source="gbdRAvC1I9ubyzMzI1sU-1078" target="gbdRAvC1I9ubyzMzI1sU-1267" edge="1">
          <mxGeometry relative="1" as="geometry" />
        </mxCell>
        <mxCell id="gbdRAvC1I9ubyzMzI1sU-1078" value="当前是否为 wuqing2 绑核环境" style="rounded=0;whiteSpace=wrap;html=1;fillColor=none;" parent="1" vertex="1">
          <mxGeometry x="4418.04" y="3625.4500000000007" width="171.96" height="40" as="geometry" />
        </mxCell>
        <mxCell id="gbdRAvC1I9ubyzMzI1sU-1079" style="edgeStyle=orthogonalEdgeStyle;rounded=0;orthogonalLoop=1;jettySize=auto;html=1;" parent="1" source="gbdRAvC1I9ubyzMzI1sU-1080" edge="1">
          <mxGeometry relative="1" as="geometry">
            <mxPoint x="4532.136363636362" y="3600.7800000000025" as="targetPoint" />
          </mxGeometry>
        </mxCell>
        <mxCell id="gbdRAvC1I9ubyzMzI1sU-1080" value="wclAgentHybrid 启动" style="rounded=0;whiteSpace=wrap;html=1;fillColor=none;" parent="1" vertex="1">
          <mxGeometry x="4457.12" y="3540.7800000000025" width="150" height="30" as="geometry" />
        </mxCell>
        <mxCell id="gbdRAvC1I9ubyzMzI1sU-1081" value="config" style="rounded=0;whiteSpace=wrap;html=1;fillColor=none;" parent="1" vertex="1">
          <mxGeometry x="4734.23" y="3748.1400000000012" width="90" height="30" as="geometry" />
        </mxCell>
        <mxCell id="gbdRAvC1I9ubyzMzI1sU-1082" value="return" style="rounded=0;whiteSpace=wrap;html=1;fillColor=none;" parent="1" vertex="1">
          <mxGeometry x="4662.62" y="3632.2000000000007" width="79.56" height="26.5" as="geometry" />
        </mxCell>
        <mxCell id="gbdRAvC1I9ubyzMzI1sU-1083" style="edgeStyle=orthogonalEdgeStyle;rounded=0;orthogonalLoop=1;jettySize=auto;html=1;entryX=0.5;entryY=0;entryDx=0;entryDy=0;exitX=0;exitY=0.5;exitDx=0;exitDy=0;" parent="1" source="gbdRAvC1I9ubyzMzI1sU-1084" target="gbdRAvC1I9ubyzMzI1sU-1092" edge="1">
          <mxGeometry relative="1" as="geometry">
            <mxPoint x="4924.191818181818" y="3932.1400000000012" as="sourcePoint" />
            <Array as="points">
              <mxPoint x="4785" y="3933.8100000000013" />
            </Array>
          </mxGeometry>
        </mxCell>
        <mxCell id="gbdRAvC1I9ubyzMzI1sU-1084" value="覆盖 mem、cgroup cpu、&lt;br&gt;&amp;nbsp;cpuset cgroup、cfs调度优先级&lt;br&gt;&amp;nbsp;等配置" style="rounded=0;whiteSpace=wrap;html=1;fillColor=none;" parent="1" vertex="1">
          <mxGeometry x="4834.23" y="3905.2700000000004" width="185.77" height="57.54" as="geometry" />
        </mxCell>
        <mxCell id="gbdRAvC1I9ubyzMzI1sU-1085" style="edgeStyle=orthogonalEdgeStyle;rounded=0;orthogonalLoop=1;jettySize=auto;html=1;entryX=0.5;entryY=0;entryDx=0;entryDy=0;strokeColor=#000000;" parent="1" source="gbdRAvC1I9ubyzMzI1sU-1086" target="gbdRAvC1I9ubyzMzI1sU-1084" edge="1">
          <mxGeometry relative="1" as="geometry" />
        </mxCell>
        <mxCell id="gbdRAvC1I9ubyzMzI1sU-1086" value="获取最新&lt;br&gt;CPU配置" style="rounded=0;whiteSpace=wrap;html=1;fillColor=none;" parent="1" vertex="1">
          <mxGeometry x="4880.93" y="3850.1900000000023" width="92.38" height="35.25" as="geometry" />
        </mxCell>
        <mxCell id="gbdRAvC1I9ubyzMzI1sU-1087" style="edgeStyle=orthogonalEdgeStyle;rounded=0;orthogonalLoop=1;jettySize=auto;html=1;entryX=0.5;entryY=0;entryDx=0;entryDy=0;" parent="1" source="gbdRAvC1I9ubyzMzI1sU-1089" target="gbdRAvC1I9ubyzMzI1sU-1086" edge="1">
          <mxGeometry relative="1" as="geometry">
            <mxPoint x="4924.419999999998" y="3843.1400000000012" as="targetPoint" />
            <Array as="points">
              <mxPoint x="4854.75" y="3832.2700000000004" />
              <mxPoint x="4907.75" y="3832.2700000000004" />
            </Array>
          </mxGeometry>
        </mxCell>
        <mxCell id="gbdRAvC1I9ubyzMzI1sU-1088" style="edgeStyle=orthogonalEdgeStyle;rounded=0;orthogonalLoop=1;jettySize=auto;html=1;entryX=0.5;entryY=0;entryDx=0;entryDy=0;" parent="1" source="gbdRAvC1I9ubyzMzI1sU-1089" target="gbdRAvC1I9ubyzMzI1sU-1092" edge="1">
          <mxGeometry relative="1" as="geometry" />
        </mxCell>
        <mxCell id="gbdRAvC1I9ubyzMzI1sU-1089" value="配置是否改变" style="rounded=0;whiteSpace=wrap;html=1;fillColor=none;" parent="1" vertex="1">
          <mxGeometry x="4734.23" y="3808.1400000000012" width="100" height="49.13" as="geometry" />
        </mxCell>
        <mxCell id="gbdRAvC1I9ubyzMzI1sU-1090" style="edgeStyle=orthogonalEdgeStyle;rounded=0;orthogonalLoop=1;jettySize=auto;html=1;entryX=0;entryY=0.5;entryDx=0;entryDy=0;exitX=0;exitY=0.5;exitDx=0;exitDy=0;" parent="1" source="gbdRAvC1I9ubyzMzI1sU-1092" target="gbdRAvC1I9ubyzMzI1sU-1089" edge="1">
          <mxGeometry relative="1" as="geometry" />
        </mxCell>
        <mxCell id="gbdRAvC1I9ubyzMzI1sU-1091" value="echo pid &amp;gt; cgroup.procs" style="edgeStyle=orthogonalEdgeStyle;rounded=0;orthogonalLoop=1;jettySize=auto;html=1;entryX=0.5;entryY=0;entryDx=0;entryDy=0;fontSize=11;" parent="1" source="gbdRAvC1I9ubyzMzI1sU-1092" target="gbdRAvC1I9ubyzMzI1sU-1137" edge="1">
          <mxGeometry relative="1" as="geometry" />
        </mxCell>
        <mxCell id="gbdRAvC1I9ubyzMzI1sU-1092" value="获取非容器进程 pid&lt;br&gt;+&lt;br&gt;根据配置限制到不同的cgroup子路径中" style="rounded=0;whiteSpace=wrap;html=1;fillColor=none;" parent="1" vertex="1">
          <mxGeometry x="4680.780000000001" y="4040.7800000000025" width="207.89" height="70" as="geometry" />
        </mxCell>
        <mxCell id="gbdRAvC1I9ubyzMzI1sU-1093" value="" style="endArrow=classic;startArrow=classic;html=1;rounded=0;" parent="1" edge="1">
          <mxGeometry width="50" height="50" relative="1" as="geometry">
            <mxPoint x="4778.7300000000005" y="3808.1400000000012" as="sourcePoint" />
            <mxPoint x="4778.7300000000005" y="3778.1400000000012" as="targetPoint" />
          </mxGeometry>
        </mxCell>
        <mxCell id="gbdRAvC1I9ubyzMzI1sU-1094" value="check" style="text;html=1;align=center;verticalAlign=middle;resizable=0;points=[];autosize=1;strokeColor=none;fillColor=none;" parent="1" vertex="1">
          <mxGeometry x="4784.23" y="3779.1400000000012" width="50" height="20" as="geometry" />
        </mxCell>
        <mxCell id="gbdRAvC1I9ubyzMzI1sU-1095" value="改变" style="text;html=1;align=center;verticalAlign=middle;resizable=0;points=[];autosize=1;strokeColor=none;fillColor=none;" parent="1" vertex="1">
          <mxGeometry x="4864.23" y="3797.6400000000012" width="40" height="20" as="geometry" />
        </mxCell>
        <mxCell id="gbdRAvC1I9ubyzMzI1sU-1096" value="未变" style="text;html=1;align=center;verticalAlign=middle;resizable=0;points=[];autosize=1;strokeColor=none;fillColor=none;" parent="1" vertex="1">
          <mxGeometry x="4789.23" y="3867.1600000000017" width="40" height="20" as="geometry" />
        </mxCell>
        <mxCell id="gbdRAvC1I9ubyzMzI1sU-1097" value="" style="endArrow=none;html=1;rounded=0;" parent="1" edge="1">
          <mxGeometry width="50" height="50" relative="1" as="geometry">
            <mxPoint x="4188.75" y="3602.7800000000025" as="sourcePoint" />
            <mxPoint x="4934.5" y="3602.3100000000013" as="targetPoint" />
          </mxGeometry>
        </mxCell>
        <mxCell id="gbdRAvC1I9ubyzMzI1sU-1098" value="是" style="text;html=1;align=center;verticalAlign=middle;resizable=0;points=[];autosize=1;strokeColor=none;fillColor=none;" parent="1" vertex="1">
          <mxGeometry x="4607.119999999999" y="3620.7800000000025" width="30" height="20" as="geometry" />
        </mxCell>
        <mxCell id="gbdRAvC1I9ubyzMzI1sU-1099" value="Loop：&lt;br&gt;check per 5 min" style="text;html=1;align=center;verticalAlign=middle;resizable=0;points=[];autosize=1;strokeColor=none;fillColor=none;" parent="1" vertex="1">
          <mxGeometry x="4559.23" y="3892.6400000000012" width="100" height="30" as="geometry" />
        </mxCell>
        <mxCell id="gbdRAvC1I9ubyzMzI1sU-1100" value="&lt;font style=&quot;font-size: 39px;&quot; color=&quot;#ff3333&quot;&gt;混部中心-&lt;/font&gt;&lt;span style=&quot;color: rgb(255, 51, 51);&quot;&gt;混部事件&lt;/span&gt;" style="text;html=1;align=center;verticalAlign=middle;resizable=0;points=[];autosize=1;strokeColor=none;fillColor=none;fontSize=39;" parent="1" vertex="1">
          <mxGeometry x="4882.139999999999" y="2954.7300000000005" width="350" height="60" as="geometry" />
        </mxCell>
        <mxCell id="gbdRAvC1I9ubyzMzI1sU-1101" value="&lt;font color=&quot;#ff3333&quot;&gt;干扰检测&lt;/font&gt;" style="text;html=1;align=center;verticalAlign=middle;resizable=0;points=[];autosize=1;strokeColor=none;fillColor=none;fontSize=39;" parent="1" vertex="1">
          <mxGeometry x="1850.1599999999996" y="3463.9000000000015" width="170" height="50" as="geometry" />
        </mxCell>
        <mxCell id="gbdRAvC1I9ubyzMzI1sU-1102" value="&lt;font color=&quot;#ff3333&quot;&gt;监控模块&lt;/font&gt;" style="text;html=1;align=center;verticalAlign=middle;resizable=0;points=[];autosize=1;strokeColor=none;fillColor=none;fontSize=39;" parent="1" vertex="1">
          <mxGeometry x="1602.5599999999997" y="3464.9000000000015" width="170" height="50" as="geometry" />
        </mxCell>
        <mxCell id="gbdRAvC1I9ubyzMzI1sU-1103" style="edgeStyle=orthogonalEdgeStyle;rounded=0;orthogonalLoop=1;jettySize=auto;html=1;entryX=0;entryY=0.5;entryDx=0;entryDy=0;" parent="1" source="gbdRAvC1I9ubyzMzI1sU-1106" target="gbdRAvC1I9ubyzMzI1sU-1108" edge="1">
          <mxGeometry relative="1" as="geometry" />
        </mxCell>
        <mxCell id="gbdRAvC1I9ubyzMzI1sU-1104" style="edgeStyle=orthogonalEdgeStyle;rounded=0;orthogonalLoop=1;jettySize=auto;html=1;entryX=0.5;entryY=1;entryDx=0;entryDy=0;" parent="1" source="gbdRAvC1I9ubyzMzI1sU-1106" target="gbdRAvC1I9ubyzMzI1sU-1137" edge="1">
          <mxGeometry relative="1" as="geometry">
            <Array as="points">
              <mxPoint x="1688" y="4387.810000000001" />
              <mxPoint x="4785" y="4387.810000000001" />
            </Array>
          </mxGeometry>
        </mxCell>
        <mxCell id="gbdRAvC1I9ubyzMzI1sU-1105" value="CPU使用率告警&lt;br style=&quot;border-color: var(--border-color);&quot;&gt;MEM使用量告警&lt;br style=&quot;border-color: var(--border-color);&quot;&gt;OOM告警" style="edgeLabel;html=1;align=center;verticalAlign=middle;resizable=0;points=[];fontSize=11;" parent="gbdRAvC1I9ubyzMzI1sU-1104" vertex="1" connectable="0">
          <mxGeometry x="0.9408" y="-2" relative="1" as="geometry">
            <mxPoint as="offset" />
          </mxGeometry>
        </mxCell>
        <mxCell id="gbdRAvC1I9ubyzMzI1sU-1106" value="监控数据推送&lt;br&gt;per 1s" style="rounded=0;whiteSpace=wrap;html=1;fillColor=none;" parent="1" vertex="1">
          <mxGeometry x="1629.3799999999997" y="3519.7800000000025" width="116.37" height="70" as="geometry" />
        </mxCell>
        <mxCell id="gbdRAvC1I9ubyzMzI1sU-1107" style="edgeStyle=orthogonalEdgeStyle;rounded=0;orthogonalLoop=1;jettySize=auto;html=1;entryX=0.5;entryY=0;entryDx=0;entryDy=0;" parent="1" source="gbdRAvC1I9ubyzMzI1sU-1108" target="gbdRAvC1I9ubyzMzI1sU-1110" edge="1">
          <mxGeometry relative="1" as="geometry" />
        </mxCell>
        <mxCell id="gbdRAvC1I9ubyzMzI1sU-1108" value="接收监控数据" style="rounded=0;whiteSpace=wrap;html=1;fillColor=none;" parent="1" vertex="1">
          <mxGeometry x="1887.6599999999996" y="3534.7800000000025" width="100" height="40" as="geometry" />
        </mxCell>
        <mxCell id="gbdRAvC1I9ubyzMzI1sU-1109" style="edgeStyle=orthogonalEdgeStyle;rounded=0;orthogonalLoop=1;jettySize=auto;html=1;entryX=0.5;entryY=0;entryDx=0;entryDy=0;" parent="1" source="gbdRAvC1I9ubyzMzI1sU-1110" target="gbdRAvC1I9ubyzMzI1sU-1111" edge="1">
          <mxGeometry relative="1" as="geometry" />
        </mxCell>
        <mxCell id="gbdRAvC1I9ubyzMzI1sU-1110" value="对每秒推送的数据&lt;br&gt;作干扰指标检测" style="rounded=0;whiteSpace=wrap;html=1;fillColor=none;" parent="1" vertex="1">
          <mxGeometry x="1878.6399999999996" y="3604.7800000000025" width="119.52" height="60" as="geometry" />
        </mxCell>
        <mxCell id="gbdRAvC1I9ubyzMzI1sU-1111" value="判断当前数据是否异常" style="rounded=0;whiteSpace=wrap;html=1;fillColor=none;" parent="1" vertex="1">
          <mxGeometry x="1897.4099999999996" y="3684.7800000000025" width="80.5" height="30" as="geometry" />
        </mxCell>
        <mxCell id="gbdRAvC1I9ubyzMzI1sU-1112" value="return" style="rounded=0;whiteSpace=wrap;html=1;fillColor=none;" parent="1" vertex="1">
          <mxGeometry x="1818.6599999999996" y="3811.2800000000025" width="69" height="30" as="geometry" />
        </mxCell>
        <mxCell id="gbdRAvC1I9ubyzMzI1sU-1113" style="edgeStyle=orthogonalEdgeStyle;rounded=0;orthogonalLoop=1;jettySize=auto;html=1;" parent="1" source="gbdRAvC1I9ubyzMzI1sU-1114" target="gbdRAvC1I9ubyzMzI1sU-1112" edge="1">
          <mxGeometry relative="1" as="geometry" />
        </mxCell>
        <mxCell id="gbdRAvC1I9ubyzMzI1sU-1114" value="正常" style="text;html=1;align=center;verticalAlign=middle;resizable=0;points=[];autosize=1;strokeColor=none;fillColor=none;" parent="1" vertex="1">
          <mxGeometry x="1832.9099999999996" y="3714.2800000000025" width="40" height="20" as="geometry" />
        </mxCell>
        <mxCell id="gbdRAvC1I9ubyzMzI1sU-1115" style="edgeStyle=orthogonalEdgeStyle;rounded=0;orthogonalLoop=1;jettySize=auto;html=1;entryX=0.5;entryY=0;entryDx=0;entryDy=0;" parent="1" source="gbdRAvC1I9ubyzMzI1sU-1116" target="gbdRAvC1I9ubyzMzI1sU-1118" edge="1">
          <mxGeometry relative="1" as="geometry" />
        </mxCell>
        <mxCell id="gbdRAvC1I9ubyzMzI1sU-1116" value="异常" style="text;html=1;align=center;verticalAlign=middle;resizable=0;points=[];autosize=1;strokeColor=none;fillColor=none;" parent="1" vertex="1">
          <mxGeometry x="2011.4099999999996" y="3714.7800000000025" width="40" height="20" as="geometry" />
        </mxCell>
        <mxCell id="gbdRAvC1I9ubyzMzI1sU-1117" style="edgeStyle=orthogonalEdgeStyle;rounded=0;orthogonalLoop=1;jettySize=auto;html=1;entryX=0.5;entryY=0;entryDx=0;entryDy=0;" parent="1" source="gbdRAvC1I9ubyzMzI1sU-1118" target="gbdRAvC1I9ubyzMzI1sU-1121" edge="1">
          <mxGeometry relative="1" as="geometry" />
        </mxCell>
        <mxCell id="gbdRAvC1I9ubyzMzI1sU-1118" value="按最大规则窗口&lt;br&gt;从循环队列中取数据" style="rounded=0;whiteSpace=wrap;html=1;fillColor=none;" parent="1" vertex="1">
          <mxGeometry x="1967.6599999999996" y="3781.7800000000025" width="127.5" height="53" as="geometry" />
        </mxCell>
        <mxCell id="gbdRAvC1I9ubyzMzI1sU-1119" style="edgeStyle=orthogonalEdgeStyle;rounded=0;orthogonalLoop=1;jettySize=auto;html=1;" parent="1" source="gbdRAvC1I9ubyzMzI1sU-1121" target="gbdRAvC1I9ubyzMzI1sU-1123" edge="1">
          <mxGeometry relative="1" as="geometry" />
        </mxCell>
        <mxCell id="gbdRAvC1I9ubyzMzI1sU-1120" style="edgeStyle=orthogonalEdgeStyle;rounded=0;orthogonalLoop=1;jettySize=auto;html=1;entryX=0;entryY=0.525;entryDx=0;entryDy=0;entryPerimeter=0;" parent="1" source="gbdRAvC1I9ubyzMzI1sU-1121" target="gbdRAvC1I9ubyzMzI1sU-1125" edge="1">
          <mxGeometry relative="1" as="geometry" />
        </mxCell>
        <mxCell id="gbdRAvC1I9ubyzMzI1sU-1121" value="累计各个规则窗口的异常点与对应规则作比" style="rounded=0;whiteSpace=wrap;html=1;fillColor=none;" parent="1" vertex="1">
          <mxGeometry x="1967.6599999999996" y="3890.2800000000025" width="127.5" height="53" as="geometry" />
        </mxCell>
        <mxCell id="gbdRAvC1I9ubyzMzI1sU-1122" style="edgeStyle=orthogonalEdgeStyle;rounded=0;orthogonalLoop=1;jettySize=auto;html=1;entryX=0.5;entryY=1;entryDx=0;entryDy=0;exitX=0.5;exitY=0;exitDx=0;exitDy=0;exitPerimeter=0;" parent="1" source="gbdRAvC1I9ubyzMzI1sU-1123" target="gbdRAvC1I9ubyzMzI1sU-1112" edge="1">
          <mxGeometry relative="1" as="geometry" />
        </mxCell>
        <mxCell id="gbdRAvC1I9ubyzMzI1sU-1123" value="未达到干扰检测标准" style="text;html=1;align=center;verticalAlign=middle;resizable=0;points=[];autosize=1;strokeColor=none;fillColor=none;" parent="1" vertex="1">
          <mxGeometry x="1793.1599999999996" y="3906.2800000000025" width="120" height="20" as="geometry" />
        </mxCell>
        <mxCell id="gbdRAvC1I9ubyzMzI1sU-1124" style="edgeStyle=orthogonalEdgeStyle;rounded=0;orthogonalLoop=1;jettySize=auto;html=1;entryX=0.409;entryY=0.502;entryDx=0;entryDy=0;entryPerimeter=0;strokeColor=#000000;" parent="1" source="gbdRAvC1I9ubyzMzI1sU-1125" target="gbdRAvC1I9ubyzMzI1sU-1178" edge="1">
          <mxGeometry relative="1" as="geometry" />
        </mxCell>
        <mxCell id="gbdRAvC1I9ubyzMzI1sU-1125" value="触发干扰标准" style="text;html=1;align=center;verticalAlign=middle;resizable=0;points=[];autosize=1;strokeColor=none;fillColor=none;" parent="1" vertex="1">
          <mxGeometry x="2135.06" y="3906.2800000000025" width="90" height="20" as="geometry" />
        </mxCell>
        <mxCell id="gbdRAvC1I9ubyzMzI1sU-1126" style="edgeStyle=orthogonalEdgeStyle;rounded=0;orthogonalLoop=1;jettySize=auto;html=1;" parent="1" source="gbdRAvC1I9ubyzMzI1sU-1128" target="gbdRAvC1I9ubyzMzI1sU-1131" edge="1">
          <mxGeometry relative="1" as="geometry" />
        </mxCell>
        <mxCell id="gbdRAvC1I9ubyzMzI1sU-1127" style="edgeStyle=orthogonalEdgeStyle;rounded=0;orthogonalLoop=1;jettySize=auto;html=1;entryX=0;entryY=0.5;entryDx=0;entryDy=0;exitX=0;exitY=0.5;exitDx=0;exitDy=0;" parent="1" source="gbdRAvC1I9ubyzMzI1sU-1128" target="gbdRAvC1I9ubyzMzI1sU-1056" edge="1">
          <mxGeometry relative="1" as="geometry">
            <Array as="points">
              <mxPoint x="2868.25" y="3251.0300000000016" />
              <mxPoint x="2868.25" y="3154.0300000000016" />
            </Array>
          </mxGeometry>
        </mxCell>
        <mxCell id="gbdRAvC1I9ubyzMzI1sU-1128" value="当前是否&lt;br&gt;发生压制" style="rhombus;whiteSpace=wrap;html=1;fillColor=none;" parent="1" vertex="1">
          <mxGeometry x="2920.8500000000004" y="3224.8300000000036" width="104" height="52" as="geometry" />
        </mxCell>
        <mxCell id="gbdRAvC1I9ubyzMzI1sU-1129" style="edgeStyle=orthogonalEdgeStyle;rounded=0;orthogonalLoop=1;jettySize=auto;html=1;entryX=0.5;entryY=0;entryDx=0;entryDy=0;" parent="1" source="gbdRAvC1I9ubyzMzI1sU-1131" target="gbdRAvC1I9ubyzMzI1sU-1136" edge="1">
          <mxGeometry relative="1" as="geometry">
            <mxPoint x="2972.8500000000004" y="3419.090000000002" as="targetPoint" />
          </mxGeometry>
        </mxCell>
        <mxCell id="gbdRAvC1I9ubyzMzI1sU-1130" style="edgeStyle=orthogonalEdgeStyle;rounded=0;orthogonalLoop=1;jettySize=auto;html=1;entryX=0;entryY=0.5;entryDx=0;entryDy=0;exitX=0;exitY=0.5;exitDx=0;exitDy=0;" parent="1" source="gbdRAvC1I9ubyzMzI1sU-1131" target="gbdRAvC1I9ubyzMzI1sU-1056" edge="1">
          <mxGeometry relative="1" as="geometry">
            <Array as="points">
              <mxPoint x="2868.25" y="3348.0300000000016" />
              <mxPoint x="2868.25" y="3154.0300000000016" />
            </Array>
          </mxGeometry>
        </mxCell>
        <mxCell id="gbdRAvC1I9ubyzMzI1sU-1131" value="在线容器_CPU&lt;br&gt;Agent_CPU&lt;br&gt;指标是否正常" style="rhombus;whiteSpace=wrap;html=1;fillColor=none;" parent="1" vertex="1">
          <mxGeometry x="2892.2200000000003" y="3308.0700000000033" width="161.26" height="80.28" as="geometry" />
        </mxCell>
        <mxCell id="gbdRAvC1I9ubyzMzI1sU-1132" value="否" style="text;html=1;align=center;verticalAlign=middle;resizable=0;points=[];autosize=1;strokeColor=none;fillColor=none;" parent="1" vertex="1">
          <mxGeometry x="2890.37" y="3210.810000000003" width="40" height="30" as="geometry" />
        </mxCell>
        <mxCell id="gbdRAvC1I9ubyzMzI1sU-1133" value="是" style="text;html=1;align=center;verticalAlign=middle;resizable=0;points=[];autosize=1;strokeColor=none;fillColor=none;" parent="1" vertex="1">
          <mxGeometry x="2930.37" y="3270.810000000003" width="40" height="30" as="geometry" />
        </mxCell>
        <mxCell id="gbdRAvC1I9ubyzMzI1sU-1134" value="否" style="text;html=1;align=center;verticalAlign=middle;resizable=0;points=[];autosize=1;strokeColor=none;fillColor=none;" parent="1" vertex="1">
          <mxGeometry x="2880.37" y="3309.7500000000027" width="40" height="30" as="geometry" />
        </mxCell>
        <mxCell id="gbdRAvC1I9ubyzMzI1sU-1135" style="edgeStyle=orthogonalEdgeStyle;rounded=0;orthogonalLoop=1;jettySize=auto;html=1;strokeColor=#000000;entryX=0.5;entryY=0;entryDx=0;entryDy=0;exitX=0.5;exitY=1;exitDx=0;exitDy=0;" parent="1" source="gbdRAvC1I9ubyzMzI1sU-1136" target="gbdRAvC1I9ubyzMzI1sU-1172" edge="1">
          <mxGeometry relative="1" as="geometry">
            <mxPoint x="1740.9599999999998" y="3432.4500000000016" as="targetPoint" />
            <Array as="points">
              <mxPoint x="2973.25" y="3478.0300000000016" />
              <mxPoint x="2352.25" y="3478.0300000000016" />
            </Array>
          </mxGeometry>
        </mxCell>
        <mxCell id="gbdRAvC1I9ubyzMzI1sU-1136" value="压制恢复流程（增加可用CPUQuota）" style="rounded=0;whiteSpace=wrap;html=1;fillColor=none;" parent="1" vertex="1">
          <mxGeometry x="2901.9700000000003" y="3416.010000000002" width="141.47" height="44.68" as="geometry" />
        </mxCell>
        <mxCell id="gbdRAvC1I9ubyzMzI1sU-1137" value="&lt;span style=&quot;&quot;&gt;/sys/fs/cgroup/cpu/agentAndDaemon&lt;/span&gt;" style="rounded=0;whiteSpace=wrap;html=1;fillColor=#f5f5f5;fontColor=#333333;strokeColor=#666666;" parent="1" vertex="1">
          <mxGeometry x="4675.23" y="4238.0300000000025" width="220" height="40" as="geometry" />
        </mxCell>
        <mxCell id="gbdRAvC1I9ubyzMzI1sU-1138" value="关闭混部" style="rounded=0;whiteSpace=wrap;html=1;align=center;" parent="1" vertex="1">
          <mxGeometry x="4996.889999999999" y="3380.630000000002" width="120.5" height="38.12" as="geometry" />
        </mxCell>
        <mxCell id="gbdRAvC1I9ubyzMzI1sU-1139" value="开启混部" style="rounded=0;whiteSpace=wrap;html=1;fillColor=#cdeb8b;align=center;strokeColor=#36393d;" parent="1" vertex="1">
          <mxGeometry x="4996.889999999999" y="3325.260000000001" width="120.5" height="38.12" as="geometry" />
        </mxCell>
        <mxCell id="gbdRAvC1I9ubyzMzI1sU-1140" value="关闭调度" style="rounded=0;whiteSpace=wrap;html=1;fillColor=#f9f7ed;align=center;strokeColor=#36393d;" parent="1" vertex="1">
          <mxGeometry x="4996.889999999999" y="3437.2700000000023" width="120.5" height="38.12" as="geometry" />
        </mxCell>
        <mxCell id="gbdRAvC1I9ubyzMzI1sU-1141" value="恢复调度" style="rounded=0;whiteSpace=wrap;html=1;fillColor=#ffcc99;align=center;strokeColor=#36393d;" parent="1" vertex="1">
          <mxGeometry x="4996.889999999999" y="3493.6500000000024" width="120.5" height="38.12" as="geometry" />
        </mxCell>
        <mxCell id="gbdRAvC1I9ubyzMzI1sU-1142" value="开启超分" style="rounded=0;whiteSpace=wrap;html=1;fillColor=#cce5ff;align=center;strokeColor=#36393d;" parent="1" vertex="1">
          <mxGeometry x="4996.889999999999" y="3549.7700000000023" width="120.5" height="38.12" as="geometry" />
        </mxCell>
        <mxCell id="gbdRAvC1I9ubyzMzI1sU-1143" value="关闭超分" style="rounded=0;whiteSpace=wrap;html=1;fillColor=#ffff88;align=center;strokeColor=#36393d;" parent="1" vertex="1">
          <mxGeometry x="4996.889999999999" y="3609.3300000000017" width="120.5" height="38.12" as="geometry" />
        </mxCell>
        <mxCell id="gbdRAvC1I9ubyzMzI1sU-1144" value="nodeManager" style="rounded=0;whiteSpace=wrap;html=1;fillColor=none;" parent="1" vertex="1">
          <mxGeometry x="2948.5699999999997" y="4254.380000000001" width="97" height="50" as="geometry" />
        </mxCell>
        <mxCell id="gbdRAvC1I9ubyzMzI1sU-1145" style="edgeStyle=orthogonalEdgeStyle;rounded=0;orthogonalLoop=1;jettySize=auto;html=1;strokeColor=#000000;" parent="1" source="gbdRAvC1I9ubyzMzI1sU-1147" target="gbdRAvC1I9ubyzMzI1sU-1150" edge="1">
          <mxGeometry relative="1" as="geometry" />
        </mxCell>
        <mxCell id="gbdRAvC1I9ubyzMzI1sU-1146" style="edgeStyle=orthogonalEdgeStyle;rounded=0;orthogonalLoop=1;jettySize=auto;html=1;entryX=1;entryY=0.5;entryDx=0;entryDy=0;strokeColor=#000000;exitX=1;exitY=0.5;exitDx=0;exitDy=0;" parent="1" source="gbdRAvC1I9ubyzMzI1sU-1147" target="gbdRAvC1I9ubyzMzI1sU-1163" edge="1">
          <mxGeometry relative="1" as="geometry" />
        </mxCell>
        <mxCell id="gbdRAvC1I9ubyzMzI1sU-1147" value="离线容器是否处于&lt;br&gt;过载状态" style="rhombus;whiteSpace=wrap;html=1;fillColor=none;" parent="1" vertex="1">
          <mxGeometry x="2558.5499999999997" y="3188.3300000000017" width="161.26" height="69.5" as="geometry" />
        </mxCell>
        <mxCell id="gbdRAvC1I9ubyzMzI1sU-1148" style="edgeStyle=orthogonalEdgeStyle;rounded=0;orthogonalLoop=1;jettySize=auto;html=1;strokeColor=#000000;" parent="1" source="gbdRAvC1I9ubyzMzI1sU-1150" target="gbdRAvC1I9ubyzMzI1sU-1154" edge="1">
          <mxGeometry relative="1" as="geometry" />
        </mxCell>
        <mxCell id="gbdRAvC1I9ubyzMzI1sU-1149" style="edgeStyle=orthogonalEdgeStyle;rounded=0;orthogonalLoop=1;jettySize=auto;html=1;strokeColor=#000000;entryX=1;entryY=0.5;entryDx=0;entryDy=0;exitX=1;exitY=0.5;exitDx=0;exitDy=0;" parent="1" source="gbdRAvC1I9ubyzMzI1sU-1150" target="gbdRAvC1I9ubyzMzI1sU-1163" edge="1">
          <mxGeometry relative="1" as="geometry">
            <mxPoint x="2541.7599999999998" y="3151.7700000000013" as="targetPoint" />
          </mxGeometry>
        </mxCell>
        <mxCell id="gbdRAvC1I9ubyzMzI1sU-1150" value="过载状态是否恢复" style="rhombus;whiteSpace=wrap;html=1;fillColor=none;" parent="1" vertex="1">
          <mxGeometry x="2558.5499999999997" y="3283.3900000000012" width="161.26" height="40" as="geometry" />
        </mxCell>
        <mxCell id="gbdRAvC1I9ubyzMzI1sU-1151" style="edgeStyle=orthogonalEdgeStyle;rounded=0;orthogonalLoop=1;jettySize=auto;html=1;entryX=0.5;entryY=0;entryDx=0;entryDy=0;strokeColor=#000000;" parent="1" source="gbdRAvC1I9ubyzMzI1sU-1154" target="gbdRAvC1I9ubyzMzI1sU-1158" edge="1">
          <mxGeometry relative="1" as="geometry" />
        </mxCell>
        <mxCell id="gbdRAvC1I9ubyzMzI1sU-1152" style="edgeStyle=orthogonalEdgeStyle;rounded=0;orthogonalLoop=1;jettySize=auto;html=1;entryX=1;entryY=0.5;entryDx=0;entryDy=0;strokeColor=#000000;exitX=1;exitY=0.5;exitDx=0;exitDy=0;" parent="1" source="gbdRAvC1I9ubyzMzI1sU-1154" target="gbdRAvC1I9ubyzMzI1sU-1163" edge="1">
          <mxGeometry relative="1" as="geometry" />
        </mxCell>
        <mxCell id="gbdRAvC1I9ubyzMzI1sU-1153" style="edgeStyle=orthogonalEdgeStyle;rounded=0;orthogonalLoop=1;jettySize=auto;html=1;strokeColor=#000000;entryX=1;entryY=0.5;entryDx=0;entryDy=0;" parent="1" source="gbdRAvC1I9ubyzMzI1sU-1154" target="gbdRAvC1I9ubyzMzI1sU-1155" edge="1">
          <mxGeometry relative="1" as="geometry">
            <mxPoint x="2742.21" y="3360.830000000001" as="targetPoint" />
          </mxGeometry>
        </mxCell>
        <mxCell id="gbdRAvC1I9ubyzMzI1sU-1154" value="调度是否关闭" style="rhombus;whiteSpace=wrap;html=1;fillColor=none;" parent="1" vertex="1">
          <mxGeometry x="2558.5499999999997" y="3353.3200000000006" width="161.26" height="40" as="geometry" />
        </mxCell>
        <mxCell id="gbdRAvC1I9ubyzMzI1sU-1155" value="恢复调度" style="rounded=0;whiteSpace=wrap;html=1;fillColor=#ffcc99;align=center;strokeColor=#36393d;" parent="1" vertex="1">
          <mxGeometry x="2392.5599999999995" y="3354.3200000000043" width="120.5" height="38.12" as="geometry" />
        </mxCell>
        <mxCell id="gbdRAvC1I9ubyzMzI1sU-1156" style="edgeStyle=orthogonalEdgeStyle;rounded=0;orthogonalLoop=1;jettySize=auto;html=1;strokeColor=#000000;entryX=1;entryY=0.5;entryDx=0;entryDy=0;exitX=1;exitY=0.5;exitDx=0;exitDy=0;" parent="1" source="gbdRAvC1I9ubyzMzI1sU-1158" target="gbdRAvC1I9ubyzMzI1sU-1163" edge="1">
          <mxGeometry relative="1" as="geometry">
            <mxPoint x="2469.87" y="3381.7700000000013" as="targetPoint" />
          </mxGeometry>
        </mxCell>
        <mxCell id="gbdRAvC1I9ubyzMzI1sU-1157" value="" style="edgeStyle=orthogonalEdgeStyle;rounded=0;orthogonalLoop=1;jettySize=auto;html=1;strokeColor=#000000;entryX=1;entryY=0.5;entryDx=0;entryDy=0;" parent="1" source="gbdRAvC1I9ubyzMzI1sU-1158" target="gbdRAvC1I9ubyzMzI1sU-1161" edge="1">
          <mxGeometry relative="1" as="geometry">
            <mxPoint x="2763.82" y="3449.5300000000016" as="targetPoint" />
          </mxGeometry>
        </mxCell>
        <mxCell id="gbdRAvC1I9ubyzMzI1sU-1158" value="core &amp;gt; 15 &amp;amp;&amp;amp;&lt;br&gt;core &amp;gt;= vcore" style="rhombus;whiteSpace=wrap;html=1;fillColor=none;" parent="1" vertex="1">
          <mxGeometry x="2558.55" y="3416.9000000000015" width="161.26" height="47" as="geometry" />
        </mxCell>
        <mxCell id="gbdRAvC1I9ubyzMzI1sU-1159" style="edgeStyle=orthogonalEdgeStyle;rounded=0;orthogonalLoop=1;jettySize=auto;html=1;entryX=0;entryY=0.5;entryDx=0;entryDy=0;exitX=0;exitY=0.5;exitDx=0;exitDy=0;" parent="1" source="gbdRAvC1I9ubyzMzI1sU-1161" target="gbdRAvC1I9ubyzMzI1sU-1144" edge="1">
          <mxGeometry relative="1" as="geometry">
            <mxPoint x="2924.54" y="4220.830000000002" as="targetPoint" />
            <Array as="points">
              <mxPoint x="1577.9999999999998" y="3441.0300000000016" />
              <mxPoint x="1577.9999999999998" y="4279.0300000000025" />
            </Array>
          </mxGeometry>
        </mxCell>
        <mxCell id="gbdRAvC1I9ubyzMzI1sU-1160" value="超分&lt;br&gt;vcore / core = 2 / 1&amp;nbsp;" style="edgeLabel;html=1;align=center;verticalAlign=middle;resizable=0;points=[];" parent="gbdRAvC1I9ubyzMzI1sU-1159" vertex="1" connectable="0">
          <mxGeometry x="0.877" y="5" relative="1" as="geometry">
            <mxPoint x="-18" y="5" as="offset" />
          </mxGeometry>
        </mxCell>
        <mxCell id="gbdRAvC1I9ubyzMzI1sU-1161" value="开启超分" style="rounded=0;whiteSpace=wrap;html=1;fillColor=#cce5ff;align=center;strokeColor=#36393d;" parent="1" vertex="1">
          <mxGeometry x="2392.5599999999995" y="3421.7700000000023" width="120.5" height="38.12" as="geometry" />
        </mxCell>
        <mxCell id="gbdRAvC1I9ubyzMzI1sU-1162" style="edgeStyle=orthogonalEdgeStyle;rounded=0;orthogonalLoop=1;jettySize=auto;html=1;entryX=0.5;entryY=0;entryDx=0;entryDy=0;strokeColor=#000000;" parent="1" source="gbdRAvC1I9ubyzMzI1sU-1163" target="gbdRAvC1I9ubyzMzI1sU-1147" edge="1">
          <mxGeometry relative="1" as="geometry" />
        </mxCell>
        <mxCell id="gbdRAvC1I9ubyzMzI1sU-1163" value="&lt;span style=&quot;&quot;&gt;loop&amp;nbsp; per 1min&lt;/span&gt;" style="rounded=0;whiteSpace=wrap;html=1;fillColor=none;" parent="1" vertex="1">
          <mxGeometry x="2592.56" y="3132.8100000000013" width="93.24" height="30" as="geometry" />
        </mxCell>
        <mxCell id="gbdRAvC1I9ubyzMzI1sU-1164" style="edgeStyle=orthogonalEdgeStyle;rounded=0;orthogonalLoop=1;jettySize=auto;html=1;entryX=0;entryY=0.5;entryDx=0;entryDy=0;strokeColor=#000000;" parent="1" source="gbdRAvC1I9ubyzMzI1sU-1168" target="gbdRAvC1I9ubyzMzI1sU-1181" edge="1">
          <mxGeometry relative="1" as="geometry">
            <Array as="points">
              <mxPoint x="2456" y="3769.0300000000025" />
              <mxPoint x="2456" y="3732.0300000000025" />
            </Array>
          </mxGeometry>
        </mxCell>
        <mxCell id="gbdRAvC1I9ubyzMzI1sU-1165" value="部分压制" style="edgeLabel;html=1;align=center;verticalAlign=middle;resizable=0;points=[];fontSize=11;" parent="gbdRAvC1I9ubyzMzI1sU-1164" vertex="1" connectable="0">
          <mxGeometry x="0.085" y="1" relative="1" as="geometry">
            <mxPoint x="39" y="1" as="offset" />
          </mxGeometry>
        </mxCell>
        <mxCell id="gbdRAvC1I9ubyzMzI1sU-1166" style="edgeStyle=orthogonalEdgeStyle;rounded=0;orthogonalLoop=1;jettySize=auto;html=1;entryX=0;entryY=0.5;entryDx=0;entryDy=0;fontSize=11;" parent="1" source="gbdRAvC1I9ubyzMzI1sU-1168" target="gbdRAvC1I9ubyzMzI1sU-1248" edge="1">
          <mxGeometry relative="1" as="geometry">
            <Array as="points">
              <mxPoint x="2456" y="3769.0300000000025" />
              <mxPoint x="2456" y="3805.0300000000025" />
            </Array>
          </mxGeometry>
        </mxCell>
        <mxCell id="gbdRAvC1I9ubyzMzI1sU-1167" value="整体压制" style="edgeLabel;html=1;align=center;verticalAlign=middle;resizable=0;points=[];fontSize=11;" parent="gbdRAvC1I9ubyzMzI1sU-1166" vertex="1" connectable="0">
          <mxGeometry x="-0.0091" y="1" relative="1" as="geometry">
            <mxPoint x="50" y="-15" as="offset" />
          </mxGeometry>
        </mxCell>
        <mxCell id="gbdRAvC1I9ubyzMzI1sU-1168" value="仅压制" style="rounded=0;whiteSpace=wrap;html=1;fillColor=none;" parent="1" vertex="1">
          <mxGeometry x="2312.56" y="3749.6500000000015" width="80.5" height="38.5" as="geometry" />
        </mxCell>
        <mxCell id="gbdRAvC1I9ubyzMzI1sU-1169" style="edgeStyle=orthogonalEdgeStyle;rounded=0;orthogonalLoop=1;jettySize=auto;html=1;entryX=0;entryY=0.5;entryDx=0;entryDy=0;strokeColor=#000000;" parent="1" source="gbdRAvC1I9ubyzMzI1sU-1170" target="gbdRAvC1I9ubyzMzI1sU-1187" edge="1">
          <mxGeometry relative="1" as="geometry" />
        </mxCell>
        <mxCell id="gbdRAvC1I9ubyzMzI1sU-1170" value="压制，压制不了则驱逐" style="rounded=0;whiteSpace=wrap;html=1;fillColor=none;" parent="1" vertex="1">
          <mxGeometry x="2312.56" y="3885.4400000000023" width="140" height="39.5" as="geometry" />
        </mxCell>
        <mxCell id="gbdRAvC1I9ubyzMzI1sU-1171" style="edgeStyle=orthogonalEdgeStyle;rounded=0;orthogonalLoop=1;jettySize=auto;html=1;entryX=0;entryY=0.5;entryDx=0;entryDy=0;strokeColor=#000000;" parent="1" source="gbdRAvC1I9ubyzMzI1sU-1172" target="gbdRAvC1I9ubyzMzI1sU-1194" edge="1">
          <mxGeometry relative="1" as="geometry" />
        </mxCell>
        <mxCell id="gbdRAvC1I9ubyzMzI1sU-1172" value="解除压制" style="rounded=0;whiteSpace=wrap;html=1;fillColor=none;" parent="1" vertex="1">
          <mxGeometry x="2312.56" y="3631.5600000000013" width="80" height="43" as="geometry" />
        </mxCell>
        <mxCell id="gbdRAvC1I9ubyzMzI1sU-1173" style="edgeStyle=orthogonalEdgeStyle;rounded=0;orthogonalLoop=1;jettySize=auto;html=1;strokeColor=#000000;" parent="1" source="gbdRAvC1I9ubyzMzI1sU-1174" target="gbdRAvC1I9ubyzMzI1sU-1195" edge="1">
          <mxGeometry relative="1" as="geometry" />
        </mxCell>
        <mxCell id="gbdRAvC1I9ubyzMzI1sU-1174" value="离线容器过载，关闭调度（下标签）" style="rounded=0;whiteSpace=wrap;html=1;fillColor=none;" parent="1" vertex="1">
          <mxGeometry x="2312.56" y="4043.5600000000013" width="200" height="43" as="geometry" />
        </mxCell>
        <mxCell id="gbdRAvC1I9ubyzMzI1sU-1175" style="edgeStyle=orthogonalEdgeStyle;rounded=0;orthogonalLoop=1;jettySize=auto;html=1;strokeColor=#000000;entryX=0.5;entryY=0;entryDx=0;entryDy=0;" parent="1" source="gbdRAvC1I9ubyzMzI1sU-1177" target="gbdRAvC1I9ubyzMzI1sU-1144" edge="1">
          <mxGeometry relative="1" as="geometry">
            <mxPoint x="2996.2968421052633" y="4253.440000000002" as="targetPoint" />
          </mxGeometry>
        </mxCell>
        <mxCell id="gbdRAvC1I9ubyzMzI1sU-1176" value="重启nm&lt;br&gt;vcore=core" style="edgeLabel;html=1;align=center;verticalAlign=middle;resizable=0;points=[];" parent="gbdRAvC1I9ubyzMzI1sU-1175" vertex="1" connectable="0">
          <mxGeometry x="0.0709" y="-1" relative="1" as="geometry">
            <mxPoint x="-115" y="-1" as="offset" />
          </mxGeometry>
        </mxCell>
        <mxCell id="gbdRAvC1I9ubyzMzI1sU-1177" value="离线容器过载，去除超分（vcore==core）" style="rounded=0;whiteSpace=wrap;html=1;fillColor=none;" parent="1" vertex="1">
          <mxGeometry x="2312.56" y="4174.560000000001" width="240" height="43" as="geometry" />
        </mxCell>
        <mxCell id="gbdRAvC1I9ubyzMzI1sU-1178" value="" style="shape=curlyBracket;whiteSpace=wrap;html=1;rounded=1;fillColor=none;" parent="1" vertex="1">
          <mxGeometry x="2269.13" y="3723.470000000001" width="20" height="384.56" as="geometry" />
        </mxCell>
        <mxCell id="gbdRAvC1I9ubyzMzI1sU-1179" value="" style="edgeStyle=orthogonalEdgeStyle;rounded=0;orthogonalLoop=1;jettySize=auto;html=1;strokeColor=#000000;entryX=0.5;entryY=0;entryDx=0;entryDy=0;exitX=1;exitY=0.5;exitDx=0;exitDy=0;" parent="1" source="gbdRAvC1I9ubyzMzI1sU-1249" target="gbdRAvC1I9ubyzMzI1sU-1144" edge="1">
          <mxGeometry x="0.6341" y="-35" relative="1" as="geometry">
            <mxPoint x="2996.2968421052633" y="4253.440000000002" as="targetPoint" />
            <mxPoint as="offset" />
          </mxGeometry>
        </mxCell>
        <mxCell id="gbdRAvC1I9ubyzMzI1sU-1180" style="edgeStyle=orthogonalEdgeStyle;rounded=0;orthogonalLoop=1;jettySize=auto;html=1;fontSize=11;" parent="1" source="gbdRAvC1I9ubyzMzI1sU-1181" target="gbdRAvC1I9ubyzMzI1sU-1249" edge="1">
          <mxGeometry relative="1" as="geometry">
            <Array as="points">
              <mxPoint x="2756" y="3732.0300000000025" />
              <mxPoint x="2756" y="3770.0300000000025" />
            </Array>
          </mxGeometry>
        </mxCell>
        <mxCell id="gbdRAvC1I9ubyzMzI1sU-1181" value="降低yarn容器CPU资源" style="rounded=0;whiteSpace=wrap;html=1;fillColor=none;" parent="1" vertex="1">
          <mxGeometry x="2553.5499999999997" y="3710.6500000000015" width="154" height="43.29" as="geometry" />
        </mxCell>
        <mxCell id="gbdRAvC1I9ubyzMzI1sU-1182" style="edgeStyle=orthogonalEdgeStyle;rounded=0;orthogonalLoop=1;jettySize=auto;html=1;entryX=0.5;entryY=0;entryDx=0;entryDy=0;strokeColor=#000000;" parent="1" source="gbdRAvC1I9ubyzMzI1sU-1184" target="gbdRAvC1I9ubyzMzI1sU-1144" edge="1">
          <mxGeometry relative="1" as="geometry">
            <mxPoint x="2996.2599999999998" y="4253.440000000002" as="targetPoint" />
          </mxGeometry>
        </mxCell>
        <mxCell id="gbdRAvC1I9ubyzMzI1sU-1183" value="重启nm&lt;br&gt;vcore=core" style="edgeLabel;html=1;align=center;verticalAlign=middle;resizable=0;points=[];" parent="gbdRAvC1I9ubyzMzI1sU-1182" vertex="1" connectable="0">
          <mxGeometry x="-0.8014" y="1" relative="1" as="geometry">
            <mxPoint as="offset" />
          </mxGeometry>
        </mxCell>
        <mxCell id="gbdRAvC1I9ubyzMzI1sU-1184" value="从离线容器掠夺若干核数，&lt;br&gt;调整到Agent/在线容器" style="rounded=0;whiteSpace=wrap;html=1;fillColor=none;" parent="1" vertex="1">
          <mxGeometry x="2723.63" y="3842.1500000000033" width="154" height="43.29" as="geometry" />
        </mxCell>
        <mxCell id="gbdRAvC1I9ubyzMzI1sU-1185" style="edgeStyle=orthogonalEdgeStyle;rounded=0;orthogonalLoop=1;jettySize=auto;html=1;entryX=0;entryY=0.25;entryDx=0;entryDy=0;strokeColor=#000000;exitX=0.5;exitY=0;exitDx=0;exitDy=0;" parent="1" source="gbdRAvC1I9ubyzMzI1sU-1187" target="gbdRAvC1I9ubyzMzI1sU-1184" edge="1">
          <mxGeometry relative="1" as="geometry">
            <Array as="points">
              <mxPoint x="2616" y="3853.0300000000025" />
            </Array>
          </mxGeometry>
        </mxCell>
        <mxCell id="gbdRAvC1I9ubyzMzI1sU-1186" style="edgeStyle=orthogonalEdgeStyle;rounded=0;orthogonalLoop=1;jettySize=auto;html=1;entryX=0;entryY=0.5;entryDx=0;entryDy=0;strokeColor=#000000;exitX=0.5;exitY=1;exitDx=0;exitDy=0;" parent="1" source="gbdRAvC1I9ubyzMzI1sU-1187" target="gbdRAvC1I9ubyzMzI1sU-1188" edge="1">
          <mxGeometry relative="1" as="geometry">
            <mxPoint x="2736.47" y="3951.290000000001" as="targetPoint" />
            <Array as="points">
              <mxPoint x="2616" y="3952.0300000000025" />
              <mxPoint x="2722" y="3952.0300000000025" />
            </Array>
          </mxGeometry>
        </mxCell>
        <mxCell id="gbdRAvC1I9ubyzMzI1sU-1187" value="离线容器&lt;br&gt;当前资源是否最小资源规格？" style="rhombus;whiteSpace=wrap;html=1;fillColor=none;" parent="1" vertex="1">
          <mxGeometry x="2558.5499999999997" y="3866.4800000000014" width="114" height="77.41" as="geometry" />
        </mxCell>
        <mxCell id="gbdRAvC1I9ubyzMzI1sU-1188" value="关闭调度" style="rounded=0;whiteSpace=wrap;html=1;fillColor=#f9f7ed;align=center;strokeColor=#36393d;" parent="1" vertex="1">
          <mxGeometry x="2721.63" y="3933.5000000000036" width="79.63" height="38.12" as="geometry" />
        </mxCell>
        <mxCell id="gbdRAvC1I9ubyzMzI1sU-1189" value="否" style="text;html=1;align=center;verticalAlign=middle;resizable=0;points=[];autosize=1;strokeColor=none;fillColor=none;" parent="1" vertex="1">
          <mxGeometry x="2642.56" y="3854.9400000000023" width="40" height="30" as="geometry" />
        </mxCell>
        <mxCell id="gbdRAvC1I9ubyzMzI1sU-1190" value="是" style="text;html=1;align=center;verticalAlign=middle;resizable=0;points=[];autosize=1;strokeColor=none;fillColor=none;" parent="1" vertex="1">
          <mxGeometry x="2642.56" y="3924.9400000000023" width="40" height="30" as="geometry" />
        </mxCell>
        <mxCell id="gbdRAvC1I9ubyzMzI1sU-1191" value="&lt;font color=&quot;#ff3333&quot;&gt;事件处理&lt;/font&gt;" style="text;html=1;align=center;verticalAlign=middle;resizable=0;points=[];autosize=1;strokeColor=none;fillColor=none;fontSize=39;" parent="1" vertex="1">
          <mxGeometry x="2562.56" y="3494.970000000002" width="180" height="60" as="geometry" />
        </mxCell>
        <mxCell id="gbdRAvC1I9ubyzMzI1sU-1192" value="" style="endArrow=none;html=1;rounded=0;strokeColor=#000000;dashed=1;" parent="1" edge="1">
          <mxGeometry width="50" height="50" relative="1" as="geometry">
            <mxPoint x="2366.8600000000006" y="3570.2300000000014" as="sourcePoint" />
            <mxPoint x="3012.95" y="3569.7700000000004" as="targetPoint" />
          </mxGeometry>
        </mxCell>
        <mxCell id="gbdRAvC1I9ubyzMzI1sU-1193" style="edgeStyle=orthogonalEdgeStyle;rounded=0;orthogonalLoop=1;jettySize=auto;html=1;entryX=0;entryY=0.5;entryDx=0;entryDy=0;strokeColor=#000000;" parent="1" source="gbdRAvC1I9ubyzMzI1sU-1194" target="gbdRAvC1I9ubyzMzI1sU-1210" edge="1">
          <mxGeometry relative="1" as="geometry" />
        </mxCell>
        <mxCell id="gbdRAvC1I9ubyzMzI1sU-1194" value="Agent/在线容器还原至原核数，将掠夺核还回离线容器" style="rounded=0;whiteSpace=wrap;html=1;fillColor=none;" parent="1" vertex="1">
          <mxGeometry x="2552.6499999999996" y="3631.5600000000013" width="154" height="43.29" as="geometry" />
        </mxCell>
        <mxCell id="gbdRAvC1I9ubyzMzI1sU-1195" value="关闭调度" style="rounded=0;whiteSpace=wrap;html=1;fillColor=#f9f7ed;align=center;strokeColor=#36393d;" parent="1" vertex="1">
          <mxGeometry x="2552.56" y="4046.9100000000017" width="79.63" height="38.12" as="geometry" />
        </mxCell>
        <mxCell id="gbdRAvC1I9ubyzMzI1sU-1196" value="关闭混部" style="rounded=0;whiteSpace=wrap;html=1;align=center;" parent="1" vertex="1">
          <mxGeometry x="2801.26" y="3933.500000000002" width="78.56" height="38.12" as="geometry" />
        </mxCell>
        <mxCell id="gbdRAvC1I9ubyzMzI1sU-1197" value="&lt;font style=&quot;font-size: 39px;&quot; color=&quot;#ff3333&quot;&gt;恢&lt;br&gt;复&lt;br&gt;超&lt;br&gt;分&lt;/font&gt;" style="text;html=1;align=center;verticalAlign=middle;resizable=0;points=[];autosize=1;strokeColor=none;fillColor=none;fontSize=39;" parent="1" vertex="1">
          <mxGeometry x="2482.5599999999995" y="3141.6600000000017" width="60" height="200" as="geometry" />
        </mxCell>
        <mxCell id="gbdRAvC1I9ubyzMzI1sU-1198" value="是" style="text;html=1;align=center;verticalAlign=middle;resizable=0;points=[];autosize=1;strokeColor=none;fillColor=none;" parent="1" vertex="1">
          <mxGeometry x="2537.21" y="3405.130000000001" width="40" height="30" as="geometry" />
        </mxCell>
        <mxCell id="gbdRAvC1I9ubyzMzI1sU-1199" value="是" style="text;html=1;align=center;verticalAlign=middle;resizable=0;points=[];autosize=1;strokeColor=none;fillColor=none;" parent="1" vertex="1">
          <mxGeometry x="2537.21" y="3333.130000000001" width="40" height="30" as="geometry" />
        </mxCell>
        <mxCell id="gbdRAvC1I9ubyzMzI1sU-1200" value="是" style="text;html=1;align=center;verticalAlign=middle;resizable=0;points=[];autosize=1;strokeColor=none;fillColor=none;" parent="1" vertex="1">
          <mxGeometry x="2594.49" y="3317.9600000000028" width="40" height="30" as="geometry" />
        </mxCell>
        <mxCell id="gbdRAvC1I9ubyzMzI1sU-1201" value="是" style="text;html=1;align=center;verticalAlign=middle;resizable=0;points=[];autosize=1;strokeColor=none;fillColor=none;" parent="1" vertex="1">
          <mxGeometry x="2592.56" y="3245.5800000000027" width="40" height="30" as="geometry" />
        </mxCell>
        <mxCell id="gbdRAvC1I9ubyzMzI1sU-1202" value="否" style="text;html=1;align=center;verticalAlign=middle;resizable=0;points=[];autosize=1;strokeColor=none;fillColor=none;" parent="1" vertex="1">
          <mxGeometry x="2677.21" y="3386.220000000001" width="40" height="30" as="geometry" />
        </mxCell>
        <mxCell id="gbdRAvC1I9ubyzMzI1sU-1203" value="否" style="text;html=1;align=center;verticalAlign=middle;resizable=0;points=[];autosize=1;strokeColor=none;fillColor=none;" parent="1" vertex="1">
          <mxGeometry x="2677.21" y="3313.000000000002" width="40" height="30" as="geometry" />
        </mxCell>
        <mxCell id="gbdRAvC1I9ubyzMzI1sU-1204" value="否" style="text;html=1;align=center;verticalAlign=middle;resizable=0;points=[];autosize=1;strokeColor=none;fillColor=none;" parent="1" vertex="1">
          <mxGeometry x="2677.21" y="3247.260000000002" width="40" height="30" as="geometry" />
        </mxCell>
        <mxCell id="gbdRAvC1I9ubyzMzI1sU-1205" value="否" style="text;html=1;align=center;verticalAlign=middle;resizable=0;points=[];autosize=1;strokeColor=none;fillColor=none;" parent="1" vertex="1">
          <mxGeometry x="2677.21" y="3167.260000000002" width="40" height="30" as="geometry" />
        </mxCell>
        <mxCell id="gbdRAvC1I9ubyzMzI1sU-1206" style="edgeStyle=orthogonalEdgeStyle;rounded=0;orthogonalLoop=1;jettySize=auto;html=1;strokeColor=#000000;entryX=0.5;entryY=0;entryDx=0;entryDy=0;exitX=0.992;exitY=0.545;exitDx=0;exitDy=0;exitPerimeter=0;" parent="1" source="gbdRAvC1I9ubyzMzI1sU-1207" target="gbdRAvC1I9ubyzMzI1sU-1144" edge="1">
          <mxGeometry relative="1" as="geometry">
            <mxPoint x="3022.56" y="4162.0300000000025" as="targetPoint" />
          </mxGeometry>
        </mxCell>
        <mxCell id="gbdRAvC1I9ubyzMzI1sU-1207" value="&lt;span style=&quot;font-size: 11px; background-color: rgb(255, 255, 255);&quot;&gt;重启nm&lt;/span&gt;&lt;br style=&quot;font-size: 11px;&quot;&gt;&lt;span style=&quot;font-size: 11px; background-color: rgb(255, 255, 255);&quot;&gt;vcore=core&lt;/span&gt;" style="text;html=1;align=center;verticalAlign=middle;resizable=0;points=[];autosize=1;strokeColor=none;fillColor=none;" parent="1" vertex="1">
          <mxGeometry x="2872.85" y="3585.8200000000015" width="80" height="40" as="geometry" />
        </mxCell>
        <mxCell id="gbdRAvC1I9ubyzMzI1sU-1208" style="edgeStyle=orthogonalEdgeStyle;rounded=0;orthogonalLoop=1;jettySize=auto;html=1;entryX=-0.009;entryY=0.492;entryDx=0;entryDy=0;entryPerimeter=0;strokeColor=#000000;exitX=0.5;exitY=0;exitDx=0;exitDy=0;" parent="1" source="gbdRAvC1I9ubyzMzI1sU-1210" target="gbdRAvC1I9ubyzMzI1sU-1207" edge="1">
          <mxGeometry relative="1" as="geometry" />
        </mxCell>
        <mxCell id="gbdRAvC1I9ubyzMzI1sU-1209" style="edgeStyle=orthogonalEdgeStyle;rounded=0;orthogonalLoop=1;jettySize=auto;html=1;strokeColor=#000000;exitX=0.5;exitY=1;exitDx=0;exitDy=0;" parent="1" source="gbdRAvC1I9ubyzMzI1sU-1210" target="gbdRAvC1I9ubyzMzI1sU-1212" edge="1">
          <mxGeometry relative="1" as="geometry" />
        </mxCell>
        <mxCell id="gbdRAvC1I9ubyzMzI1sU-1210" value="离线容器&lt;br&gt;是否恢复？" style="rhombus;whiteSpace=wrap;html=1;fillColor=none;" parent="1" vertex="1">
          <mxGeometry x="2750.5600000000004" y="3628.0000000000036" width="104" height="52" as="geometry" />
        </mxCell>
        <mxCell id="gbdRAvC1I9ubyzMzI1sU-1211" style="edgeStyle=orthogonalEdgeStyle;rounded=0;orthogonalLoop=1;jettySize=auto;html=1;entryX=0.5;entryY=0;entryDx=0;entryDy=0;strokeColor=#000000;" parent="1" target="gbdRAvC1I9ubyzMzI1sU-1144" edge="1">
          <mxGeometry relative="1" as="geometry">
            <mxPoint x="2972.5600000000004" y="3698.0300000000025" as="sourcePoint" />
            <Array as="points">
              <mxPoint x="2997.56" y="3698.0300000000025" />
            </Array>
          </mxGeometry>
        </mxCell>
        <mxCell id="gbdRAvC1I9ubyzMzI1sU-1212" value="&lt;span style=&quot;font-size: 11px; background-color: rgb(255, 255, 255);&quot;&gt;重启nm，超分&lt;/span&gt;&lt;br style=&quot;font-size: 11px;&quot;&gt;&lt;span style=&quot;font-size: 11px; background-color: rgb(255, 255, 255);&quot;&gt;vcore/core = 2/1&lt;/span&gt;" style="text;html=1;align=center;verticalAlign=middle;resizable=0;points=[];autosize=1;strokeColor=none;fillColor=none;" parent="1" vertex="1">
          <mxGeometry x="2870.2200000000003" y="3679.91" width="110" height="40" as="geometry" />
        </mxCell>
        <mxCell id="gbdRAvC1I9ubyzMzI1sU-1213" value="&lt;font style=&quot;font-size: 39px;&quot; color=&quot;#ff3333&quot;&gt;解&lt;br&gt;除&lt;br&gt;压&lt;br&gt;制&lt;br&gt;&lt;/font&gt;" style="text;html=1;align=center;verticalAlign=middle;resizable=0;points=[];autosize=1;strokeColor=none;fillColor=none;fontSize=39;" parent="1" vertex="1">
          <mxGeometry x="2807.91" y="3141.2800000000007" width="60" height="200" as="geometry" />
        </mxCell>
        <mxCell id="gbdRAvC1I9ubyzMzI1sU-1214" value="离线容器&amp;nbsp; &amp;nbsp; &amp;nbsp; &amp;nbsp; &amp;nbsp; &amp;nbsp; &amp;nbsp; &amp;nbsp; &amp;nbsp; &amp;nbsp;&amp;nbsp;&lt;br&gt;&lt;br&gt;&lt;br&gt;&lt;br&gt;&lt;br&gt;&lt;br&gt;&lt;br&gt;" style="rounded=0;whiteSpace=wrap;html=1;fillColor=none;" parent="1" vertex="1">
          <mxGeometry x="2930.37" y="4213.84" width="133.4" height="130.12" as="geometry" />
        </mxCell>
        <mxCell id="gbdRAvC1I9ubyzMzI1sU-1215" value="OS版本识别" style="rounded=0;whiteSpace=wrap;html=1;fillColor=none;" parent="1" vertex="1">
          <mxGeometry x="1572.5200000000002" y="2977.8099999999995" width="102.95" height="40" as="geometry" />
        </mxCell>
        <mxCell id="gbdRAvC1I9ubyzMzI1sU-1216" value="CentOS" style="rounded=0;whiteSpace=wrap;html=1;fillColor=none;" parent="1" vertex="1">
          <mxGeometry x="1730.98" y="2912.8099999999995" width="82.08" height="40" as="geometry" />
        </mxCell>
        <mxCell id="gbdRAvC1I9ubyzMzI1sU-1217" value="凌晨定时混部" style="text;html=1;align=center;verticalAlign=middle;resizable=0;points=[];autosize=1;strokeColor=none;fillColor=none;" parent="1" vertex="1">
          <mxGeometry x="1722.5200000000004" y="2882.8099999999995" width="100" height="30" as="geometry" />
        </mxCell>
        <mxCell id="gbdRAvC1I9ubyzMzI1sU-1218" value="全天混部" style="text;html=1;align=center;verticalAlign=middle;resizable=0;points=[];autosize=1;strokeColor=none;fillColor=none;" parent="1" vertex="1">
          <mxGeometry x="1737.5200000000002" y="3032.8099999999995" width="70" height="30" as="geometry" />
        </mxCell>
        <mxCell id="gbdRAvC1I9ubyzMzI1sU-1219" value="" style="endArrow=none;html=1;rounded=0;" parent="1" edge="1">
          <mxGeometry width="50" height="50" relative="1" as="geometry">
            <mxPoint x="1720.3" y="3002.8099999999995" as="sourcePoint" />
            <mxPoint x="2550.2999999999997" y="3002.8099999999995" as="targetPoint" />
          </mxGeometry>
        </mxCell>
        <mxCell id="gbdRAvC1I9ubyzMzI1sU-1220" value="AnolisOS" style="rounded=0;whiteSpace=wrap;html=1;fillColor=none;" parent="1" vertex="1">
          <mxGeometry x="1731.4799999999998" y="3062.779999999999" width="82.08" height="40" as="geometry" />
        </mxCell>
        <mxCell id="gbdRAvC1I9ubyzMzI1sU-1221" style="edgeStyle=orthogonalEdgeStyle;rounded=0;orthogonalLoop=1;jettySize=auto;html=1;entryX=0.486;entryY=0.002;entryDx=0;entryDy=0;entryPerimeter=0;fontSize=11;exitX=0.25;exitY=1;exitDx=0;exitDy=0;" parent="1" source="gbdRAvC1I9ubyzMzI1sU-1223" target="gbdRAvC1I9ubyzMzI1sU-1232" edge="1">
          <mxGeometry relative="1" as="geometry" />
        </mxCell>
        <mxCell id="gbdRAvC1I9ubyzMzI1sU-1222" style="edgeStyle=orthogonalEdgeStyle;rounded=0;orthogonalLoop=1;jettySize=auto;html=1;fontSize=11;exitX=0.75;exitY=1;exitDx=0;exitDy=0;" parent="1" source="gbdRAvC1I9ubyzMzI1sU-1223" target="gbdRAvC1I9ubyzMzI1sU-1230" edge="1">
          <mxGeometry relative="1" as="geometry" />
        </mxCell>
        <mxCell id="gbdRAvC1I9ubyzMzI1sU-1223" value="获取容器增减信息" style="rounded=0;whiteSpace=wrap;html=1;fillColor=none;" parent="1" vertex="1">
          <mxGeometry x="3484.7200000000003" y="3637.500000000002" width="140" height="40" as="geometry" />
        </mxCell>
        <mxCell id="gbdRAvC1I9ubyzMzI1sU-1224" value="alert" style="rounded=0;whiteSpace=wrap;html=1;fillColor=#e51400;fontColor=#ffffff;strokeColor=#B20000;" parent="1" vertex="1">
          <mxGeometry x="3415.7200000000003" y="3637.500000000002" width="69" height="30" as="geometry" />
        </mxCell>
        <mxCell id="gbdRAvC1I9ubyzMzI1sU-1225" value="绑核环境发现yarn容器" style="text;html=1;align=center;verticalAlign=middle;resizable=0;points=[];autosize=1;strokeColor=none;fillColor=none;" parent="1" vertex="1">
          <mxGeometry x="3285.7200000000003" y="3642.500000000002" width="130" height="20" as="geometry" />
        </mxCell>
        <mxCell id="gbdRAvC1I9ubyzMzI1sU-1226" style="edgeStyle=orthogonalEdgeStyle;rounded=0;orthogonalLoop=1;jettySize=auto;html=1;entryX=0.75;entryY=0;entryDx=0;entryDy=0;fontSize=11;" parent="1" source="gbdRAvC1I9ubyzMzI1sU-1227" target="gbdRAvC1I9ubyzMzI1sU-1233" edge="1">
          <mxGeometry relative="1" as="geometry" />
        </mxCell>
        <mxCell id="gbdRAvC1I9ubyzMzI1sU-1227" value="yarn容器&lt;br&gt;" style="rounded=0;whiteSpace=wrap;html=1;fillColor=none;" parent="1" vertex="1">
          <mxGeometry x="3714.4300000000003" y="3794.9100000000017" width="90.07" height="40" as="geometry" />
        </mxCell>
        <mxCell id="gbdRAvC1I9ubyzMzI1sU-1228" style="edgeStyle=orthogonalEdgeStyle;rounded=0;orthogonalLoop=1;jettySize=auto;html=1;fontSize=11;" parent="1" source="gbdRAvC1I9ubyzMzI1sU-1229" target="gbdRAvC1I9ubyzMzI1sU-1233" edge="1">
          <mxGeometry relative="1" as="geometry" />
        </mxCell>
        <mxCell id="gbdRAvC1I9ubyzMzI1sU-1229" value="其他离线容器" style="rounded=0;whiteSpace=wrap;html=1;fillColor=none;" parent="1" vertex="1">
          <mxGeometry x="3559.1200000000003" y="3795.9100000000017" width="87.55" height="38" as="geometry" />
        </mxCell>
        <mxCell id="gbdRAvC1I9ubyzMzI1sU-1230" value="离线容器" style="text;html=1;align=center;verticalAlign=middle;resizable=0;points=[];autosize=1;strokeColor=none;fillColor=none;fontSize=11;" parent="1" vertex="1">
          <mxGeometry x="3669.27" y="3730.760000000002" width="70" height="30" as="geometry" />
        </mxCell>
        <mxCell id="gbdRAvC1I9ubyzMzI1sU-1231" value="" style="shape=curlyBracket;whiteSpace=wrap;html=1;rounded=1;flipH=1;size=0.5;rotation=-90;" parent="1" vertex="1">
          <mxGeometry x="3692.56" y="3693.760000000002" width="23.43" height="162.47" as="geometry" />
        </mxCell>
        <mxCell id="gbdRAvC1I9ubyzMzI1sU-1232" value="&lt;span style=&quot;font-size: 12px;&quot;&gt;在线容器&lt;/span&gt;" style="text;html=1;align=center;verticalAlign=middle;resizable=0;points=[];autosize=1;strokeColor=none;fillColor=none;fontSize=11;" parent="1" vertex="1">
          <mxGeometry x="3375.59" y="3730.760000000002" width="70" height="30" as="geometry" />
        </mxCell>
        <mxCell id="gbdRAvC1I9ubyzMzI1sU-1233" value="&lt;span style=&quot;border-color: var(--border-color);&quot;&gt;（对现有的文件系统接口进行修改）&lt;/span&gt;&lt;span style=&quot;border-color: var(--border-color);&quot;&gt;&lt;br style=&quot;border-color: var(--border-color);&quot;&gt;cfs调度优先级、cpuShare调整、io隔离、Memcg OOM优先级、RDT目录维护&lt;/span&gt;" style="rounded=0;whiteSpace=wrap;html=1;fillColor=none;" parent="1" vertex="1">
          <mxGeometry x="3377.1800000000003" y="3876.2800000000025" width="450" height="50" as="geometry" />
        </mxCell>
        <mxCell id="gbdRAvC1I9ubyzMzI1sU-1234" style="edgeStyle=orthogonalEdgeStyle;rounded=0;orthogonalLoop=1;jettySize=auto;html=1;exitX=0.75;exitY=1;exitDx=0;exitDy=0;fontSize=11;" parent="1" target="gbdRAvC1I9ubyzMzI1sU-1238" edge="1">
          <mxGeometry relative="1" as="geometry">
            <mxPoint x="3568.2782352941176" y="3974.0300000000025" as="targetPoint" />
            <mxPoint x="3567.5875" y="3928.930000000002" as="sourcePoint" />
          </mxGeometry>
        </mxCell>
        <mxCell id="gbdRAvC1I9ubyzMzI1sU-1235" value="启动yarn容器" style="edgeLabel;html=1;align=center;verticalAlign=middle;resizable=0;points=[];fontSize=11;" parent="gbdRAvC1I9ubyzMzI1sU-1234" vertex="1" connectable="0">
          <mxGeometry x="-0.1287" y="-3" relative="1" as="geometry">
            <mxPoint as="offset" />
          </mxGeometry>
        </mxCell>
        <mxCell id="gbdRAvC1I9ubyzMzI1sU-1236" style="edgeStyle=orthogonalEdgeStyle;rounded=0;orthogonalLoop=1;jettySize=auto;html=1;entryX=0.5;entryY=0;entryDx=0;entryDy=0;fontSize=11;" parent="1" source="gbdRAvC1I9ubyzMzI1sU-1238" target="gbdRAvC1I9ubyzMzI1sU-1246" edge="1">
          <mxGeometry relative="1" as="geometry" />
        </mxCell>
        <mxCell id="gbdRAvC1I9ubyzMzI1sU-1237" value="nm启动成功后" style="edgeLabel;html=1;align=center;verticalAlign=middle;resizable=0;points=[];fontSize=11;" parent="gbdRAvC1I9ubyzMzI1sU-1236" vertex="1" connectable="0">
          <mxGeometry x="-0.1952" y="-2" relative="1" as="geometry">
            <mxPoint y="1" as="offset" />
          </mxGeometry>
        </mxCell>
        <mxCell id="gbdRAvC1I9ubyzMzI1sU-1238" value="NM存活检测，如果没有反应，持续告警&lt;br style=&quot;border-color: var(--border-color);&quot;&gt;频次：3min1次&lt;br&gt;30min聚合" style="rounded=0;whiteSpace=wrap;html=1;fillColor=none;" parent="1" vertex="1">
          <mxGeometry x="3452.95" y="4016.9300000000003" width="227.2" height="50" as="geometry" />
        </mxCell>
        <mxCell id="gbdRAvC1I9ubyzMzI1sU-1239" style="edgeStyle=orthogonalEdgeStyle;rounded=0;orthogonalLoop=1;jettySize=auto;html=1;exitX=0;exitY=0.25;exitDx=0;exitDy=0;entryX=1;entryY=0.5;entryDx=0;entryDy=0;" parent="1" target="gbdRAvC1I9ubyzMzI1sU-1241" edge="1">
          <mxGeometry relative="1" as="geometry">
            <mxPoint x="3447.5899999999997" y="4154.700000000001" as="sourcePoint" />
          </mxGeometry>
        </mxCell>
        <mxCell id="gbdRAvC1I9ubyzMzI1sU-1240" value="资源不足" style="text;html=1;align=center;verticalAlign=middle;resizable=0;points=[];autosize=1;strokeColor=none;fillColor=none;" parent="1" vertex="1">
          <mxGeometry x="3387.59" y="4125.469999999999" width="60" height="20" as="geometry" />
        </mxCell>
        <mxCell id="gbdRAvC1I9ubyzMzI1sU-1241" value="return" style="rounded=0;whiteSpace=wrap;html=1;fillColor=none;" parent="1" vertex="1">
          <mxGeometry x="3292.48" y="4139.35" width="92.5" height="30" as="geometry" />
        </mxCell>
        <mxCell id="gbdRAvC1I9ubyzMzI1sU-1242" style="edgeStyle=orthogonalEdgeStyle;rounded=0;orthogonalLoop=1;jettySize=auto;html=1;entryX=0;entryY=0.5;entryDx=0;entryDy=0;fontSize=11;exitX=0.25;exitY=0;exitDx=0;exitDy=0;" parent="1" source="gbdRAvC1I9ubyzMzI1sU-1238" target="gbdRAvC1I9ubyzMzI1sU-1238" edge="1">
          <mxGeometry relative="1" as="geometry">
            <Array as="points">
              <mxPoint x="3509.7200000000003" y="3997.0300000000025" />
              <mxPoint x="3432.7200000000003" y="3997.0300000000025" />
              <mxPoint x="3432.7200000000003" y="4042.0300000000025" />
            </Array>
          </mxGeometry>
        </mxCell>
        <mxCell id="gbdRAvC1I9ubyzMzI1sU-1243" value="loop：check nm status" style="text;html=1;align=center;verticalAlign=middle;resizable=0;points=[];autosize=1;strokeColor=none;fillColor=none;fontSize=11;" parent="1" vertex="1">
          <mxGeometry x="3295.04" y="4026.9300000000003" width="140" height="30" as="geometry" />
        </mxCell>
        <mxCell id="gbdRAvC1I9ubyzMzI1sU-1244" value="goroutine：" style="text;html=1;align=center;verticalAlign=middle;resizable=0;points=[];autosize=1;strokeColor=none;fillColor=none;fontSize=11;" parent="1" vertex="1">
          <mxGeometry x="3239.61" y="3986.9300000000003" width="90" height="30" as="geometry" />
        </mxCell>
        <mxCell id="gbdRAvC1I9ubyzMzI1sU-1245" style="edgeStyle=orthogonalEdgeStyle;rounded=0;orthogonalLoop=1;jettySize=auto;html=1;fontSize=11;" parent="1" source="gbdRAvC1I9ubyzMzI1sU-1246" target="gbdRAvC1I9ubyzMzI1sU-1070" edge="1">
          <mxGeometry relative="1" as="geometry" />
        </mxCell>
        <mxCell id="gbdRAvC1I9ubyzMzI1sU-1246" value="在线容器CPU资源按照0.45buffer预留&lt;br&gt;离线容器资源 &lt;br&gt;CPU按5核倍数分配&lt;br&gt;同时，cpu按照1倍超分&lt;br&gt;CPU:MEM按照 1:3 ～1:8动态分配" style="rounded=0;whiteSpace=wrap;html=1;fillColor=none;" parent="1" vertex="1">
          <mxGeometry x="3448.6000000000004" y="4108.0300000000025" width="235.58" height="96.6" as="geometry" />
        </mxCell>
        <mxCell id="gbdRAvC1I9ubyzMzI1sU-1247" style="edgeStyle=orthogonalEdgeStyle;rounded=0;orthogonalLoop=1;jettySize=auto;html=1;entryX=0;entryY=0.5;entryDx=0;entryDy=0;fontSize=11;" parent="1" source="gbdRAvC1I9ubyzMzI1sU-1248" target="gbdRAvC1I9ubyzMzI1sU-1249" edge="1">
          <mxGeometry relative="1" as="geometry">
            <Array as="points">
              <mxPoint x="2756" y="3805.0300000000025" />
              <mxPoint x="2756" y="3770.0300000000025" />
            </Array>
          </mxGeometry>
        </mxCell>
        <mxCell id="gbdRAvC1I9ubyzMzI1sU-1248" value="降低整体offline容器CPU资源" style="rounded=0;whiteSpace=wrap;html=1;fillColor=none;" parent="1" vertex="1">
          <mxGeometry x="2554.5499999999997" y="3783.5200000000004" width="166.45" height="43.29" as="geometry" />
        </mxCell>
        <mxCell id="gbdRAvC1I9ubyzMzI1sU-1249" value="&lt;span style=&quot;background-color: rgb(255, 255, 255);&quot;&gt;重启nm&lt;/span&gt;&lt;br style=&quot;border-color: var(--border-color);&quot;&gt;&lt;span style=&quot;background-color: rgb(255, 255, 255);&quot;&gt;vcore=core&lt;/span&gt;" style="whiteSpace=wrap;html=1;fontSize=11;fillColor=none;" parent="1" vertex="1">
          <mxGeometry x="2817.91" y="3751.0300000000025" width="95.27" height="38.25" as="geometry" />
        </mxCell>
        <mxCell id="gbdRAvC1I9ubyzMzI1sU-1250" style="edgeStyle=orthogonalEdgeStyle;rounded=0;orthogonalLoop=1;jettySize=auto;html=1;entryX=0;entryY=0.5;entryDx=0;entryDy=0;fontSize=11;" parent="1" source="gbdRAvC1I9ubyzMzI1sU-1251" target="gbdRAvC1I9ubyzMzI1sU-1252" edge="1">
          <mxGeometry relative="1" as="geometry" />
        </mxCell>
        <mxCell id="gbdRAvC1I9ubyzMzI1sU-1251" value="驱逐" style="rounded=0;whiteSpace=wrap;html=1;fillColor=none;" parent="1" vertex="1">
          <mxGeometry x="2312.56" y="3977.4400000000023" width="81.13" height="39.5" as="geometry" />
        </mxCell>
        <mxCell id="gbdRAvC1I9ubyzMzI1sU-1252" value="关闭调度" style="rounded=0;whiteSpace=wrap;html=1;fillColor=#f9f7ed;align=center;strokeColor=#36393d;" parent="1" vertex="1">
          <mxGeometry x="2552.65" y="3978.1300000000047" width="79.63" height="38.12" as="geometry" />
        </mxCell>
        <mxCell id="gbdRAvC1I9ubyzMzI1sU-1253" value="关闭混部" style="rounded=0;whiteSpace=wrap;html=1;align=center;" parent="1" vertex="1">
          <mxGeometry x="2632.2799999999997" y="3978.130000000001" width="78.56" height="38.12" as="geometry" />
        </mxCell>
        <mxCell id="gbdRAvC1I9ubyzMzI1sU-1254" style="edgeStyle=orthogonalEdgeStyle;rounded=0;orthogonalLoop=1;jettySize=auto;html=1;entryX=0.25;entryY=0;entryDx=0;entryDy=0;fontSize=11;" parent="1" source="gbdRAvC1I9ubyzMzI1sU-1255" target="gbdRAvC1I9ubyzMzI1sU-1233" edge="1">
          <mxGeometry relative="1" as="geometry" />
        </mxCell>
        <mxCell id="gbdRAvC1I9ubyzMzI1sU-1255" value="在线容器" style="rounded=0;whiteSpace=wrap;html=1;fillColor=none;" parent="1" vertex="1">
          <mxGeometry x="3366.82" y="3796.9100000000035" width="87.55" height="38" as="geometry" />
        </mxCell>
        <mxCell id="gbdRAvC1I9ubyzMzI1sU-1256" style="edgeStyle=none;rounded=0;orthogonalLoop=1;jettySize=auto;html=1;entryX=0.5;entryY=0;entryDx=0;entryDy=0;fontSize=11;" parent="1" source="gbdRAvC1I9ubyzMzI1sU-1259" target="gbdRAvC1I9ubyzMzI1sU-1270" edge="1">
          <mxGeometry relative="1" as="geometry" />
        </mxCell>
        <mxCell id="gbdRAvC1I9ubyzMzI1sU-1257" style="edgeStyle=orthogonalEdgeStyle;rounded=0;orthogonalLoop=1;jettySize=auto;html=1;fontSize=11;entryX=1;entryY=0.5;entryDx=0;entryDy=0;" parent="1" source="gbdRAvC1I9ubyzMzI1sU-1259" target="gbdRAvC1I9ubyzMzI1sU-1246" edge="1">
          <mxGeometry relative="1" as="geometry">
            <mxPoint x="3970" y="3822.8100000000013" as="targetPoint" />
            <Array as="points">
              <mxPoint x="3980" y="3828.8100000000013" />
              <mxPoint x="3980" y="4156.810000000001" />
            </Array>
          </mxGeometry>
        </mxCell>
        <mxCell id="gbdRAvC1I9ubyzMzI1sU-1258" value="提供资源预测数据" style="edgeLabel;html=1;align=center;verticalAlign=middle;resizable=0;points=[];fontSize=11;" parent="gbdRAvC1I9ubyzMzI1sU-1257" vertex="1" connectable="0">
          <mxGeometry x="0.6696" y="1" relative="1" as="geometry">
            <mxPoint x="271" y="-331" as="offset" />
          </mxGeometry>
        </mxCell>
        <mxCell id="gbdRAvC1I9ubyzMzI1sU-1259" value="资源调整逻辑" style="rounded=0;whiteSpace=wrap;html=1;fillColor=none;" parent="1" vertex="1">
          <mxGeometry x="4230" y="3808.1399999999994" width="115.03" height="40.89" as="geometry" />
        </mxCell>
        <mxCell id="gbdRAvC1I9ubyzMzI1sU-1260" style="rounded=0;orthogonalLoop=1;jettySize=auto;html=1;entryX=0.5;entryY=0;entryDx=0;entryDy=0;fontSize=11;exitX=0.56;exitY=0.993;exitDx=0;exitDy=0;exitPerimeter=0;" parent="1" source="gbdRAvC1I9ubyzMzI1sU-1273" target="gbdRAvC1I9ubyzMzI1sU-1259" edge="1">
          <mxGeometry relative="1" as="geometry">
            <mxPoint x="4313.46" y="3784.7300000000014" as="sourcePoint" />
            <mxPoint x="4311.272499999999" y="3808.1400000000012" as="targetPoint" />
          </mxGeometry>
        </mxCell>
        <mxCell id="gbdRAvC1I9ubyzMzI1sU-1261" style="edgeStyle=orthogonalEdgeStyle;rounded=0;orthogonalLoop=1;jettySize=auto;html=1;entryX=0;entryY=0.5;entryDx=0;entryDy=0;fontSize=11;" parent="1" source="gbdRAvC1I9ubyzMzI1sU-1262" target="gbdRAvC1I9ubyzMzI1sU-1263" edge="1">
          <mxGeometry relative="1" as="geometry" />
        </mxCell>
        <mxCell id="gbdRAvC1I9ubyzMzI1sU-1262" value="关闭混部接口调用" style="rounded=0;whiteSpace=wrap;html=1;fillColor=none;" parent="1" vertex="1">
          <mxGeometry x="2312.56" y="4115.470000000001" width="81.13" height="39.5" as="geometry" />
        </mxCell>
        <mxCell id="gbdRAvC1I9ubyzMzI1sU-1263" value="关闭调度" style="rounded=0;whiteSpace=wrap;html=1;fillColor=#f9f7ed;align=center;strokeColor=#36393d;" parent="1" vertex="1">
          <mxGeometry x="2552.65" y="4116.1600000000035" width="79.63" height="38.12" as="geometry" />
        </mxCell>
        <mxCell id="gbdRAvC1I9ubyzMzI1sU-1264" value="关闭混部" style="rounded=0;whiteSpace=wrap;html=1;align=center;" parent="1" vertex="1">
          <mxGeometry x="2632.2799999999997" y="4116.160000000002" width="78.56" height="38.12" as="geometry" />
        </mxCell>
        <mxCell id="gbdRAvC1I9ubyzMzI1sU-1265" value="不处理" style="text;html=1;align=center;verticalAlign=middle;resizable=0;points=[];autosize=1;strokeColor=none;fillColor=none;fontSize=11;" parent="1" vertex="1">
          <mxGeometry x="3090" y="3407.8100000000013" width="60" height="30" as="geometry" />
        </mxCell>
        <mxCell id="gbdRAvC1I9ubyzMzI1sU-1266" style="edgeStyle=orthogonalEdgeStyle;rounded=0;orthogonalLoop=1;jettySize=auto;html=1;entryX=0.5;entryY=0;entryDx=0;entryDy=0;fontSize=11;" parent="1" source="gbdRAvC1I9ubyzMzI1sU-1267" target="gbdRAvC1I9ubyzMzI1sU-1223" edge="1">
          <mxGeometry relative="1" as="geometry">
            <Array as="points">
              <mxPoint x="3980" y="3713.8100000000013" />
              <mxPoint x="3980" y="3582.8100000000013" />
              <mxPoint x="3555" y="3582.8100000000013" />
            </Array>
          </mxGeometry>
        </mxCell>
        <mxCell id="gbdRAvC1I9ubyzMzI1sU-1267" value="容器变动检测" style="rounded=0;whiteSpace=wrap;html=1;fillColor=none;" parent="1" vertex="1">
          <mxGeometry x="4230" y="3693.3899999999994" width="115.03" height="40.89" as="geometry" />
        </mxCell>
        <mxCell id="gbdRAvC1I9ubyzMzI1sU-1268" style="edgeStyle=none;rounded=0;orthogonalLoop=1;jettySize=auto;html=1;exitX=0.25;exitY=1;exitDx=0;exitDy=0;entryX=0.5;entryY=0;entryDx=0;entryDy=0;fontSize=11;" parent="1" source="gbdRAvC1I9ubyzMzI1sU-1270" target="gbdRAvC1I9ubyzMzI1sU-1272" edge="1">
          <mxGeometry relative="1" as="geometry" />
        </mxCell>
        <mxCell id="gbdRAvC1I9ubyzMzI1sU-1269" style="edgeStyle=none;rounded=0;orthogonalLoop=1;jettySize=auto;html=1;exitX=0.75;exitY=1;exitDx=0;exitDy=0;entryX=0.5;entryY=0;entryDx=0;entryDy=0;fontSize=11;" parent="1" source="gbdRAvC1I9ubyzMzI1sU-1270" target="gbdRAvC1I9ubyzMzI1sU-1271" edge="1">
          <mxGeometry relative="1" as="geometry" />
        </mxCell>
        <mxCell id="gbdRAvC1I9ubyzMzI1sU-1270" value="&lt;span style=&quot;font-size: 11px;&quot;&gt;动态调整offline容器CPU资源&lt;/span&gt;" style="rounded=0;whiteSpace=wrap;html=1;fillColor=none;" parent="1" vertex="1">
          <mxGeometry x="4191.28" y="3887.1600000000017" width="192.48" height="32.53" as="geometry" />
        </mxCell>
        <mxCell id="gbdRAvC1I9ubyzMzI1sU-1271" value="yarn容器&lt;br&gt;" style="rounded=0;whiteSpace=wrap;html=1;fillColor=none;" parent="1" vertex="1">
          <mxGeometry x="4327.97" y="3946.930000000002" width="90.07" height="40" as="geometry" />
        </mxCell>
        <mxCell id="gbdRAvC1I9ubyzMzI1sU-1272" value="其他离线容器" style="rounded=0;whiteSpace=wrap;html=1;fillColor=none;" parent="1" vertex="1">
          <mxGeometry x="4172.66" y="3947.930000000002" width="87.55" height="38" as="geometry" />
        </mxCell>
        <mxCell id="gbdRAvC1I9ubyzMzI1sU-1273" value="离线容器驱逐、压制、每小时的调整、容器增删" style="text;html=1;align=center;verticalAlign=middle;resizable=0;points=[];autosize=1;strokeColor=none;fillColor=none;" parent="1" vertex="1">
          <mxGeometry x="4128.93" y="3755.1600000000017" width="280" height="30" as="geometry" />
        </mxCell>
      </root>
    </mxGraphModel>
  </diagram>
</mxfile>
